<svg width="178" height="136" viewBox="0 0 178 136" fill="none" xmlns="http://www.w3.org/2000/svg">
<rect x="2.26147" y="1.50879" width="173.477" height="132.991" rx="12.5" stroke="url(#paint0_linear_5577_1997)" stroke-width="3"/>
<path d="M88.5681 70.8784C88.5681 73.1638 86.692 75.054 84.3685 75.054H80.2722V66.6855H84.3685C86.692 66.6855 88.5681 68.5586 88.5681 70.8784Z" fill="url(#paint1_linear_5577_1997)"/>
<path d="M97.8963 67.012C95.5555 67.9056 94.3852 69.3318 94.3852 71.2564C94.3852 72.339 94.781 73.2325 95.5556 73.9371C96.3301 74.6416 97.3455 75.0025 98.5847 75.0025C99.5658 75.0025 100.461 74.8134 101.253 74.4354C102.044 74.0574 102.802 73.4559 103.507 72.6483L97.8963 67.012ZM97.8963 67.012C95.5555 67.9056 94.3852 69.3318 94.3852 71.2564C94.3852 72.339 94.781 73.2325 95.5556 73.9371C96.3301 74.6416 97.3455 75.0025 98.5847 75.0025C99.5658 75.0025 100.461 74.8134 101.253 74.4354C102.044 74.0574 102.802 73.4559 103.507 72.6483L97.8963 67.012ZM132.732 65.2593L101.941 34.5176C100.34 32.9195 98.1545 32.0088 95.8826 32.0088H71.6834C66.9503 32.0088 63.1294 35.8408 63.1294 40.5491V46.6493C66.2791 44.9481 68.8436 43.9858 70.8401 43.7453C70.9606 42.7486 71.408 41.8035 72.1653 41.0302C73.9897 39.2088 76.9501 39.2088 78.7573 41.0302C80.5817 42.8517 80.5817 45.8073 78.7573 47.6116C77.7762 48.5911 76.451 49.055 75.1601 48.9691C74.8675 48.9519 74.5921 48.9004 74.2996 48.8317C74.0242 48.7629 73.7488 48.6598 73.4906 48.5395C73.2152 48.4021 72.9399 48.2474 72.6817 48.0584C72.5096 47.9209 72.3202 47.7663 72.1653 47.6116C71.7695 47.2164 71.4425 46.7524 71.2359 46.2713C69.9279 46.4087 67.4667 47.0789 63.1294 49.5706V64.7266C63.1294 65.981 63.4048 67.2182 63.9383 68.3352C64.076 68.6273 64.2309 68.9022 64.403 69.1944C64.5579 69.4521 64.7473 69.7099 64.9366 69.9505C65.1087 70.1738 65.298 70.3972 65.5046 70.6034C65.5562 70.655 65.5906 70.7065 65.6422 70.7581L96.4333 101.5C99.7723 104.833 105.194 104.833 108.533 101.5L132.749 77.3223C136.071 74.0058 136.071 68.5929 132.732 65.2593ZM84.3682 77.1333H78.1893V64.5719H84.3682C87.8449 64.5719 90.6503 67.4073 90.6503 70.8612C90.6503 74.3151 87.8449 77.1333 84.3682 77.1333ZM107.982 77.0989L105.159 74.2636C104.23 75.2259 103.249 75.9476 102.182 76.4115C101.132 76.8755 99.9272 77.1161 98.602 77.1161C97.2939 77.1161 96.1235 76.8927 95.1081 76.4115C94.0926 75.9304 93.3009 75.2602 92.7501 74.3839C92.1821 73.5075 91.9067 72.4936 91.9067 71.3251C91.9067 70.002 92.2854 68.8335 93.0427 67.8197C93.8 66.8058 94.9187 66.0154 96.3989 65.4311C95.8137 64.7438 95.4006 64.108 95.1425 63.5237C94.8843 62.9395 94.7638 62.3037 94.7638 61.6163C94.7638 60.8087 94.9704 60.087 95.3834 59.434C95.7965 58.7982 96.3817 58.2827 97.1562 57.9218C97.9135 57.561 98.8085 57.372 99.8068 57.372C100.805 57.372 101.648 57.561 102.388 57.939C103.111 58.3171 103.662 58.8498 104.024 59.5371C104.402 60.2245 104.557 60.9805 104.523 61.8225H102.027C102.044 61.0665 101.82 60.4822 101.39 60.0526C100.943 59.6402 100.375 59.4168 99.6863 59.4168C98.9462 59.4168 98.361 59.623 97.9135 60.0354C97.466 60.4479 97.2423 60.9805 97.2423 61.6163C97.2423 62.1662 97.3972 62.6817 97.6898 63.1972C97.9823 63.7128 98.4987 64.3486 99.2044 65.0875L104.901 70.7925L105.4 70.0192L107.259 66.9089H109.944L107.707 70.7925C107.397 71.3423 107.018 71.9094 106.605 72.5108L111.27 77.0989H107.982ZM118.739 77.1333H112.56V64.5719H118.739C122.216 64.5719 125.021 67.4073 125.021 70.8612C125.021 74.3151 122.216 77.1333 118.739 77.1333ZM118.739 66.6855H114.643V75.054H118.739C121.063 75.054 122.939 73.1638 122.939 70.8784C122.939 68.5586 121.063 66.6855 118.739 66.6855ZM94.3852 71.2564C94.3852 72.339 94.781 73.2325 95.5556 73.9371C96.3301 74.6416 97.3455 75.0025 98.5847 75.0025C99.5658 75.0025 100.461 74.8134 101.253 74.4354C102.044 74.0574 102.802 73.4559 103.507 72.6483L97.8963 67.012C95.5555 67.9056 94.3852 69.3318 94.3852 71.2564Z" fill="url(#paint2_linear_5577_1997)"/>
<path d="M73.5252 45.0514C73.0604 44.6218 70.255 42.9721 59.5495 49.7769C50.3587 55.6194 41.9768 62.0804 42.8201 69.7788C43.3709 74.7449 47.6737 78.5768 52.665 78.5768C52.6994 78.5768 52.7511 78.5768 52.8027 78.594C57.6391 78.5253 61.5461 74.9682 64.9367 69.9506C67.0021 66.8747 68.8609 63.2661 70.6164 59.5373C73.0605 54.3478 74.0415 50.9969 74.2997 48.8318C74.6611 46.048 73.835 45.2404 73.5252 45.0514ZM69.8419 59.1592C68.1552 62.7334 66.3652 66.2217 64.4031 69.1945C63.7491 70.1912 63.0607 71.1363 62.3722 71.9955C59.584 75.4322 56.4515 77.6661 52.7855 77.7176H52.665C48.1212 77.7176 44.1798 74.2122 43.6807 69.6757C42.889 62.4413 51.0644 56.1692 60.0143 50.4814C66.7783 46.1855 70.1517 45.3951 71.7352 45.3951C72.6302 45.3951 72.94 45.6528 72.94 45.6528L72.9572 45.7044L73.0605 45.7559C73.0605 45.7559 73.7489 46.2542 73.4907 48.5397C73.2842 50.4986 72.4064 53.7635 69.8419 59.1592Z" fill="url(#paint3_linear_5577_1997)"/>
<defs>
<linearGradient id="paint0_linear_5577_1997" x1="89" y1="0.00878906" x2="89" y2="136" gradientUnits="userSpaceOnUse">
<stop stop-color="#FF7629"/>
<stop offset="1" stop-color="#FF9E2A"/>
</linearGradient>
<linearGradient id="paint1_linear_5577_1997" x1="79.6187" y1="74.4419" x2="86.678" y2="67.3712" gradientUnits="userSpaceOnUse">
<stop stop-color="#FF9F29"/>
<stop offset="1" stop-color="#FF6229"/>
</linearGradient>
<linearGradient id="paint2_linear_5577_1997" x1="74.87" y1="80.2062" x2="110.908" y2="44.1103" gradientUnits="userSpaceOnUse">
<stop stop-color="#FF9F29"/>
<stop offset="1" stop-color="#FF6229"/>
</linearGradient>
<linearGradient id="paint3_linear_5577_1997" x1="49.5059" y1="50.2534" x2="104.108" y2="104.943" gradientUnits="userSpaceOnUse">
<stop stop-color="#FF9F29"/>
<stop offset="1" stop-color="#FF6229"/>
</linearGradient>
</defs>
</svg>
