<svg width="148" height="113" viewBox="0 0 148 113" fill="none" xmlns="http://www.w3.org/2000/svg">
<rect x="0.533936" width="146.932" height="112.991" rx="14" fill="#26404C"/>
<path d="M73.706 58.4509C73.706 60.0062 72.4293 61.2925 70.8481 61.2925H68.0605V55.5977H70.8481C72.4293 55.5977 73.706 56.8723 73.706 58.4509Z" fill="white"/>
<path d="M80.0542 55.8203C78.4613 56.4284 77.6649 57.399 77.6649 58.7087C77.6649 59.4454 77.9342 60.0534 78.4613 60.5329C78.9884 61.0123 79.6794 61.2579 80.5227 61.2579C81.1903 61.2579 81.7994 61.1293 82.3382 60.872C82.877 60.6147 83.3923 60.2055 83.8725 59.6559L80.0542 55.8203ZM80.0542 55.8203C78.4613 56.4284 77.6649 57.399 77.6649 58.7087C77.6649 59.4454 77.9342 60.0534 78.4613 60.5329C78.9884 61.0123 79.6794 61.2579 80.5227 61.2579C81.1903 61.2579 81.7994 61.1293 82.3382 60.872C82.877 60.6147 83.3923 60.2055 83.8725 59.6559L80.0542 55.8203ZM103.761 54.6275L82.8067 33.7073C81.7174 32.6198 80.2299 32 78.6839 32H62.2159C58.995 32 56.3948 34.6077 56.3948 37.8118V41.9631C58.5382 40.8054 60.2834 40.1506 61.642 39.9869C61.724 39.3086 62.0285 38.6655 62.5439 38.1392C63.7854 36.8997 65.8 36.8997 67.0298 38.1392C68.2714 39.3788 68.2714 41.3901 67.0298 42.618C66.3622 43.2845 65.4603 43.6003 64.5819 43.5418C64.3828 43.5301 64.1954 43.495 63.9963 43.4482C63.8089 43.4015 63.6214 43.3313 63.4458 43.2494C63.2584 43.1559 63.071 43.0506 62.8953 42.922C62.7781 42.8285 62.6493 42.7232 62.5439 42.618C62.2745 42.349 62.052 42.0333 61.9114 41.7059C61.0213 41.7994 59.3464 42.2555 56.3948 43.9511V54.265C56.3948 55.1187 56.5822 55.9606 56.9453 56.7207C57.039 56.9195 57.1444 57.1066 57.2615 57.3054C57.3669 57.4808 57.4958 57.6562 57.6246 57.8199C57.7417 57.972 57.8706 58.124 58.0111 58.2643C58.0463 58.2994 58.0697 58.3345 58.1048 58.3695L79.0587 79.2898C81.3309 81.5584 85.0204 81.5584 87.2926 79.2898L103.772 62.8366C106.033 60.5797 106.033 56.8961 103.761 54.6275ZM70.8481 62.7079H66.6433V54.1598H70.8481C73.2141 54.1598 75.1232 56.0892 75.1232 58.4397C75.1232 60.7902 73.2141 62.7079 70.8481 62.7079ZM86.9178 62.6846L84.9969 60.7551C84.3645 61.4099 83.6968 61.9011 82.9707 62.2168C82.2562 62.5325 81.4363 62.6962 80.5344 62.6962C79.6443 62.6962 78.8478 62.5442 78.1568 62.2168C77.4657 61.8894 76.927 61.4333 76.5522 60.8369C76.1656 60.2405 75.9782 59.5506 75.9782 58.7554C75.9782 57.855 76.2359 57.0598 76.7513 56.3699C77.2666 55.68 78.0279 55.142 79.0352 54.7445C78.637 54.2767 78.3559 53.844 78.1802 53.4464C78.0045 53.0489 77.9225 52.6162 77.9225 52.1484C77.9225 51.5988 78.0631 51.1077 78.3442 50.6633C78.6253 50.2306 79.0235 49.8798 79.5506 49.6343C80.0659 49.3887 80.675 49.2601 81.3543 49.2601C82.0337 49.2601 82.6076 49.3887 83.1112 49.646C83.6031 49.9032 83.9779 50.2657 84.2239 50.7335C84.4816 51.2012 84.587 51.7158 84.5636 52.2888H82.8652C82.877 51.7742 82.7247 51.3766 82.4319 51.0843C82.1274 50.8036 81.7408 50.6516 81.2723 50.6516C80.7687 50.6516 80.3705 50.792 80.0659 51.0726C79.7614 51.3533 79.6091 51.7158 79.6091 52.1484C79.6091 52.5226 79.7146 52.8734 79.9137 53.2243C80.1128 53.5751 80.4642 54.0077 80.9444 54.5106L84.8213 58.3929L85.1609 57.8667L86.4259 55.7501H88.253L86.7304 58.3929C86.5196 58.7671 86.2619 59.153 85.9808 59.5623L89.1549 62.6846H86.9178ZM94.2382 62.7079H90.0334V54.1598H94.2382C96.6041 54.1598 98.5133 56.0892 98.5133 58.4397C98.5133 60.7902 96.6041 62.7079 94.2382 62.7079ZM94.2382 55.5981H91.4506V61.293H94.2382C95.8194 61.293 97.0961 60.0067 97.0961 58.4514C97.0961 56.8727 95.8194 55.5981 94.2382 55.5981ZM77.6649 58.7087C77.6649 59.4454 77.9342 60.0534 78.4613 60.5329C78.9884 61.0123 79.6794 61.2579 80.5227 61.2579C81.1903 61.2579 81.7994 61.1293 82.3382 60.872C82.877 60.6147 83.3923 60.2055 83.8725 59.6559L80.0542 55.8203C78.4613 56.4284 77.6649 57.399 77.6649 58.7087Z" fill="white"/>
<path d="M63.4691 40.876C63.1529 40.5836 61.2437 39.461 53.9585 44.0918C47.704 48.0677 41.9999 52.4645 42.5739 57.7034C42.9487 61.0829 45.8768 63.6906 49.2735 63.6906C49.2969 63.6906 49.332 63.6906 49.3672 63.7023C52.6584 63.6555 55.3172 61.2349 57.6245 57.8203C59.0301 55.7271 60.295 53.2714 61.4897 50.7339C63.1529 47.2023 63.8205 44.922 63.9962 43.4486C64.2422 41.5542 63.68 41.0046 63.4691 40.876ZM60.9626 50.4766C59.8148 52.9089 58.5967 55.2827 57.2615 57.3058C56.8164 57.984 56.3479 58.6272 55.8794 59.2119C53.9819 61.5506 51.8502 63.0708 49.3554 63.1059H49.2735C46.1813 63.1059 43.4991 60.7204 43.1595 57.6332C42.6207 52.7101 48.1842 48.4419 54.2747 44.5712C58.8778 41.6478 61.1735 41.1098 62.251 41.1098C62.8601 41.1098 63.0709 41.2853 63.0709 41.2853L63.0826 41.3203L63.1529 41.3554C63.1529 41.3554 63.6214 41.6945 63.4457 43.2498C63.3052 44.5829 62.7078 46.8047 60.9626 50.4766Z" fill="white"/>
</svg>
