<svg width="142" height="56" viewBox="0 0 142 56" fill="none" xmlns="http://www.w3.org/2000/svg">
<rect x="0.5" y="0.5" width="141" height="55" rx="27.5" stroke="url(#paint0_linear_5570_1717)" stroke-opacity="0.2"/>
<g clip-path="url(#clip0_5570_1717)">
<path d="M49.7076 20.3663H42V34.3436H49.7076C53.6773 34.3436 56.8996 31.2125 56.8996 27.355C56.8996 23.4974 53.6773 20.3663 49.7076 20.3663ZM49.7076 31.5507H44.8742V23.1593H49.7076C52.092 23.1593 54.0253 25.038 54.0253 27.355C54.0253 29.672 52.092 31.5507 49.7076 31.5507Z" fill="url(#paint1_linear_5570_1717)"/>
<path d="M92.8079 20.3663H85.1003V34.3436H92.8079C96.7777 34.3436 99.9999 31.2125 99.9999 27.355C99.9999 23.4974 96.7777 20.3663 92.8079 20.3663ZM92.8079 31.5507H87.9746V23.1593H92.8079C95.1923 23.1593 97.1257 25.038 97.1257 27.355C97.1257 29.672 95.1923 31.5507 92.8079 31.5507Z" fill="url(#paint2_linear_5570_1717)"/>
<path d="M76.8515 29.1209C77.3413 28.4446 77.7666 27.7933 78.1275 27.1796L80.7311 22.7961H77.612L75.4466 26.3155L74.8795 27.1796L68.2675 20.717C67.4426 19.8779 66.8497 19.164 66.5017 18.5879C66.1537 18.0117 65.9733 17.4106 65.9733 16.7969C65.9733 16.0704 66.2311 15.4818 66.7466 15.0184C67.2622 14.555 67.9453 14.3295 68.796 14.3295C69.5951 14.3295 70.2524 14.5675 70.768 15.056C71.2835 15.5444 71.5155 16.2082 71.5026 17.0474H74.3897C74.4284 16.0955 74.248 15.2313 73.8226 14.4673C73.3973 13.6908 72.7657 13.0896 71.9151 12.6638C71.0773 12.2129 70.072 12 68.9377 12C67.7648 12 66.7466 12.2004 65.8573 12.6137C64.968 13.027 64.2848 13.5906 63.808 14.3295C63.3311 15.056 63.0862 15.8826 63.0862 16.7843C63.0862 17.5734 63.228 18.2873 63.5373 18.9511C63.8337 19.6149 64.3235 20.3288 65.0066 21.1178C63.2924 21.7816 61.9906 22.6834 61.1142 23.8231C60.2377 24.9628 59.7866 26.2904 59.7866 27.7933C59.7866 29.1084 60.1088 30.2607 60.7533 31.2501C61.3977 32.2395 62.3128 33.0035 63.4857 33.5421C64.6586 34.0806 66.012 34.3436 67.5328 34.3436C69.0795 34.3436 70.4715 34.0806 71.696 33.5546C72.9333 33.0286 74.0804 32.227 75.1631 31.1249L78.4368 34.3436H82.2262L76.8515 29.1209ZM70.6391 31.2877C69.7111 31.726 68.68 31.9389 67.5328 31.9389C66.0893 31.9389 64.9164 31.5382 64.0142 30.7366C63.112 29.935 62.6608 28.9205 62.6608 27.7057C62.6608 25.5264 64.0142 23.9233 66.7337 22.9088L73.2555 29.2712C72.4306 30.173 71.5542 30.8493 70.6391 31.2877Z" fill="url(#paint3_linear_5570_1717)"/>
<path d="M44.2942 39.1029C44.6036 39.2532 44.8356 39.4661 45.0031 39.7542C45.1707 40.0422 45.248 40.3679 45.248 40.7561C45.248 41.1444 45.1707 41.47 45.0031 41.7456C44.8356 42.0211 44.6036 42.2465 44.2942 42.3843C43.9849 42.5346 43.624 42.6097 43.1987 42.6097H42V38.8649H43.1987C43.624 38.8775 43.9849 38.9526 44.2942 39.1029ZM44.3329 41.8332C44.5907 41.5827 44.7196 41.2195 44.7196 40.7561C44.7196 40.2927 44.5907 39.9295 44.32 39.6665C44.0622 39.4035 43.6756 39.2782 43.1858 39.2782H42.5027V42.2215H43.1987C43.7013 42.209 44.0751 42.0837 44.3329 41.8332Z" fill="url(#paint4_linear_5570_1717)"/>
<path d="M45.9055 40.3429C46.0343 40.1174 46.2019 39.9421 46.421 39.8168C46.6401 39.6916 46.885 39.629 47.1557 39.629C47.4263 39.629 47.6455 39.6791 47.8517 39.7918C48.045 39.9045 48.1868 40.0423 48.2899 40.2051V39.6791H48.7926V42.6223H48.2899V42.0712C48.1868 42.2466 48.045 42.3843 47.8517 42.4971C47.6583 42.6098 47.4263 42.6599 47.1686 42.6599C46.8979 42.6599 46.653 42.5973 46.4339 42.472C46.2148 42.3468 46.0472 42.1589 45.9183 41.9335C45.7895 41.6955 45.725 41.4325 45.725 41.1444C45.7121 40.8313 45.7766 40.5683 45.9055 40.3429ZM48.1352 40.5558C48.045 40.393 47.9161 40.2677 47.7615 40.18C47.6068 40.0924 47.4392 40.0548 47.2459 40.0548C47.0526 40.0548 46.885 40.0924 46.7303 40.18C46.5757 40.2677 46.4468 40.393 46.3566 40.5558C46.2663 40.7186 46.2148 40.919 46.2148 41.1319C46.2148 41.3573 46.2663 41.5577 46.3566 41.7206C46.4468 41.8834 46.5757 42.0086 46.7303 42.0963C46.885 42.184 47.0526 42.2215 47.2459 42.2215C47.4392 42.2215 47.6068 42.184 47.7615 42.0963C47.9161 42.0086 48.045 41.8834 48.1352 41.7206C48.2255 41.5577 48.277 41.3573 48.277 41.1444C48.277 40.9315 48.2383 40.7311 48.1352 40.5558Z" fill="url(#paint5_linear_5570_1717)"/>
<path d="M49.6561 39.1029C49.5916 39.0403 49.553 38.9652 49.553 38.865C49.553 38.7773 49.5916 38.6896 49.6561 38.627C49.7205 38.5644 49.7979 38.5268 49.901 38.5268C49.9912 38.5268 50.0685 38.5644 50.133 38.627C50.1974 38.6896 50.2232 38.7648 50.2232 38.865C50.2232 38.9526 50.1974 39.0403 50.133 39.1029C50.0685 39.1655 49.9912 39.2031 49.901 39.2031C49.7979 39.2031 49.7205 39.1655 49.6561 39.1029ZM50.1459 39.679V42.6223H49.6432V39.679H50.1459Z" fill="url(#paint6_linear_5570_1717)"/>
<path d="M51.499 38.6395V42.6098H50.9963V38.6395H51.499Z" fill="url(#paint7_linear_5570_1717)"/>
<path d="M54.9661 39.6791L53.1488 44H52.6332L53.2261 42.5848L51.9888 39.6791H52.543L53.4968 42.0587L54.4377 39.6791H54.9661Z" fill="url(#paint8_linear_5570_1717)"/>
<path d="M59.2325 39.1029C59.5418 39.2532 59.7738 39.4661 59.9413 39.7542C60.1089 40.0422 60.1862 40.3679 60.1862 40.7561C60.1862 41.1444 60.1089 41.47 59.9413 41.7456C59.7738 42.0211 59.5418 42.2465 59.2325 42.3843C58.9231 42.5346 58.5622 42.6097 58.1369 42.6097H56.9382V38.8649H58.1369C58.5493 38.8775 58.9231 38.9526 59.2325 39.1029ZM59.2711 41.8332C59.5289 41.5827 59.6578 41.2195 59.6578 40.7561C59.6578 40.2927 59.5289 39.9295 59.2582 39.6665C59.0005 39.4035 58.6138 39.2782 58.124 39.2782H57.428V42.2215H58.124C58.6267 42.209 59.0133 42.0837 59.2711 41.8332Z" fill="url(#paint9_linear_5570_1717)"/>
<path d="M63.5888 41.3323H61.1657C61.1786 41.6204 61.2817 41.8458 61.475 42.0086C61.6555 42.1714 61.8875 42.2466 62.1453 42.2466C62.3644 42.2466 62.5448 42.1965 62.6866 42.0963C62.8284 41.9961 62.9315 41.8709 62.9959 41.708H63.5373C63.4599 41.9961 63.2924 42.2215 63.0475 42.3969C62.8026 42.5722 62.5061 42.6599 62.1453 42.6599C61.8617 42.6599 61.6039 42.5973 61.3719 42.472C61.1399 42.3468 60.9724 42.1714 60.8435 41.9335C60.7146 41.708 60.6501 41.4325 60.6501 41.1319C60.6501 40.8313 60.7146 40.5558 60.8435 40.3303C60.9724 40.1049 61.1399 39.9296 61.3719 39.8043C61.6039 39.6791 61.8617 39.6165 62.1581 39.6165C62.4417 39.6165 62.6995 39.6791 62.9186 39.8043C63.1377 39.9296 63.3053 40.0924 63.4341 40.3053C63.5501 40.5182 63.6146 40.7562 63.6146 41.0317C63.6017 41.1319 63.6017 41.2196 63.5888 41.3323ZM62.9573 40.4556C62.867 40.3178 62.751 40.2176 62.6093 40.155C62.4675 40.0924 62.2999 40.0548 62.1324 40.0548C61.8746 40.0548 61.6684 40.13 61.4879 40.2928C61.3075 40.4556 61.2044 40.6685 61.1786 40.944H63.0861C63.0861 40.7437 63.0475 40.5808 62.9573 40.4556Z" fill="url(#paint10_linear_5570_1717)"/>
<path d="M64.2719 40.3429C64.4008 40.1174 64.5684 39.9421 64.7875 39.8168C65.0066 39.6916 65.2515 39.629 65.5221 39.629C65.7928 39.629 66.0119 39.6791 66.2181 39.7918C66.4115 39.9045 66.5532 40.0423 66.6564 40.2051V39.6791H67.159V42.6223H66.6564V42.0712C66.5532 42.2466 66.4115 42.3843 66.2181 42.4971C66.0248 42.6098 65.7928 42.6599 65.535 42.6599C65.2644 42.6599 65.0195 42.5973 64.8004 42.472C64.5812 42.3468 64.4137 42.1589 64.2848 41.9335C64.1559 41.6955 64.0915 41.4325 64.0915 41.1444C64.0786 40.8313 64.143 40.5683 64.2719 40.3429ZM66.5017 40.5558C66.4115 40.393 66.2826 40.2677 66.1279 40.18C65.9732 40.0924 65.8057 40.0548 65.6124 40.0548C65.419 40.0548 65.2515 40.0924 65.0968 40.18C64.9421 40.2677 64.8132 40.393 64.723 40.5558C64.6328 40.7186 64.5812 40.919 64.5812 41.1319C64.5812 41.3573 64.6328 41.5577 64.723 41.7206C64.8132 41.8834 64.9421 42.0086 65.0968 42.0963C65.2515 42.184 65.419 42.2215 65.6124 42.2215C65.8057 42.2215 65.9732 42.184 66.1279 42.0963C66.2826 42.0086 66.4115 41.8834 66.5017 41.7206C66.5919 41.5577 66.6435 41.3573 66.6435 41.1444C66.6435 40.9315 66.5919 40.7311 66.5017 40.5558Z" fill="url(#paint11_linear_5570_1717)"/>
<path d="M68.4995 38.6395V42.6098H67.9968V38.6395H68.4995Z" fill="url(#paint12_linear_5570_1717)"/>
<path d="M69.8013 42.5471C69.6208 42.472 69.4662 42.3593 69.3631 42.2215C69.26 42.0837 69.1955 41.9209 69.1826 41.7456H69.6982C69.7111 41.8959 69.7884 42.0086 69.9173 42.1088C70.0462 42.1964 70.2137 42.2465 70.42 42.2465C70.6133 42.2465 70.768 42.209 70.8711 42.1213C70.9871 42.0336 71.0386 41.9334 71.0386 41.8082C71.0386 41.6829 70.9742 41.5827 70.8582 41.5201C70.7422 41.4575 70.5617 41.3949 70.3168 41.3323C70.0977 41.2696 69.9044 41.2195 69.7626 41.1569C69.6208 41.0943 69.5048 41.0066 69.4017 40.8939C69.2986 40.7812 69.2471 40.6309 69.2471 40.4305C69.2471 40.2802 69.2986 40.1424 69.3888 40.0172C69.4791 39.8919 69.608 39.7917 69.7755 39.7166C69.9431 39.6415 70.1364 39.6039 70.3555 39.6039C70.6906 39.6039 70.9613 39.6916 71.1675 39.8544C71.3737 40.0172 71.4897 40.2426 71.5026 40.5307H71C70.9871 40.3804 70.9226 40.2552 70.8066 40.155C70.6906 40.0673 70.536 40.0172 70.3426 40.0172C70.1622 40.0172 70.0204 40.0548 69.9173 40.1299C69.8142 40.2051 69.7626 40.3053 69.7626 40.4305C69.7626 40.5307 69.8013 40.6058 69.8528 40.6685C69.9173 40.7311 69.9946 40.7812 70.0977 40.8188C70.2008 40.8563 70.3297 40.8939 70.4973 40.944C70.7164 41.0066 70.8968 41.0567 71.0257 41.1068C71.1675 41.1569 71.2835 41.2446 71.3737 41.3573C71.4768 41.47 71.5155 41.6078 71.5284 41.7957C71.5284 41.9585 71.4768 42.0962 71.3866 42.234C71.2964 42.3593 71.1675 42.4595 71 42.5346C70.8324 42.6098 70.6391 42.6473 70.42 42.6473C70.2008 42.6599 69.9946 42.6223 69.8013 42.5471Z" fill="url(#paint13_linear_5570_1717)"/>
<path d="M76.0008 39.1029C76.3101 39.2532 76.5421 39.4661 76.7097 39.7542C76.8772 40.0422 76.9545 40.3679 76.9545 40.7561C76.9545 41.1444 76.8772 41.47 76.7097 41.7456C76.5421 42.0211 76.3101 42.2465 76.0008 42.3843C75.6914 42.5346 75.3305 42.6097 74.9052 42.6097H73.7065V38.8649H74.9052C75.3305 38.8775 75.6914 38.9526 76.0008 39.1029ZM76.0523 41.8332C76.3101 41.5827 76.439 41.2195 76.439 40.7561C76.439 40.2927 76.3101 39.9295 76.0394 39.6665C75.7817 39.4035 75.395 39.2782 74.9052 39.2782H74.2221V42.2215H74.9181C75.4079 42.209 75.7945 42.0837 76.0523 41.8332Z" fill="url(#paint14_linear_5570_1717)"/>
<path d="M77.6378 39.1029C77.5733 39.0403 77.5347 38.9652 77.5347 38.865C77.5347 38.7773 77.5733 38.6896 77.6378 38.627C77.7022 38.5644 77.7796 38.5268 77.8827 38.5268C77.9729 38.5268 78.0502 38.5644 78.1147 38.627C78.1791 38.6896 78.2049 38.7648 78.2049 38.865C78.2049 38.9526 78.1662 39.0403 78.1147 39.1029C78.0502 39.1655 77.9729 39.2031 77.8827 39.2031C77.7796 39.2031 77.7022 39.1655 77.6378 39.1029ZM78.1147 39.679V42.6223H77.612V39.679H78.1147Z" fill="url(#paint15_linear_5570_1717)"/>
<path d="M79.4292 42.5471C79.2488 42.472 79.0941 42.3593 78.991 42.2215C78.8879 42.0837 78.8234 41.9209 78.8105 41.7456H79.3261C79.339 41.8959 79.4163 42.0086 79.5452 42.1088C79.6741 42.1964 79.8417 42.2465 80.0479 42.2465C80.2412 42.2465 80.3959 42.209 80.499 42.1213C80.615 42.0336 80.6665 41.9334 80.6665 41.8082C80.6665 41.6829 80.6021 41.5827 80.4861 41.5201C80.3701 41.4575 80.1897 41.3949 79.9448 41.3323C79.7257 41.2696 79.5323 41.2195 79.3905 41.1569C79.2488 41.0943 79.1328 41.0066 79.0297 40.8939C78.9265 40.7812 78.875 40.6309 78.875 40.4305C78.875 40.2802 78.9265 40.1424 79.0168 40.0172C79.107 39.8919 79.2359 39.7917 79.4034 39.7166C79.571 39.6415 79.7643 39.6039 79.9834 39.6039C80.3185 39.6039 80.5892 39.6916 80.7954 39.8544C81.0017 40.0172 81.1177 40.2426 81.1305 40.5307H80.6279C80.615 40.3804 80.5505 40.2552 80.4345 40.155C80.3185 40.0673 80.1639 40.0172 79.9705 40.0172C79.7901 40.0172 79.6483 40.0548 79.5452 40.1299C79.4421 40.2051 79.3905 40.3053 79.3905 40.4305C79.3905 40.5307 79.4292 40.6058 79.4808 40.6685C79.5452 40.7311 79.6225 40.7812 79.7257 40.8188C79.8288 40.8563 79.9577 40.8939 80.1252 40.944C80.3443 41.0066 80.5248 41.0567 80.6537 41.1068C80.7954 41.1569 80.9114 41.2446 81.0017 41.3573C81.0919 41.47 81.1434 41.6078 81.1563 41.7957C81.1563 41.9585 81.1048 42.0962 81.0145 42.234C80.9243 42.3593 80.7954 42.4595 80.6279 42.5346C80.4603 42.6098 80.267 42.6473 80.0479 42.6473C79.8159 42.6599 79.6097 42.6223 79.4292 42.5471Z" fill="url(#paint16_linear_5570_1717)"/>
<path d="M81.8652 40.3429C81.9941 40.1174 82.1617 39.9421 82.3808 39.8168C82.5999 39.6916 82.8577 39.629 83.1412 39.629C83.515 39.629 83.8243 39.7166 84.0563 39.892C84.3012 40.0673 84.4559 40.3053 84.5332 40.6184H83.9919C83.9403 40.4431 83.8372 40.2928 83.6954 40.1926C83.5408 40.0924 83.3603 40.0423 83.1412 40.0423C82.8577 40.0423 82.6257 40.1425 82.4452 40.3303C82.2648 40.5182 82.1745 40.7937 82.1745 41.1444C82.1745 41.4951 82.2648 41.7706 82.4452 41.971C82.6257 42.1714 82.8577 42.2591 83.1412 42.2591C83.3603 42.2591 83.5408 42.209 83.6954 42.1088C83.8372 42.0086 83.9403 41.8708 84.0048 41.683H84.5461C84.4688 41.9836 84.3012 42.2215 84.0563 42.4094C83.8114 42.5847 83.515 42.6849 83.1412 42.6849C82.8577 42.6849 82.5999 42.6223 82.3808 42.4971C82.1617 42.3718 81.9812 42.1965 81.8652 41.971C81.7363 41.7456 81.6719 41.4701 81.6719 41.1695C81.6719 40.8313 81.7363 40.5683 81.8652 40.3429Z" fill="url(#paint17_linear_5570_1717)"/>
<path d="M85.7579 42.472C85.5259 42.3468 85.3454 42.1714 85.2165 41.9335C85.0876 41.708 85.0232 41.4325 85.0232 41.1319C85.0232 40.8313 85.0876 40.5683 85.2294 40.3303C85.3583 40.1049 85.5516 39.917 85.7836 39.8043C86.0156 39.6791 86.2734 39.6165 86.557 39.6165C86.8405 39.6165 87.0983 39.6791 87.3303 39.8043C87.5623 39.9296 87.7428 40.1049 87.8845 40.3303C88.0134 40.5558 88.0908 40.8313 88.0908 41.1319C88.0908 41.4325 88.0263 41.708 87.8845 41.9335C87.7428 42.1589 87.5623 42.3468 87.3303 42.472C87.0983 42.5973 86.8276 42.6599 86.5441 42.6599C86.2476 42.6599 85.9899 42.5973 85.7579 42.472ZM87.0339 42.1088C87.1885 42.0212 87.3174 41.9084 87.4205 41.7331C87.5236 41.5703 87.5623 41.3699 87.5623 41.1319C87.5623 40.894 87.5107 40.6936 87.4205 40.5307C87.3303 40.3679 87.2014 40.2427 87.0468 40.1675C86.8921 40.0924 86.7245 40.0423 86.5441 40.0423C86.3636 40.0423 86.1961 40.0799 86.0414 40.1675C85.8868 40.2552 85.7707 40.3679 85.6805 40.5307C85.5903 40.6936 85.5387 40.894 85.5387 41.1319C85.5387 41.3699 85.5774 41.5703 85.6676 41.7331C85.7579 41.8959 85.8739 42.0212 86.0285 42.0963C86.1832 42.1714 86.3508 42.2215 86.5312 42.2215C86.7116 42.2215 86.8792 42.1965 87.0339 42.1088Z" fill="url(#paint18_linear_5570_1717)"/>
<path d="M91.4288 39.6791V42.6223H90.9262V42.184C90.8359 42.3343 90.6942 42.447 90.5266 42.5347C90.3591 42.6223 90.1657 42.6599 89.9595 42.6599C89.7275 42.6599 89.5084 42.6098 89.3279 42.5221C89.1346 42.4219 88.9928 42.2842 88.8897 42.0963C88.7866 41.9084 88.7222 41.6705 88.7222 41.4075V39.6791H89.2248V41.3323C89.2248 41.6204 89.3022 41.8458 89.4568 41.9961C89.6115 42.1464 89.8177 42.2341 90.0755 42.2341C90.3462 42.2341 90.5524 42.1589 90.7071 41.9961C90.8617 41.8333 90.9391 41.5953 90.9391 41.2947V39.6791H91.4288Z" fill="url(#paint19_linear_5570_1717)"/>
<path d="M94.6511 39.9421C94.8831 40.155 94.9991 40.4681 94.9991 40.8814V42.6098H94.4964V40.944C94.4964 40.656 94.4191 40.4305 94.2644 40.2677C94.1098 40.1174 93.9035 40.0298 93.6458 40.0298C93.3751 40.0298 93.1689 40.1049 93.0142 40.2677C92.8595 40.4305 92.7822 40.6685 92.7822 40.9691V42.5973H92.2795V39.6791H92.7822V40.0924C92.8853 39.9421 93.0142 39.8294 93.1818 39.7417C93.3493 39.654 93.5427 39.6165 93.7489 39.6165C94.1227 39.6165 94.4191 39.7292 94.6511 39.9421Z" fill="url(#paint20_linear_5570_1717)"/>
<path d="M96.4299 40.0798V41.8082C96.4299 41.946 96.4556 42.0587 96.5201 42.1088C96.5845 42.1714 96.6876 42.1965 96.8423 42.1965H97.2161V42.6098H96.765C96.4814 42.6098 96.2752 42.5472 96.1334 42.4219C95.9916 42.2967 95.9272 42.0963 95.9272 41.8082V40.0798H95.5405V39.6791H95.9272V38.9401H96.4299V39.6791H97.2161V40.0798H96.4299Z" fill="url(#paint21_linear_5570_1717)"/>
<path d="M98.273 42.5471C98.0925 42.472 97.9379 42.3593 97.8347 42.2215C97.7316 42.0837 97.6672 41.9209 97.6543 41.7456H98.1699C98.1827 41.8959 98.2601 42.0086 98.389 42.1088C98.5179 42.1964 98.6854 42.2465 98.8916 42.2465C99.085 42.2465 99.2396 42.209 99.3427 42.1213C99.4587 42.0336 99.5103 41.9334 99.5103 41.8082C99.5103 41.6829 99.4459 41.5827 99.3299 41.5201C99.2139 41.4575 99.0334 41.3949 98.7885 41.3323C98.5694 41.2696 98.3761 41.2195 98.2343 41.1569C98.0925 41.0943 97.9765 41.0066 97.8734 40.8939C97.7703 40.7812 97.7187 40.6309 97.7187 40.4305C97.7187 40.2802 97.7703 40.1424 97.8605 40.0172C97.9507 39.8919 98.0796 39.7917 98.2472 39.7166C98.4147 39.6415 98.6081 39.6039 98.8272 39.6039C99.1623 39.6039 99.433 39.6916 99.6392 39.8544C99.8454 40.0172 99.9614 40.2426 99.9743 40.5307H99.4716C99.4587 40.3804 99.3943 40.2552 99.2783 40.155C99.1623 40.0673 99.0076 40.0172 98.8143 40.0172C98.6339 40.0172 98.4921 40.0548 98.389 40.1299C98.2859 40.2051 98.2343 40.3053 98.2343 40.4305C98.2343 40.5307 98.273 40.6058 98.3245 40.6685C98.389 40.7311 98.4663 40.7812 98.5694 40.8188C98.6725 40.8563 98.8014 40.8939 98.969 40.944C99.1881 41.0066 99.3685 41.0567 99.4974 41.1068C99.6392 41.1569 99.7552 41.2446 99.8454 41.3573C99.9356 41.47 99.9872 41.6078 100 41.7957C100 41.9585 99.9485 42.0962 99.8583 42.234C99.7681 42.3593 99.6392 42.4595 99.4716 42.5346C99.3041 42.6098 99.1107 42.6473 98.8916 42.6473C98.6596 42.6599 98.4534 42.6223 98.273 42.5471Z" fill="url(#paint22_linear_5570_1717)"/>
</g>
<defs>
<linearGradient id="paint0_linear_5570_1717" x1="5.28991e-07" y1="28" x2="142" y2="28" gradientUnits="userSpaceOnUse">
<stop stop-color="#FF7629"/>
<stop offset="1" stop-color="#FFA53A"/>
</linearGradient>
<linearGradient id="paint1_linear_5570_1717" x1="99.8344" y1="27.355" x2="43.9219" y2="27.355" gradientUnits="userSpaceOnUse">
<stop stop-color="#FF9D29"/>
<stop offset="1" stop-color="#FF7528"/>
</linearGradient>
<linearGradient id="paint2_linear_5570_1717" x1="99.8343" y1="27.355" x2="43.9218" y2="27.355" gradientUnits="userSpaceOnUse">
<stop stop-color="#FF9D29"/>
<stop offset="1" stop-color="#FF7528"/>
</linearGradient>
<linearGradient id="paint3_linear_5570_1717" x1="99.8343" y1="23.1718" x2="43.9218" y2="23.1718" gradientUnits="userSpaceOnUse">
<stop stop-color="#FF9D29"/>
<stop offset="1" stop-color="#FF7528"/>
</linearGradient>
<linearGradient id="paint4_linear_5570_1717" x1="99.689" y1="40.7373" x2="42.0364" y2="40.7373" gradientUnits="userSpaceOnUse">
<stop stop-color="#FF9D29"/>
<stop offset="1" stop-color="#FF7528"/>
</linearGradient>
<linearGradient id="paint5_linear_5570_1717" x1="99.6891" y1="41.1444" x2="42.0365" y2="41.1444" gradientUnits="userSpaceOnUse">
<stop stop-color="#FF9D29"/>
<stop offset="1" stop-color="#FF7528"/>
</linearGradient>
<linearGradient id="paint6_linear_5570_1717" x1="99.6891" y1="40.5745" x2="42.0365" y2="40.5745" gradientUnits="userSpaceOnUse">
<stop stop-color="#FF9D29"/>
<stop offset="1" stop-color="#FF7528"/>
</linearGradient>
<linearGradient id="paint7_linear_5570_1717" x1="99.6888" y1="40.6247" x2="42.0363" y2="40.6247" gradientUnits="userSpaceOnUse">
<stop stop-color="#FF9D29"/>
<stop offset="1" stop-color="#FF7528"/>
</linearGradient>
<linearGradient id="paint8_linear_5570_1717" x1="99.6889" y1="41.8395" x2="42.0363" y2="41.8395" gradientUnits="userSpaceOnUse">
<stop stop-color="#FF9D29"/>
<stop offset="1" stop-color="#FF7528"/>
</linearGradient>
<linearGradient id="paint9_linear_5570_1717" x1="99.689" y1="40.7373" x2="42.0364" y2="40.7373" gradientUnits="userSpaceOnUse">
<stop stop-color="#FF9D29"/>
<stop offset="1" stop-color="#FF7528"/>
</linearGradient>
<linearGradient id="paint10_linear_5570_1717" x1="99.6889" y1="41.1382" x2="42.0363" y2="41.1382" gradientUnits="userSpaceOnUse">
<stop stop-color="#FF9D29"/>
<stop offset="1" stop-color="#FF7528"/>
</linearGradient>
<linearGradient id="paint11_linear_5570_1717" x1="99.6889" y1="41.1444" x2="42.0363" y2="41.1444" gradientUnits="userSpaceOnUse">
<stop stop-color="#FF9D29"/>
<stop offset="1" stop-color="#FF7528"/>
</linearGradient>
<linearGradient id="paint12_linear_5570_1717" x1="99.689" y1="40.6247" x2="42.0362" y2="40.6247" gradientUnits="userSpaceOnUse">
<stop stop-color="#FF9D29"/>
<stop offset="1" stop-color="#FF7528"/>
</linearGradient>
<linearGradient id="paint13_linear_5570_1717" x1="99.689" y1="41.1268" x2="42.0363" y2="41.1268" gradientUnits="userSpaceOnUse">
<stop stop-color="#FF9D29"/>
<stop offset="1" stop-color="#FF7528"/>
</linearGradient>
<linearGradient id="paint14_linear_5570_1717" x1="99.6905" y1="40.7373" x2="42.0379" y2="40.7373" gradientUnits="userSpaceOnUse">
<stop stop-color="#FF9D29"/>
<stop offset="1" stop-color="#FF7528"/>
</linearGradient>
<linearGradient id="paint15_linear_5570_1717" x1="99.6889" y1="40.5745" x2="42.0365" y2="40.5745" gradientUnits="userSpaceOnUse">
<stop stop-color="#FF9D29"/>
<stop offset="1" stop-color="#FF7528"/>
</linearGradient>
<linearGradient id="paint16_linear_5570_1717" x1="99.6889" y1="41.1268" x2="42.0363" y2="41.1268" gradientUnits="userSpaceOnUse">
<stop stop-color="#FF9D29"/>
<stop offset="1" stop-color="#FF7528"/>
</linearGradient>
<linearGradient id="paint17_linear_5570_1717" x1="99.6889" y1="41.157" x2="42.0362" y2="41.157" gradientUnits="userSpaceOnUse">
<stop stop-color="#FF9D29"/>
<stop offset="1" stop-color="#FF7528"/>
</linearGradient>
<linearGradient id="paint18_linear_5570_1717" x1="99.6891" y1="41.1382" x2="42.0364" y2="41.1382" gradientUnits="userSpaceOnUse">
<stop stop-color="#FF9D29"/>
<stop offset="1" stop-color="#FF7528"/>
</linearGradient>
<linearGradient id="paint19_linear_5570_1717" x1="99.689" y1="41.1695" x2="42.0363" y2="41.1695" gradientUnits="userSpaceOnUse">
<stop stop-color="#FF9D29"/>
<stop offset="1" stop-color="#FF7528"/>
</linearGradient>
<linearGradient id="paint20_linear_5570_1717" x1="99.689" y1="41.1131" x2="42.0363" y2="41.1131" gradientUnits="userSpaceOnUse">
<stop stop-color="#FF9D29"/>
<stop offset="1" stop-color="#FF7528"/>
</linearGradient>
<linearGradient id="paint21_linear_5570_1717" x1="99.6891" y1="40.775" x2="42.0365" y2="40.775" gradientUnits="userSpaceOnUse">
<stop stop-color="#FF9D29"/>
<stop offset="1" stop-color="#FF7528"/>
</linearGradient>
<linearGradient id="paint22_linear_5570_1717" x1="99.6891" y1="41.1268" x2="42.0364" y2="41.1268" gradientUnits="userSpaceOnUse">
<stop stop-color="#FF9D29"/>
<stop offset="1" stop-color="#FF7528"/>
</linearGradient>
<clipPath id="clip0_5570_1717">
<rect width="58" height="32" fill="white" transform="translate(42 12)"/>
</clipPath>
</defs>
</svg>
