<svg width="35" height="30" viewBox="0 0 35 30" fill="none" xmlns="http://www.w3.org/2000/svg">
<path d="M19.9155 30V20.979C19.9155 15.3147 21.1643 10.6993 23.662 7.13287C26.2254 3.4965 30.0047 1.11888 35 0V6.81818C32.7653 7.37762 30.9906 8.42657 29.6761 9.96503C28.3615 11.4336 27.507 13.2168 27.1127 15.3147H33.0282V30H19.9155ZM0 30V20.979C0 15.3147 1.24883 10.6993 3.74648 7.13287C6.30986 3.4965 10.0563 1.11888 14.9859 0V6.81818C12.7512 7.37762 10.9765 8.42657 9.66197 9.96503C8.34742 11.4336 7.49296 13.2168 7.09859 15.3147H13.0141V30H0Z" fill="#26404C"/>
</svg>
