<svg width="35" height="30" viewBox="0 0 35 30" fill="none" xmlns="http://www.w3.org/2000/svg">
<path d="M15.0845 2.07363e-06L15.0845 9.02098C15.0845 14.6853 13.8357 19.3007 11.338 22.8671C8.77464 26.5035 4.9953 28.8811 -3.8147e-06 30L-3.21863e-06 23.1818C2.23474 22.6224 4.00939 21.5734 5.32394 20.035C6.6385 18.5664 7.49296 16.7832 7.88732 14.6853L1.97183 14.6853L1.97183 9.27283e-07L15.0845 2.07363e-06ZM35 3.8147e-06L35 9.02098C35 14.6853 33.7512 19.3007 31.2535 22.8671C28.6901 26.5035 24.9437 28.8811 20.0141 30L20.0141 23.1818C22.2488 22.6224 24.0235 21.5734 25.338 20.035C26.6526 18.5664 27.507 16.7832 27.9014 14.6853L21.9859 14.6853L21.9859 2.67697e-06L35 3.8147e-06Z" fill="#26404C"/>
</svg>
