<svg width="1920" height="795" viewBox="0 0 1920 795" fill="none" xmlns="http://www.w3.org/2000/svg">
<path d="M-60 695C19.3333 505.667 168.326 316.248 417 505.5C666 695 833.553 1050.6 1196 497C1420.89 153.5 1784 126 2000.5 372" stroke="#EFECFC"/>
<path d="M-60 627.834C19.3333 438.501 185.384 156.543 409 374.834C598 559.334 832.5 1046.83 1155.5 469.334C1406.35 20.8342 1787.5 50.3342 2000.5 304.834" stroke="#E8E4FA"/>
<path d="M-60 503.834C19.3333 314.501 176.532 41.9953 409 250.834C673 488 790.5 1125.17 1168 364.5C1396.44 -95.8163 1787.5 -73.6658 2000.5 180.834" stroke="#EFECFC"/>
</svg>
