<svg width="234" height="94" viewBox="0 0 234 94" fill="none" xmlns="http://www.w3.org/2000/svg">
<rect x="0.5" y="0.5" width="233" height="93" rx="46.5" stroke="url(#paint0_linear_5398_160)" stroke-opacity="0.2"/>
<g clip-path="url(#clip0_5398_160)">
<path d="M76.6178 32.2098H62V59.2908H76.6178C84.1467 59.2908 90.2578 53.2243 90.2578 45.7503C90.2578 38.2763 84.1467 32.2098 76.6178 32.2098ZM76.6178 53.8794H67.4511V37.6211H76.6178C81.14 37.6211 84.8067 41.261 84.8067 45.7503C84.8067 50.2395 81.14 53.8794 76.6178 53.8794Z" fill="url(#paint1_linear_5398_160)"/>
<path d="M158.36 32.2098H143.742V59.2908H158.36C165.889 59.2908 172 53.2243 172 45.7503C172 38.2763 165.889 32.2098 158.36 32.2098ZM158.36 53.8794H149.193V37.6211H158.36C162.882 37.6211 166.549 41.261 166.549 45.7503C166.549 50.2395 162.882 53.8794 158.36 53.8794Z" fill="url(#paint2_linear_5398_160)"/>
<path d="M128.098 49.1718C129.027 47.8614 129.833 46.5996 130.518 45.4106L135.456 36.9174H129.54L125.433 43.7362L124.358 45.4106L111.818 32.8892C110.253 31.2634 109.129 29.8802 108.469 28.764C107.809 27.6477 107.467 26.483 107.467 25.2939C107.467 23.8865 107.956 22.746 108.933 21.8481C109.911 20.9503 111.207 20.5135 112.82 20.5135C114.336 20.5135 115.582 20.9746 116.56 21.9209C117.538 22.8673 117.978 24.1534 117.953 25.7793H123.429C123.502 23.935 123.16 22.2607 122.353 20.7804C121.547 19.2759 120.349 18.1112 118.736 17.2861C117.147 16.4125 115.24 16 113.089 16C110.864 16 108.933 16.3883 107.247 17.189C105.56 17.9898 104.264 19.0818 103.36 20.5135C102.456 21.9209 101.991 23.5225 101.991 25.2697C101.991 26.7984 102.26 28.1816 102.847 29.4677C103.409 30.7538 104.338 32.137 105.633 33.6658C102.382 34.9519 99.9133 36.699 98.2511 38.9072C96.5889 41.1155 95.7333 43.6877 95.7333 46.5996C95.7333 49.1476 96.3444 51.38 97.5667 53.2971C98.7889 55.2141 100.524 56.6943 102.749 57.7378C104.973 58.7812 107.54 59.2908 110.424 59.2908C113.358 59.2908 115.998 58.7812 118.32 57.762C120.667 56.7429 122.842 55.1898 124.896 53.0544L131.104 59.2908H138.291L128.098 49.1718ZM116.316 53.3699C114.556 54.2192 112.6 54.6317 110.424 54.6317C107.687 54.6317 105.462 53.8552 103.751 52.3022C102.04 50.7491 101.184 48.7836 101.184 46.4297C101.184 42.2074 103.751 39.1014 108.909 37.1358L121.278 49.463C119.713 51.2102 118.051 52.5205 116.316 53.3699Z" fill="url(#paint3_linear_5398_160)"/>
<path d="M66.3511 68.5119C66.9378 68.8031 67.3778 69.2156 67.6956 69.7738C68.0133 70.3319 68.16 70.9628 68.16 71.7151C68.16 72.4673 68.0133 73.0982 67.6956 73.6321C67.3778 74.1659 66.9378 74.6027 66.3511 74.8697C65.7644 75.1609 65.08 75.3064 64.2733 75.3064H62V68.0509H64.2733C65.08 68.0751 65.7644 68.2207 66.3511 68.5119ZM66.4244 73.8019C66.9133 73.3166 67.1578 72.6129 67.1578 71.7151C67.1578 70.8172 66.9133 70.1135 66.4 69.6039C65.9111 69.0943 65.1778 68.8517 64.2489 68.8517H62.9533V74.5542H64.2733C65.2267 74.5299 65.9356 74.2873 66.4244 73.8019Z" fill="url(#paint4_linear_5398_160)"/>
<path d="M69.4067 70.9143C69.6511 70.4775 69.9689 70.1378 70.3844 69.8951C70.8 69.6525 71.2644 69.5311 71.7778 69.5311C72.2911 69.5311 72.7067 69.6282 73.0978 69.8466C73.4644 70.065 73.7333 70.3319 73.9289 70.6474V69.6282H74.8822V75.3307H73.9289V74.263C73.7333 74.6028 73.4644 74.8697 73.0978 75.0881C72.7311 75.3065 72.2911 75.4035 71.8022 75.4035C71.2889 75.4035 70.8244 75.2822 70.4089 75.0395C69.9933 74.7969 69.6756 74.4329 69.4311 73.9961C69.1867 73.535 69.0644 73.0255 69.0644 72.4673C69.04 71.8607 69.1622 71.3511 69.4067 70.9143ZM73.6356 71.3268C73.4644 71.0114 73.22 70.7687 72.9267 70.5988C72.6333 70.429 72.3156 70.3562 71.9489 70.3562C71.5822 70.3562 71.2644 70.429 70.9711 70.5988C70.6778 70.7687 70.4333 71.0114 70.2622 71.3268C70.0911 71.6423 69.9933 72.0305 69.9933 72.4431C69.9933 72.8799 70.0911 73.2681 70.2622 73.5836C70.4333 73.899 70.6778 74.1417 70.9711 74.3116C71.2644 74.4814 71.5822 74.5542 71.9489 74.5542C72.3156 74.5542 72.6333 74.4814 72.9267 74.3116C73.22 74.1417 73.4644 73.899 73.6356 73.5836C73.8067 73.2681 73.9044 72.8799 73.9044 72.4673C73.9044 72.0548 73.8311 71.6665 73.6356 71.3268Z" fill="url(#paint5_linear_5398_160)"/>
<path d="M76.52 68.5119C76.3978 68.3906 76.3244 68.245 76.3244 68.0509C76.3244 67.881 76.3978 67.7112 76.52 67.5898C76.6422 67.4685 76.7889 67.3957 76.9844 67.3957C77.1556 67.3957 77.3022 67.4685 77.4244 67.5898C77.5467 67.7112 77.5956 67.8567 77.5956 68.0509C77.5956 68.2207 77.5467 68.3906 77.4244 68.5119C77.3022 68.6333 77.1556 68.7061 76.9844 68.7061C76.7889 68.7061 76.6422 68.6333 76.52 68.5119ZM77.4489 69.6282V75.3307H76.4956V69.6282H77.4489Z" fill="url(#paint6_linear_5398_160)"/>
<path d="M80.0156 67.6141V75.3064H79.0622V67.6141H80.0156Z" fill="url(#paint7_linear_5398_160)"/>
<path d="M86.5911 69.6282L83.1444 78H82.1667L83.2911 75.2579L80.9444 69.6282H81.9956L83.8044 74.2387L85.5889 69.6282H86.5911Z" fill="url(#paint8_linear_5398_160)"/>
<path d="M94.6822 68.5119C95.2689 68.8031 95.7089 69.2156 96.0267 69.7738C96.3444 70.3319 96.4911 70.9628 96.4911 71.7151C96.4911 72.4673 96.3444 73.0982 96.0267 73.6321C95.7089 74.1659 95.2689 74.6027 94.6822 74.8697C94.0956 75.1609 93.4111 75.3064 92.6044 75.3064H90.3311V68.0509H92.6044C93.3867 68.0751 94.0956 68.2207 94.6822 68.5119ZM94.7556 73.8019C95.2444 73.3166 95.4889 72.6129 95.4889 71.7151C95.4889 70.8172 95.2444 70.1135 94.7311 69.6039C94.2422 69.0943 93.5089 68.8517 92.58 68.8517H91.26V74.5542H92.58C93.5333 74.5299 94.2667 74.2873 94.7556 73.8019Z" fill="url(#paint9_linear_5398_160)"/>
<path d="M102.944 72.8313H98.3489C98.3733 73.3894 98.5689 73.8262 98.9356 74.1417C99.2778 74.4571 99.7178 74.6027 100.207 74.6027C100.622 74.6027 100.964 74.5057 101.233 74.3115C101.502 74.1174 101.698 73.8747 101.82 73.5593H102.847C102.7 74.1174 102.382 74.5542 101.918 74.8939C101.453 75.2336 100.891 75.4035 100.207 75.4035C99.6689 75.4035 99.18 75.2822 98.74 75.0395C98.3 74.7969 97.9822 74.4571 97.7378 73.9961C97.4933 73.5593 97.3711 73.0254 97.3711 72.443C97.3711 71.8607 97.4933 71.3268 97.7378 70.89C97.9822 70.4532 98.3 70.1135 98.74 69.8708C99.18 69.6282 99.6689 69.5068 100.231 69.5068C100.769 69.5068 101.258 69.6282 101.673 69.8708C102.089 70.1135 102.407 70.4289 102.651 70.8415C102.871 71.254 102.993 71.7151 102.993 72.2489C102.969 72.443 102.969 72.6129 102.944 72.8313ZM101.747 71.1327C101.576 70.8657 101.356 70.6716 101.087 70.5503C100.818 70.429 100.5 70.3562 100.182 70.3562C99.6933 70.3562 99.3022 70.5017 98.96 70.8172C98.6178 71.1327 98.4222 71.5452 98.3733 72.079H101.991C101.991 71.6908 101.918 71.3753 101.747 71.1327Z" fill="url(#paint10_linear_5398_160)"/>
<path d="M104.24 70.9143C104.484 70.4775 104.802 70.1378 105.218 69.8951C105.633 69.6525 106.098 69.5311 106.611 69.5311C107.124 69.5311 107.54 69.6282 107.931 69.8466C108.298 70.065 108.567 70.3319 108.762 70.6474V69.6282H109.716V75.3307H108.762V74.263C108.567 74.6028 108.298 74.8697 107.931 75.0881C107.564 75.3065 107.124 75.4035 106.636 75.4035C106.122 75.4035 105.658 75.2822 105.242 75.0395C104.827 74.7969 104.509 74.4329 104.264 73.9961C104.02 73.535 103.898 73.0255 103.898 72.4673C103.873 71.8607 103.996 71.3511 104.24 70.9143ZM108.469 71.3268C108.298 71.0114 108.053 70.7687 107.76 70.5988C107.467 70.429 107.149 70.3562 106.782 70.3562C106.416 70.3562 106.098 70.429 105.804 70.5988C105.511 70.7687 105.267 71.0114 105.096 71.3268C104.924 71.6423 104.827 72.0305 104.827 72.4431C104.827 72.8799 104.924 73.2681 105.096 73.5836C105.267 73.899 105.511 74.1417 105.804 74.3116C106.098 74.4814 106.416 74.5542 106.782 74.5542C107.149 74.5542 107.467 74.4814 107.76 74.3116C108.053 74.1417 108.298 73.899 108.469 73.5836C108.64 73.2681 108.738 72.8799 108.738 72.4673C108.738 72.0548 108.64 71.6665 108.469 71.3268Z" fill="url(#paint11_linear_5398_160)"/>
<path d="M112.258 67.6141V75.3064H111.304V67.6141H112.258Z" fill="url(#paint12_linear_5398_160)"/>
<path d="M114.727 75.1851C114.384 75.0395 114.091 74.8211 113.896 74.5542C113.7 74.2873 113.578 73.9718 113.553 73.6321H114.531C114.556 73.9233 114.702 74.1417 114.947 74.3358C115.191 74.5057 115.509 74.6027 115.9 74.6027C116.267 74.6027 116.56 74.5299 116.756 74.3601C116.976 74.1902 117.073 73.9961 117.073 73.7534C117.073 73.5108 116.951 73.3166 116.731 73.1953C116.511 73.074 116.169 72.9526 115.704 72.8313C115.289 72.71 114.922 72.6129 114.653 72.4916C114.384 72.3702 114.164 72.2004 113.969 71.982C113.773 71.7636 113.676 71.4724 113.676 71.0841C113.676 70.7929 113.773 70.526 113.944 70.2834C114.116 70.0407 114.36 69.8466 114.678 69.701C114.996 69.5554 115.362 69.4826 115.778 69.4826C116.413 69.4826 116.927 69.6524 117.318 69.9679C117.709 70.2834 117.929 70.7202 117.953 71.2783H117C116.976 70.9871 116.853 70.7444 116.633 70.5503C116.413 70.3804 116.12 70.2834 115.753 70.2834C115.411 70.2834 115.142 70.3562 114.947 70.5018C114.751 70.6474 114.653 70.8415 114.653 71.0841C114.653 71.2783 114.727 71.4239 114.824 71.5452C114.947 71.6665 115.093 71.7636 115.289 71.8364C115.484 71.9092 115.729 71.982 116.047 72.0791C116.462 72.2004 116.804 72.2974 117.049 72.3945C117.318 72.4916 117.538 72.6614 117.709 72.8798C117.904 73.0982 117.978 73.3652 118.002 73.7291C118.002 74.0446 117.904 74.3115 117.733 74.5785C117.562 74.8211 117.318 75.0153 117 75.1609C116.682 75.3065 116.316 75.3792 115.9 75.3792C115.484 75.4035 115.093 75.3307 114.727 75.1851Z" fill="url(#paint13_linear_5398_160)"/>
<path d="M126.484 68.5119C127.071 68.8031 127.511 69.2156 127.829 69.7738C128.147 70.3319 128.293 70.9628 128.293 71.7151C128.293 72.4673 128.147 73.0982 127.829 73.6321C127.511 74.1659 127.071 74.6027 126.484 74.8697C125.898 75.1609 125.213 75.3064 124.407 75.3064H122.133V68.0509H124.407C125.213 68.0751 125.898 68.2207 126.484 68.5119ZM126.582 73.8019C127.071 73.3166 127.316 72.6129 127.316 71.7151C127.316 70.8172 127.071 70.1135 126.558 69.6039C126.069 69.0943 125.336 68.8517 124.407 68.8517H123.111V74.5542H124.431C125.36 74.5299 126.093 74.2873 126.582 73.8019Z" fill="url(#paint14_linear_5398_160)"/>
<path d="M129.589 68.5119C129.467 68.3906 129.393 68.245 129.393 68.0509C129.393 67.881 129.467 67.7112 129.589 67.5898C129.711 67.4685 129.858 67.3957 130.053 67.3957C130.224 67.3957 130.371 67.4685 130.493 67.5898C130.616 67.7112 130.664 67.8567 130.664 68.0509C130.664 68.2207 130.591 68.3906 130.493 68.5119C130.371 68.6333 130.224 68.7061 130.053 68.7061C129.858 68.7061 129.711 68.6333 129.589 68.5119ZM130.493 69.6282V75.3307H129.54V69.6282H130.493Z" fill="url(#paint15_linear_5398_160)"/>
<path d="M132.987 75.1851C132.644 75.0395 132.351 74.8211 132.156 74.5542C131.96 74.2873 131.838 73.9718 131.813 73.6321H132.791C132.816 73.9233 132.962 74.1417 133.207 74.3358C133.451 74.5057 133.769 74.6027 134.16 74.6027C134.527 74.6027 134.82 74.5299 135.016 74.3601C135.236 74.1902 135.333 73.9961 135.333 73.7534C135.333 73.5108 135.211 73.3166 134.991 73.1953C134.771 73.074 134.429 72.9526 133.964 72.8313C133.549 72.71 133.182 72.6129 132.913 72.4916C132.644 72.3702 132.424 72.2004 132.229 71.982C132.033 71.7636 131.936 71.4724 131.936 71.0841C131.936 70.7929 132.033 70.526 132.204 70.2834C132.376 70.0407 132.62 69.8466 132.938 69.701C133.256 69.5554 133.622 69.4826 134.038 69.4826C134.673 69.4826 135.187 69.6524 135.578 69.9679C135.969 70.2834 136.189 70.7202 136.213 71.2783H135.26C135.236 70.9871 135.113 70.7444 134.893 70.5503C134.673 70.3804 134.38 70.2834 134.013 70.2834C133.671 70.2834 133.402 70.3562 133.207 70.5018C133.011 70.6474 132.913 70.8415 132.913 71.0841C132.913 71.2783 132.987 71.4239 133.084 71.5452C133.207 71.6665 133.353 71.7636 133.549 71.8364C133.744 71.9092 133.989 71.982 134.307 72.0791C134.722 72.2004 135.064 72.2974 135.309 72.3945C135.578 72.4916 135.798 72.6614 135.969 72.8798C136.14 73.0982 136.238 73.3652 136.262 73.7291C136.262 74.0446 136.164 74.3115 135.993 74.5785C135.822 74.8211 135.578 75.0153 135.26 75.1609C134.942 75.3065 134.576 75.3792 134.16 75.3792C133.72 75.4035 133.329 75.3307 132.987 75.1851Z" fill="url(#paint16_linear_5398_160)"/>
<path d="M137.607 70.9143C137.851 70.4775 138.169 70.1378 138.584 69.8951C139 69.6525 139.489 69.5311 140.027 69.5311C140.736 69.5311 141.322 69.701 141.762 70.0407C142.227 70.3804 142.52 70.8415 142.667 71.4482H141.64C141.542 71.1084 141.347 70.8172 141.078 70.6231C140.784 70.429 140.442 70.3319 140.027 70.3319C139.489 70.3319 139.049 70.526 138.707 70.89C138.364 71.254 138.193 71.7879 138.193 72.4673C138.193 73.1468 138.364 73.6806 138.707 74.0689C139.049 74.4572 139.489 74.627 140.027 74.627C140.442 74.627 140.784 74.53 141.078 74.3358C141.347 74.1417 141.542 73.8748 141.664 73.5108H142.691C142.544 74.0932 142.227 74.5542 141.762 74.9182C141.298 75.2579 140.736 75.4521 140.027 75.4521C139.489 75.4521 139 75.3307 138.584 75.0881C138.169 74.8454 137.827 74.5057 137.607 74.0689C137.362 73.6321 137.24 73.0982 137.24 72.5159C137.24 71.8607 137.362 71.3511 137.607 70.9143Z" fill="url(#paint17_linear_5398_160)"/>
<path d="M144.989 75.0395C144.549 74.7969 144.207 74.4571 143.962 73.9961C143.718 73.5593 143.596 73.0254 143.596 72.443C143.596 71.8607 143.718 71.3511 143.987 70.89C144.231 70.4532 144.598 70.0892 145.038 69.8708C145.478 69.6282 145.967 69.5068 146.504 69.5068C147.042 69.5068 147.531 69.6282 147.971 69.8708C148.411 70.1135 148.753 70.4532 149.022 70.89C149.267 71.3268 149.413 71.8607 149.413 72.443C149.413 73.0254 149.291 73.5593 149.022 73.9961C148.753 74.4329 148.411 74.7969 147.971 75.0395C147.531 75.2822 147.018 75.4035 146.48 75.4035C145.918 75.4035 145.429 75.2822 144.989 75.0395ZM147.409 74.3358C147.702 74.1659 147.947 73.9475 148.142 73.6078C148.338 73.2924 148.411 72.9041 148.411 72.443C148.411 71.982 148.313 71.5937 148.142 71.2783C147.971 70.9628 147.727 70.7201 147.433 70.5745C147.14 70.4289 146.822 70.3319 146.48 70.3319C146.138 70.3319 145.82 70.4047 145.527 70.5745C145.233 70.7444 145.013 70.9628 144.842 71.2783C144.671 71.5937 144.573 71.982 144.573 72.443C144.573 72.9041 144.647 73.2924 144.818 73.6078C144.989 73.9233 145.209 74.1659 145.502 74.3115C145.796 74.4571 146.113 74.5542 146.456 74.5542C146.798 74.5542 147.116 74.5057 147.409 74.3358Z" fill="url(#paint18_linear_5398_160)"/>
<path d="M155.744 69.6282V75.3307H154.791V74.4814C154.62 74.7726 154.351 74.991 154.033 75.1609C153.716 75.3307 153.349 75.4035 152.958 75.4035C152.518 75.4035 152.102 75.3065 151.76 75.1366C151.393 74.9425 151.124 74.6755 150.929 74.3115C150.733 73.9475 150.611 73.4865 150.611 72.9769V69.6282H151.564V72.8313C151.564 73.3894 151.711 73.8262 152.004 74.1174C152.298 74.4086 152.689 74.5785 153.178 74.5785C153.691 74.5785 154.082 74.4329 154.376 74.1174C154.669 73.802 154.816 73.3409 154.816 72.7585V69.6282H155.744Z" fill="url(#paint19_linear_5398_160)"/>
<path d="M161.856 70.1378C162.296 70.5503 162.516 71.1569 162.516 71.9577V75.3064H161.562V72.079C161.562 71.5209 161.416 71.0841 161.122 70.7687C160.829 70.4775 160.438 70.3076 159.949 70.3076C159.436 70.3076 159.044 70.4532 158.751 70.7687C158.458 71.0841 158.311 71.5452 158.311 72.1276V75.2822H157.358V69.6282H158.311V70.429C158.507 70.1378 158.751 69.9194 159.069 69.7495C159.387 69.5796 159.753 69.5068 160.144 69.5068C160.853 69.5068 161.416 69.7252 161.856 70.1378Z" fill="url(#paint20_linear_5398_160)"/>
<path d="M165.229 70.4047V73.7534C165.229 74.0203 165.278 74.2387 165.4 74.3358C165.522 74.4571 165.718 74.5057 166.011 74.5057H166.72V75.3064H165.864C165.327 75.3064 164.936 75.1851 164.667 74.9425C164.398 74.6998 164.276 74.3115 164.276 73.7534V70.4047H163.542V69.6282H164.276V68.1965H165.229V69.6282H166.72V70.4047H165.229Z" fill="url(#paint21_linear_5398_160)"/>
<path d="M168.724 75.1851C168.382 75.0395 168.089 74.8211 167.893 74.5542C167.698 74.2873 167.576 73.9718 167.551 73.6321H168.529C168.553 73.9233 168.7 74.1417 168.944 74.3358C169.189 74.5057 169.507 74.6027 169.898 74.6027C170.264 74.6027 170.558 74.5299 170.753 74.3601C170.973 74.1902 171.071 73.9961 171.071 73.7534C171.071 73.5108 170.949 73.3166 170.729 73.1953C170.509 73.074 170.167 72.9526 169.702 72.8313C169.287 72.71 168.92 72.6129 168.651 72.4916C168.382 72.3702 168.162 72.2004 167.967 71.982C167.771 71.7636 167.673 71.4724 167.673 71.0841C167.673 70.7929 167.771 70.526 167.942 70.2834C168.113 70.0407 168.358 69.8466 168.676 69.701C168.993 69.5554 169.36 69.4826 169.776 69.4826C170.411 69.4826 170.924 69.6524 171.316 69.9679C171.707 70.2834 171.927 70.7202 171.951 71.2783H170.998C170.973 70.9871 170.851 70.7444 170.631 70.5503C170.411 70.3804 170.118 70.2834 169.751 70.2834C169.409 70.2834 169.14 70.3562 168.944 70.5018C168.749 70.6474 168.651 70.8415 168.651 71.0841C168.651 71.2783 168.724 71.4239 168.822 71.5452C168.944 71.6665 169.091 71.7636 169.287 71.8364C169.482 71.9092 169.727 71.982 170.044 72.0791C170.46 72.2004 170.802 72.2974 171.047 72.3945C171.316 72.4916 171.536 72.6614 171.707 72.8798C171.878 73.0982 171.976 73.3652 172 73.7291C172 74.0446 171.902 74.3115 171.731 74.5785C171.56 74.8211 171.316 75.0153 170.998 75.1609C170.68 75.3065 170.313 75.3792 169.898 75.3792C169.458 75.4035 169.067 75.3307 168.724 75.1851Z" fill="url(#paint22_linear_5398_160)"/>
</g>
<defs>
<linearGradient id="paint0_linear_5398_160" x1="8.71718e-07" y1="47" x2="234" y2="47" gradientUnits="userSpaceOnUse">
<stop stop-color="#FF7629"/>
<stop offset="1" stop-color="#FFA53A"/>
</linearGradient>
<linearGradient id="paint1_linear_5398_160" x1="171.686" y1="45.7503" x2="65.6449" y2="45.7503" gradientUnits="userSpaceOnUse">
<stop stop-color="#FF9D29"/>
<stop offset="1" stop-color="#FF7528"/>
</linearGradient>
<linearGradient id="paint2_linear_5398_160" x1="171.686" y1="45.7503" x2="65.6449" y2="45.7503" gradientUnits="userSpaceOnUse">
<stop stop-color="#FF9D29"/>
<stop offset="1" stop-color="#FF7528"/>
</linearGradient>
<linearGradient id="paint3_linear_5398_160" x1="171.686" y1="37.6454" x2="65.6449" y2="37.6454" gradientUnits="userSpaceOnUse">
<stop stop-color="#FF9D29"/>
<stop offset="1" stop-color="#FF7528"/>
</linearGradient>
<linearGradient id="paint4_linear_5398_160" x1="171.41" y1="71.6787" x2="62.069" y2="71.6787" gradientUnits="userSpaceOnUse">
<stop stop-color="#FF9D29"/>
<stop offset="1" stop-color="#FF7528"/>
</linearGradient>
<linearGradient id="paint5_linear_5398_160" x1="171.41" y1="72.4673" x2="62.069" y2="72.4673" gradientUnits="userSpaceOnUse">
<stop stop-color="#FF9D29"/>
<stop offset="1" stop-color="#FF7528"/>
</linearGradient>
<linearGradient id="paint6_linear_5398_160" x1="171.41" y1="71.3632" x2="62.069" y2="71.3632" gradientUnits="userSpaceOnUse">
<stop stop-color="#FF9D29"/>
<stop offset="1" stop-color="#FF7528"/>
</linearGradient>
<linearGradient id="paint7_linear_5398_160" x1="171.41" y1="71.4603" x2="62.069" y2="71.4603" gradientUnits="userSpaceOnUse">
<stop stop-color="#FF9D29"/>
<stop offset="1" stop-color="#FF7528"/>
</linearGradient>
<linearGradient id="paint8_linear_5398_160" x1="171.41" y1="73.8141" x2="62.069" y2="73.8141" gradientUnits="userSpaceOnUse">
<stop stop-color="#FF9D29"/>
<stop offset="1" stop-color="#FF7528"/>
</linearGradient>
<linearGradient id="paint9_linear_5398_160" x1="171.41" y1="71.6787" x2="62.069" y2="71.6787" gradientUnits="userSpaceOnUse">
<stop stop-color="#FF9D29"/>
<stop offset="1" stop-color="#FF7528"/>
</linearGradient>
<linearGradient id="paint10_linear_5398_160" x1="171.41" y1="72.4552" x2="62.069" y2="72.4552" gradientUnits="userSpaceOnUse">
<stop stop-color="#FF9D29"/>
<stop offset="1" stop-color="#FF7528"/>
</linearGradient>
<linearGradient id="paint11_linear_5398_160" x1="171.41" y1="72.4673" x2="62.069" y2="72.4673" gradientUnits="userSpaceOnUse">
<stop stop-color="#FF9D29"/>
<stop offset="1" stop-color="#FF7528"/>
</linearGradient>
<linearGradient id="paint12_linear_5398_160" x1="171.41" y1="71.4603" x2="62.0689" y2="71.4603" gradientUnits="userSpaceOnUse">
<stop stop-color="#FF9D29"/>
<stop offset="1" stop-color="#FF7528"/>
</linearGradient>
<linearGradient id="paint13_linear_5398_160" x1="171.41" y1="72.4332" x2="62.069" y2="72.4332" gradientUnits="userSpaceOnUse">
<stop stop-color="#FF9D29"/>
<stop offset="1" stop-color="#FF7528"/>
</linearGradient>
<linearGradient id="paint14_linear_5398_160" x1="171.413" y1="71.6787" x2="62.072" y2="71.6787" gradientUnits="userSpaceOnUse">
<stop stop-color="#FF9D29"/>
<stop offset="1" stop-color="#FF7528"/>
</linearGradient>
<linearGradient id="paint15_linear_5398_160" x1="171.41" y1="71.3632" x2="62.0692" y2="71.3632" gradientUnits="userSpaceOnUse">
<stop stop-color="#FF9D29"/>
<stop offset="1" stop-color="#FF7528"/>
</linearGradient>
<linearGradient id="paint16_linear_5398_160" x1="171.41" y1="72.4332" x2="62.0691" y2="72.4332" gradientUnits="userSpaceOnUse">
<stop stop-color="#FF9D29"/>
<stop offset="1" stop-color="#FF7528"/>
</linearGradient>
<linearGradient id="paint17_linear_5398_160" x1="171.41" y1="72.4916" x2="62.0689" y2="72.4916" gradientUnits="userSpaceOnUse">
<stop stop-color="#FF9D29"/>
<stop offset="1" stop-color="#FF7528"/>
</linearGradient>
<linearGradient id="paint18_linear_5398_160" x1="171.41" y1="72.4552" x2="62.0689" y2="72.4552" gradientUnits="userSpaceOnUse">
<stop stop-color="#FF9D29"/>
<stop offset="1" stop-color="#FF7528"/>
</linearGradient>
<linearGradient id="paint19_linear_5398_160" x1="171.41" y1="72.5158" x2="62.069" y2="72.5158" gradientUnits="userSpaceOnUse">
<stop stop-color="#FF9D29"/>
<stop offset="1" stop-color="#FF7528"/>
</linearGradient>
<linearGradient id="paint20_linear_5398_160" x1="171.41" y1="72.4066" x2="62.069" y2="72.4066" gradientUnits="userSpaceOnUse">
<stop stop-color="#FF9D29"/>
<stop offset="1" stop-color="#FF7528"/>
</linearGradient>
<linearGradient id="paint21_linear_5398_160" x1="171.41" y1="71.7515" x2="62.069" y2="71.7515" gradientUnits="userSpaceOnUse">
<stop stop-color="#FF9D29"/>
<stop offset="1" stop-color="#FF7528"/>
</linearGradient>
<linearGradient id="paint22_linear_5398_160" x1="171.41" y1="72.4332" x2="62.0689" y2="72.4332" gradientUnits="userSpaceOnUse">
<stop stop-color="#FF9D29"/>
<stop offset="1" stop-color="#FF7528"/>
</linearGradient>
<clipPath id="clip0_5398_160">
<rect width="110" height="62" fill="white" transform="translate(62 16)"/>
</clipPath>
</defs>
</svg>
