<svg width="365" height="232" viewBox="0 0 365 232" fill="none" xmlns="http://www.w3.org/2000/svg">
<path opacity="0.05" d="M90.2 231.6C72.4 231.6 56.8 226.8 43.4 217.2C30 207.6 19.5 194.1 11.9 176.7C4.5 159.3 0.800001 139.1 0.800001 116.1C0.800001 92.9 4.5 72.7 11.9 55.5C19.3 38.3 29.7 24.9 43.1 15.3C56.5 5.69999 72.1 0.899991 89.9 0.899991C108.1 0.899991 123.8 5.69999 137 15.3C150.4 24.9 160.9 38.4 168.5 55.8C176.1 73 179.9 93.1 179.9 116.1C179.9 139.1 176.1 159.3 168.5 176.7C161.1 193.9 150.7 207.4 137.3 217.2C123.9 226.8 108.2 231.6 90.2 231.6ZM90.5 194.4C100.7 194.4 109.4 191.3 116.6 185.1C123.8 178.7 129.3 169.7 133.1 158.1C137.1 146.3 139.1 132.3 139.1 116.1C139.1 99.9 137.1 86 133.1 74.4C129.3 62.6 123.7 53.6 116.3 47.4C109.1 41.2 100.3 38.1 89.9 38.1C79.9 38.1 71.3 41.2 64.1 47.4C56.9 53.6 51.3 62.6 47.3 74.4C43.5 86 41.6 99.9 41.6 116.1C41.6 132.1 43.5 146 47.3 157.8C51.3 169.4 56.9 178.4 64.1 184.8C71.5 191.2 80.3 194.4 90.5 194.4ZM224.602 228L300.502 130.2L307.402 137.4C304.402 139.6 301.502 141.4 298.702 142.8C295.902 144.2 292.902 145.2 289.702 145.8C286.502 146.4 283.102 146.7 279.502 146.7C265.902 146.7 253.802 143.6 243.202 137.4C232.602 131.2 224.202 122.8 218.002 112.2C212.002 101.4 209.002 89.2 209.002 75.6C209.002 61.2 212.302 48.4 218.902 37.2C225.702 26 234.902 17.2 246.502 10.8C258.302 4.19999 271.702 0.899991 286.702 0.899991C301.902 0.899991 315.302 4.09999 326.902 10.5C338.502 16.9 347.602 25.7 354.202 36.9C361.002 47.9 364.402 60.6 364.402 75C364.402 82.2 363.602 89.4 362.002 96.6C360.402 103.8 357.502 111.5 353.302 119.7C349.302 127.7 343.502 136.8 335.902 147L273.502 228H224.602ZM286.702 112.5C293.702 112.5 299.902 111 305.302 108C310.902 104.8 315.302 100.4 318.502 94.8C321.702 89 323.302 82.5 323.302 75.3C323.302 67.7 321.602 61.1 318.202 55.5C315.002 49.9 310.702 45.5 305.302 42.3C299.902 39.1 293.702 37.5 286.702 37.5C279.902 37.5 273.702 39.1 268.102 42.3C262.502 45.5 258.002 49.9 254.602 55.5C251.402 61.1 249.802 67.7 249.802 75.3C249.802 82.5 251.402 89 254.602 94.8C258.002 100.4 262.502 104.8 268.102 108C273.702 111 279.902 112.5 286.702 112.5Z" fill="#26404C"/>
</svg>
