<svg width="125" height="134" viewBox="0 0 125 134" fill="none" xmlns="http://www.w3.org/2000/svg">
<path d="M59.7355 9.34259C59.7355 9.34259 80.4398 -9.40386 107.36 7.72737C134.183 24.8586 125.373 60.0999 109.906 72.5323C103.102 77.9653 93.4595 80.2658 89.6907 84.7199C83.8661 91.6214 85.2855 103.613 82.104 111.787C77.7478 123.094 67.4201 133.617 54.743 133.666C43.0448 133.715 32.1787 126.765 23.4173 119.668C14.6559 112.57 6.53084 103.662 2.46829 93.0408C-1.6432 82.2726 0.314647 69.4487 8.48869 61.0789C17.9353 51.3386 33.9408 52.0727 42.5554 41.2066C47.7926 34.6968 44.8069 22.9986 59.7355 9.34259Z" fill="#FFCAEB"/>
</svg>
