<svg width="23" height="24" viewBox="0 0 23 24" fill="none" xmlns="http://www.w3.org/2000/svg">
<path d="M11.8773 23.7144C13.7921 23.7243 15.6894 23.3504 17.4572 22.6147C19.225 21.8791 20.8275 20.7966 22.17 19.4313V9.71609L11.9379 14.5759H17.0384V16.5188C15.618 17.6842 13.8357 18.3178 11.9984 18.3103C11.1628 18.3451 10.3293 18.2005 9.55425 17.8863C8.77916 17.572 8.08036 17.0954 7.50487 16.4885C6.39057 15.3083 5.78114 13.7397 5.80641 12.1168C5.78693 11.3093 5.93007 10.5062 6.22731 9.75517C6.52456 9.00414 6.96982 8.32057 7.53662 7.74513C8.11741 7.15761 8.81425 6.69757 9.58271 6.39433C10.3512 6.09109 11.1744 5.95131 11.9999 5.9839C13.9584 5.98359 15.8449 6.72196 17.2828 8.05159L20.8961 3.83129C18.4592 1.68134 15.3107 0.512893 12.0612 0.552516C8.86694 0.459746 5.76634 1.63784 3.43964 3.82833C2.31436 4.9018 1.42719 6.19973 0.835649 7.63802C0.244103 9.0763 -0.0386242 10.6228 0.00579132 12.1774C-0.0437204 13.7124 0.224674 15.2411 0.794122 16.6674C1.36357 18.0938 2.22177 19.387 3.31484 20.4659C4.45281 21.5517 5.79676 22.3986 7.26738 22.9565C8.73799 23.5144 10.3055 23.7721 11.8773 23.7144Z" fill="#FF9040"/>
</svg>
