<svg width="88" height="77" viewBox="0 0 88 77" fill="none" xmlns="http://www.w3.org/2000/svg">
<path d="M19.2972 16.2404C18.6811 19.4047 19.3346 22.1225 20.6004 24.5168C16.7986 25.4793 13.0606 26.931 9.702 28.8546C4.53219 31.6603 -0.698127 36.4405 1.37464 42.4427C2.36274 45.432 4.81352 48.0221 7.68355 50.2414C5.79974 52.4318 4.41795 55.0296 4.02786 57.7757C2.975 64.9062 9.08061 70.571 15.5246 73.6665C22.329 76.9451 30.4894 77.7143 37.8929 76.1193C40.3285 75.5797 50.5678 72.7854 46.7337 68.9089C46.1611 68.3896 45.4193 69.155 45.8953 69.6506C49.2017 73.2083 31.8714 75.1166 30.5381 75.0739C24.9856 74.9441 19.435 73.3938 14.8521 70.6599C9.81224 67.7192 5.46421 62.7694 6.95335 56.9774C7.49687 55.1214 8.42669 53.3601 9.81366 51.8056C11.8024 53.1457 13.8429 54.3091 15.7419 55.2483C22.1341 58.5205 29.3974 60.5854 36.7731 60.4992C41.6753 60.3749 51.0555 59.4539 51.4304 53.5781C51.7933 47.0363 42.7774 45.2995 37.5096 44.1974C30.4773 42.7575 22.7549 41.9062 15.8654 44.5745C13.8868 45.3209 11.9979 46.4681 10.2764 47.7511C6.64052 44.9652 2.99956 41.136 5.38205 36.8891C7.73867 32.7306 14.1902 30.1444 18.7527 28.7054C19.9964 28.3472 21.24 27.989 22.5802 27.6546C24.3619 29.7017 26.511 31.5547 28.905 33.2784C35.7973 38.3783 43.6762 42.5834 52.1176 45.2213C57.9063 47.0194 63.9057 45.2696 64.5066 38.9755C65.0885 32.3927 58.1754 28.4244 52.4196 26.1607C43.8695 22.8331 34.1567 22.0621 25.0076 23.6081C23.0088 20.1815 22.5693 16.3795 25.4606 12.1626C31.8436 2.73935 47.7213 3.31667 57.9084 6.00366C69.3253 9.08689 78.6633 15.7337 84.2097 25.4293C85.2445 27.1986 88.2994 25.9584 87.8252 24.0423C83.792 9.88662 68.0909 2.34291 53.1809 0.581987C40.2098 -1.08252 22.0601 1.85635 19.2972 16.2404ZM18.1559 46.6517C23.1824 45.0423 28.7797 45.3726 33.8802 46.3389C36.1535 46.7068 38.3752 47.2514 40.571 47.8845C42.1164 48.2634 46.5596 49.3527 46.9252 50.5791C46.285 52.4114 45.645 54.2437 44.9342 55.9639C44.0321 56.2164 43.0333 56.4452 42.157 56.6092C32.1058 58.4077 21.5652 55.1603 13.4172 49.7526C13.2499 49.6168 12.9861 49.4574 12.7222 49.298C14.392 48.1918 16.2291 47.2213 18.1559 46.6517ZM47.5982 28.4835C51.9639 29.838 61.1453 33.131 60.0753 38.5522C58.662 45.4996 45.9621 38.3128 42.2606 36.458C37.6709 34.1013 31.5944 30.8118 27.6189 26.7112C34.3513 25.9936 41.2301 26.5434 47.5982 28.4835Z" fill="#B988CA"/>
</svg>
