<svg width="63" height="30" viewBox="0 0 63 30" fill="none" xmlns="http://www.w3.org/2000/svg">
<path d="M0.29285 3.36249L16.8956 14.6312C16.9058 14.6382 16.9142 14.6477 16.9199 14.6586C16.9257 14.6696 16.9287 14.6818 16.9287 14.6942C16.9287 14.7066 16.9257 14.7188 16.9199 14.7298C16.9142 14.7408 16.9058 14.7502 16.8956 14.7572L0.331094 26.0867C0.319617 26.0944 0.306256 26.0989 0.292438 26.0996C0.278617 26.1004 0.264857 26.0973 0.25262 26.0909C0.240384 26.0844 0.230128 26.0747 0.222951 26.0629C0.215774 26.0511 0.21194 26.0375 0.21186 26.0237L0.173616 3.42548C0.173697 3.41164 0.17753 3.39808 0.184708 3.38625C0.191885 3.37441 0.202137 3.36475 0.214373 3.35828C0.22661 3.35182 0.240374 3.3488 0.254194 3.34953C0.268013 3.35027 0.281372 3.35475 0.29285 3.36249Z" fill="#26404C"/>
<mask id="path-2-inside-1_282_534" fill="white">
<path d="M26.8787 8.86488L26.8787 0.114698C26.8787 0.093396 26.8846 0.0725202 26.8958 0.0543999C26.907 0.0362796 26.9231 0.0216309 26.9421 0.0121045C26.9612 0.00257808 26.9825 -0.00145003 27.0037 0.000462979C27.025 0.00237599 27.0452 0.0101549 27.0623 0.0229359L46.8731 14.5509C46.8873 14.5616 46.8989 14.5754 46.9068 14.5913C46.9148 14.6073 46.9189 14.6248 46.9189 14.6426C46.9189 14.6604 46.9148 14.678 46.9068 14.6939C46.8989 14.7099 46.8873 14.7237 46.8731 14.7344L27.0623 29.4262C27.045 29.4392 27.0244 29.447 27.0029 29.4488C26.9814 29.4505 26.9598 29.4462 26.9406 29.4363C26.9215 29.4264 26.9055 29.4113 26.8945 29.3926C26.8836 29.374 26.8781 29.3527 26.8787 29.3311L26.8787 20.6694C26.8785 20.6541 26.8752 20.6389 26.869 20.6248C26.8628 20.6107 26.8539 20.5981 26.8427 20.5875L20.9633 14.8458C20.9524 14.8351 20.9438 14.8224 20.9379 14.8083C20.932 14.7943 20.9289 14.7791 20.9289 14.7639C20.9289 14.7486 20.932 14.7335 20.9379 14.7195C20.9438 14.7054 20.9524 14.6926 20.9633 14.6819L26.8427 8.94681C26.8539 8.93626 26.8628 8.92358 26.869 8.9095C26.8752 8.89543 26.8785 8.88025 26.8787 8.86488Z"/>
</mask>
<path d="M26.8787 8.86488L28.8449 8.89176L28.8451 8.87832L28.8451 8.86488L26.8787 8.86488ZM26.8787 0.114698L24.9124 0.114698L26.8787 0.114698ZM27.0623 0.0229359L25.8825 1.596L25.8909 1.60235L25.8994 1.6086L27.0623 0.0229359ZM46.8731 14.5509L48.0529 12.9778L48.0444 12.9715L48.0359 12.9652L46.8731 14.5509ZM46.9189 14.6426L48.8853 14.6426L46.9189 14.6426ZM46.8731 14.7344L48.0444 16.3138L48.0529 16.3075L46.8731 14.7344ZM27.0623 29.4262L25.8909 27.8468L25.8816 27.8537L27.0623 29.4262ZM26.8787 29.3311L28.8442 29.3879L28.8451 29.3595L28.8451 29.3311L26.8787 29.3311ZM26.8787 20.6694L28.8451 20.6694L28.8451 20.656L28.8449 20.6426L26.8787 20.6694ZM26.8427 20.5875L25.4688 21.9943L25.4816 22.0067L25.4945 22.0189L26.8427 20.5875ZM20.9633 14.8458L19.5872 16.2503L19.5895 16.2526L20.9633 14.8458ZM20.9289 14.7639L18.9626 14.7639L20.9289 14.7639ZM20.9633 14.6819L19.5903 13.2744L19.5872 13.2774L20.9633 14.6819ZM26.8427 8.94681L25.4945 7.5154L25.482 7.52721L25.4696 7.53924L26.8427 8.94681ZM28.8451 8.86488L28.8451 0.114698L24.9124 0.114698L24.9124 8.86488L28.8451 8.86488ZM28.8451 0.114698C28.8451 0.458125 28.7495 0.795273 28.5685 1.08816L25.2232 -0.979363C25.0198 -0.650232 24.9124 -0.271333 24.9124 0.114698L28.8451 0.114698ZM28.5685 1.08816C28.3876 1.38087 28.1289 1.61716 27.8215 1.77085L26.0628 -1.74664C25.7173 -1.5739 25.4265 -1.30831 25.2232 -0.979363L28.5685 1.08816ZM27.8215 1.77085C27.5136 1.92481 27.1692 1.9897 26.8271 1.95885L27.1803 -1.95793C26.7958 -1.9926 26.4088 -1.91966 26.0628 -1.74664L27.8215 1.77085ZM26.8271 1.95885C26.4851 1.92801 26.1579 1.80257 25.8825 1.596L28.2421 -1.55013C27.9326 -1.78226 27.5648 -1.92325 27.1803 -1.95793L26.8271 1.95885ZM25.8994 1.6086L45.7102 16.1365L48.0359 12.9652L28.2251 -1.56272L25.8994 1.6086ZM45.6933 16.1239C45.463 15.9512 45.2765 15.7275 45.1481 15.4707L48.6656 13.712C48.5213 13.4234 48.3116 13.1719 48.0529 12.9778L45.6933 16.1239ZM45.1481 15.4707C45.02 15.2146 44.9526 14.9311 44.9526 14.6426L48.8853 14.6426C48.8853 14.3185 48.8096 14 48.6656 13.712L45.1481 15.4707ZM44.9526 14.6426C44.9526 14.3544 45.0198 14.071 45.1481 13.8146L48.6656 15.5733C48.8097 15.285 48.8853 14.9664 48.8853 14.6426L44.9526 14.6426ZM45.1481 13.8146C45.2765 13.5578 45.463 13.334 45.6933 13.1613L48.0529 16.3075C48.3116 16.1134 48.5213 15.8619 48.6656 15.5733L45.1481 13.8146ZM45.7018 13.155L25.891 27.8468L28.2336 31.0056L48.0444 16.3138L45.7018 13.155ZM25.8816 27.8537C26.1615 27.6436 26.4939 27.518 26.8397 27.4892L27.1661 31.4083C27.5549 31.3759 27.9285 31.2347 28.2429 30.9986L25.8816 27.8537ZM26.8397 27.4892C27.1866 27.4603 27.5351 27.5298 27.8449 27.6902L26.0364 31.1824C26.3846 31.3627 26.7762 31.4408 27.1661 31.4083L26.8397 27.4892ZM27.8449 27.6902C28.1533 27.8499 28.4117 28.0938 28.5891 28.3951L25.2 30.3901C25.3993 30.7287 25.6897 31.0028 26.0364 31.1824L27.8449 27.6902ZM28.5891 28.3951C28.7661 28.6958 28.8543 29.04 28.8442 29.3879L24.9132 29.2743C24.9019 29.6654 25.0011 30.0523 25.2 30.3901L28.5891 28.3951ZM28.8451 29.3311L28.8451 20.6694L24.9124 20.6694L24.9124 29.3311L28.8451 29.3311ZM28.8449 20.6426C28.841 20.362 28.7805 20.0868 28.6688 19.8329L25.0692 21.4167C24.9699 21.191 24.916 20.9461 24.9126 20.6963L28.8449 20.6426ZM28.6688 19.8329C28.5571 19.5791 28.3952 19.3485 28.1908 19.1561L25.4945 22.0189C25.3126 21.8476 25.1685 21.6424 25.0692 21.4167L28.6688 19.8329ZM28.2165 19.1807L22.3372 13.439L19.5895 16.2526L25.4688 21.9943L28.2165 19.1807ZM22.3395 13.4413C22.5165 13.6147 22.6558 13.8208 22.7507 14.0466L19.1251 15.5701C19.2318 15.8239 19.3884 16.0555 19.5872 16.2503L22.3395 13.4413ZM22.7507 14.0466C22.846 14.2735 22.8952 14.5173 22.8952 14.7639L18.9626 14.7639C18.9626 15.0409 19.0179 15.315 19.1251 15.5701L22.7507 14.0466ZM22.8952 14.7639C22.8952 15.0108 22.8459 15.2546 22.7507 15.4812L19.1251 13.9577C19.018 14.2124 18.9626 14.4865 18.9626 14.7639L22.8952 14.7639ZM22.7507 15.4812C22.6562 15.706 22.5172 15.9123 22.3395 16.0865L19.5872 13.2774C19.3876 13.4729 19.2314 13.7048 19.1251 13.9577L22.7507 15.4812ZM22.3364 16.0895L28.2157 10.3544L25.4696 7.53924L19.5903 13.2744L22.3364 16.0895ZM28.1908 10.3782C28.3952 10.1858 28.5571 9.95521 28.6688 9.70142L25.0692 8.11758C25.1685 7.89195 25.3126 7.68676 25.4945 7.5154L28.1908 10.3782ZM28.6688 9.70142C28.7805 9.44752 28.841 9.17231 28.8449 8.89176L24.9126 8.83799C24.916 8.5882 24.9699 8.34333 25.0692 8.11758L28.6688 9.70142Z" fill="#FF9040" mask="url(#path-2-inside-1_282_534)"/>
<path d="M51 6.97424L62.3251 14.6609C62.332 14.6657 62.3377 14.6721 62.3417 14.6796C62.3456 14.6871 62.3477 14.6954 62.3477 14.7039C62.3477 14.7123 62.3456 14.7206 62.3417 14.7281C62.3377 14.7356 62.332 14.742 62.3251 14.7468L51.0261 22.4749C51.0182 22.4802 51.0091 22.4832 50.9997 22.4837C50.9903 22.4842 50.9809 22.4822 50.9725 22.4778C50.9642 22.4734 50.9572 22.4668 50.9523 22.4587C50.9474 22.4506 50.9448 22.4414 50.9447 22.4319L50.9186 7.01721C50.9187 7.00777 50.9213 6.99852 50.9262 6.99045C50.9311 6.98238 50.9381 6.97578 50.9464 6.97137C50.9548 6.96696 50.9642 6.9649 50.9736 6.96541C50.983 6.96591 50.9921 6.96896 51 6.97424Z" fill="#26404C"/>
</svg>
