<svg width="75" height="24" viewBox="0 0 75 24" fill="none" xmlns="http://www.w3.org/2000/svg">
<path d="M20.7627 4.98768C21.0648 4.99357 21.3651 4.93831 21.6451 4.82526C21.9252 4.71221 22.1793 4.54373 22.3919 4.33003C22.6046 4.11633 22.7714 3.86187 22.8823 3.58209C22.9931 3.30231 23.0457 3.00303 23.0368 2.70242C23.0409 2.40518 22.9848 2.11016 22.8717 1.83502C22.7585 1.55988 22.5908 1.31028 22.3785 1.10115C22.1662 0.892013 21.9136 0.727652 21.636 0.617898C21.3584 0.508145 21.0613 0.455254 20.7627 0.462391C20.4628 0.454798 20.1645 0.507213 19.8854 0.616524C19.6063 0.725836 19.3521 0.889818 19.1379 1.09874C18.9237 1.30766 18.7539 1.55727 18.6385 1.83275C18.5231 2.10823 18.4644 2.40397 18.4661 2.70242C18.4559 3.00525 18.5084 3.30693 18.6202 3.58875C18.7321 3.87058 18.9009 4.12655 19.1162 4.3408C19.3315 4.55505 19.5887 4.72301 19.8719 4.83429C20.1552 4.94556 20.4583 4.99777 20.7627 4.98768ZM22.7663 6.08563H18.7815V18.4513H22.7663V6.08563ZM31.3443 18.7875C32.2445 18.8242 33.1427 18.6761 33.983 18.3524C34.8232 18.0287 35.5875 17.5363 36.2282 16.906C36.8451 16.3025 37.3312 15.5797 37.6564 14.7821C37.9817 13.9845 38.1394 13.129 38.1196 12.2685C38.1394 11.4079 37.9817 10.5524 37.6564 9.75484C37.3312 8.95723 36.8451 8.2344 36.2282 7.63093C35.5918 6.99283 34.8285 6.49387 33.9873 6.16596C33.1461 5.83805 32.2453 5.68839 31.3426 5.72655C30.4402 5.69049 29.5401 5.84113 28.6991 6.16892C27.8582 6.49671 27.0948 6.99454 26.457 7.63093C25.8476 8.23876 25.368 8.9629 25.0469 9.75984C24.7259 10.5568 24.57 11.4101 24.5887 12.2685C24.57 13.1269 24.7259 13.9801 25.0469 14.7771C25.368 15.574 25.8476 16.2982 26.457 16.906C27.0994 17.535 27.8644 18.0265 28.705 18.3501C29.5455 18.6737 30.4437 18.8226 31.3443 18.7875ZM31.3443 15.091C30.9761 15.099 30.6102 15.0316 30.2694 14.8929C29.9285 14.7541 29.62 14.5471 29.3631 14.2845C29.0983 14.0157 28.8901 13.6969 28.7509 13.3468C28.6118 12.9967 28.5443 12.6225 28.5527 12.2461C28.5446 11.8798 28.6123 11.5157 28.7518 11.1765C28.8912 10.8374 29.0993 10.5304 29.3631 10.2747C29.6157 10.005 29.9228 9.79173 30.2644 9.64886C30.6059 9.506 30.9739 9.43684 31.3443 9.44594C31.7125 9.43789 32.0783 9.50532 32.4192 9.64406C32.76 9.7828 33.0685 9.98987 33.3255 10.2524C33.5969 10.5081 33.8113 10.8177 33.9548 11.1612C34.0982 11.5047 34.1676 11.8743 34.1583 12.2461C34.1667 12.6225 34.0993 12.9967 33.9601 13.3468C33.8209 13.6969 33.6128 14.0157 33.3479 14.2845C33.0867 14.5477 32.7743 14.7551 32.4298 14.8941C32.0853 15.033 31.7159 15.1006 31.3443 15.0926V15.091ZM47.5529 5.77341C46.1347 5.77341 44.9415 6.2638 40.0559 6.08726V23.5384H44.0407V17.4209C44.9982 18.3104 46.2669 18.7928 47.5765 18.7651C48.3912 18.7833 49.2001 18.6243 49.9467 18.2992C50.6933 17.9742 51.3596 17.4909 51.8991 16.8831C53.0488 15.613 53.6688 13.9546 53.6328 12.2456C53.6845 10.5516 53.0707 8.90422 51.9216 7.65327C51.3759 7.04122 50.7021 6.55559 49.9475 6.23053C49.1929 5.90547 48.376 5.74888 47.554 5.77177L47.5529 5.77341ZM49.579 12.2924C49.5892 13.0408 49.3067 13.7637 48.791 14.3085C48.5367 14.582 48.226 14.7977 47.8802 14.9407C47.5344 15.0838 47.1616 15.1508 46.7874 15.1373C46.4101 15.1487 46.0346 15.0808 45.6855 14.938C45.3364 14.7952 45.0214 14.5807 44.7613 14.3085C44.2457 13.7637 43.9631 13.0408 43.9733 12.2924C43.9613 11.9194 44.0255 11.5478 44.1621 11.2001C44.2986 10.8525 44.5047 10.5361 44.7678 10.2701C45.031 10.0041 45.3457 9.79401 45.6928 9.65263C46.04 9.51124 46.4123 9.44148 46.7874 9.44758C47.1613 9.44175 47.5324 9.5118 47.8781 9.65345C48.2239 9.79511 48.537 10.0054 48.7983 10.2715C49.0597 10.5375 49.2638 10.8538 49.3982 11.201C49.5326 11.5482 49.5945 11.919 49.5801 12.2908L49.579 12.2924ZM57.639 4.98768C57.9412 4.99357 58.2414 4.93831 58.5215 4.82526C58.8015 4.71221 59.0556 4.54373 59.2682 4.33003C59.4809 4.11633 59.6477 3.86187 59.7586 3.58209C59.8694 3.30231 59.922 3.00303 59.9131 2.70242C59.9173 2.40518 59.8611 2.11016 59.748 1.83502C59.6349 1.55988 59.4671 1.31028 59.2548 1.10115C59.0425 0.892013 58.79 0.727652 58.5123 0.617898C58.2347 0.508145 57.9376 0.455254 57.639 0.462391C57.3391 0.454798 57.0408 0.507213 56.7617 0.616524C56.4826 0.725836 56.2284 0.889818 56.0142 1.09874C55.8 1.30766 55.6302 1.55727 55.5148 1.83275C55.3994 2.10823 55.3408 2.40397 55.3424 2.70242C55.3322 3.00525 55.3847 3.30693 55.4965 3.58875C55.6084 3.87058 55.7772 4.12655 55.9925 4.3408C56.2078 4.55505 56.465 4.72301 56.7483 4.83429C57.0315 4.94556 57.3346 4.99777 57.639 4.98768ZM59.6426 6.08563H55.6578V18.4513H59.6426V6.08563ZM68.2211 18.7875C69.1217 18.8243 70.0203 18.6763 70.8608 18.3525C71.7013 18.0287 72.4659 17.5361 73.1067 16.9054C73.7236 16.302 74.2097 15.5791 74.5349 14.7815C74.8602 13.9839 75.0179 13.1285 74.9981 12.2679C75.0179 11.4074 74.8602 10.5519 74.5349 9.75429C74.2097 8.95669 73.7236 8.23386 73.1067 7.63038C72.4703 6.99228 71.7071 6.49333 70.8658 6.16541C70.0246 5.8375 69.1238 5.68784 68.2211 5.726C67.3187 5.68995 66.4186 5.84058 65.5776 6.16837C64.7367 6.49617 63.9733 6.99399 63.3355 7.63038C62.7261 8.2382 62.2465 8.96233 61.9254 9.75927C61.6043 10.5562 61.4484 11.4095 61.4672 12.2679C61.4482 13.1263 61.6037 13.9796 61.9245 14.7767C62.2453 15.5737 62.7247 16.298 63.3339 16.906C63.9763 17.535 64.7413 18.0265 65.5818 18.3501C66.4223 18.6737 67.3206 18.8226 68.2211 18.7875ZM68.2211 15.091C67.853 15.099 67.4871 15.0316 67.1462 14.8929C66.8054 14.7541 66.4969 14.5471 66.24 14.2845C65.9751 14.0157 65.767 13.6969 65.6278 13.3468C65.4886 12.9967 65.4212 12.6225 65.4295 12.2461C65.4214 11.8798 65.4892 11.5157 65.6286 11.1765C65.7681 10.8374 65.9762 10.5304 66.24 10.2747C66.4925 10.005 66.7997 9.79173 67.1412 9.64886C67.4827 9.506 67.8508 9.43684 68.2211 9.44594C68.5893 9.43789 68.9552 9.50532 69.296 9.64406C69.6369 9.7828 69.9454 9.98987 70.2023 10.2524C70.4737 10.5081 70.6881 10.8177 70.8316 11.1612C70.9751 11.5047 71.0445 11.8743 71.0352 12.2461C71.0435 12.6225 70.9761 12.9967 70.8369 13.3468C70.6978 13.6969 70.4896 14.0157 70.2248 14.2845C69.9636 14.5477 69.6512 14.7551 69.3067 14.8941C68.9621 15.033 68.5928 15.1006 68.2211 15.0926V15.091Z" fill="#26404C"/>
<path d="M8.80734 18.6976C10.2272 18.7049 11.6341 18.429 12.945 17.8862C14.2559 17.3434 15.4442 16.5447 16.4396 15.5373V8.36872L8.85225 11.9546H12.6344V13.3882C11.5812 14.2481 10.2595 14.7156 8.89715 14.7101C8.27749 14.7358 7.65949 14.6291 7.08474 14.3972C6.50999 14.1654 5.99181 13.8137 5.56506 13.3659C4.73879 12.4951 4.28688 11.3376 4.30561 10.1401C4.29117 9.54433 4.39731 8.95172 4.61772 8.39756C4.83814 7.8434 5.16831 7.33901 5.58861 6.91441C6.01928 6.4809 6.53601 6.14145 7.10584 5.9177C7.67568 5.69395 8.28612 5.59081 8.89824 5.61486C10.3505 5.61463 11.7494 6.15945 12.8157 7.14054L15.4951 4.02651C13.688 2.44013 11.3533 1.57798 8.94369 1.60721C6.57508 1.53876 4.2759 2.40804 2.55059 4.02433C1.71616 4.81641 1.0583 5.77411 0.619657 6.83538C0.181009 7.89664 -0.0286409 9.03778 0.00429443 10.1848C-0.0324199 11.3175 0.166602 12.4454 0.588863 13.4979C1.01112 14.5504 1.6475 15.5046 2.45804 16.3006C3.30188 17.1018 4.29846 17.7267 5.38896 18.1384C6.47946 18.5501 7.64179 18.7402 8.80734 18.6976Z" fill="#FF9040"/>
</svg>
