<svg width="86" height="87" viewBox="0 0 86 87" fill="none" xmlns="http://www.w3.org/2000/svg">
<g opacity="0.3">
<path d="M8.70028 72.5884C8.14127 72.2925 7.68092 68.2479 7.54939 67.656C6.69444 63.9403 5.90526 60.2246 4.91879 56.5417C3.43907 51.0832 2.15665 45.559 1.10441 40.0018C0.216579 35.3654 -0.638374 31.3866 0.676928 26.8159C1.33458 24.5141 2.61701 20.9957 5.24761 20.2394C8.70028 19.2529 11.2651 23.8236 12.5804 26.2569C12.5804 26.2569 14.4218 40.3635 15.9344 41.7117C17.447 43.0599 20.1434 43.8491 21.8204 36.1545C23.4645 28.5916 23.0699 20.6011 25.865 13.3012C27.2789 9.65121 29.6793 6.23142 33.132 4.25847C41.5499 -0.575267 39.6428 17.7074 38.0644 21.0943C36.6504 24.1195 34.6117 27.9668 35.2694 31.4523C35.6311 33.2938 36.9793 35.0037 38.8536 35.464C44.7396 36.8451 48.2251 28.197 50.2638 24.2182C55.6894 13.5642 64.1731 3.73235 76.2081 0.50986C80.1869 -0.542382 84.8563 -0.377973 83.7711 5.04765C83.6396 5.77106 83.4094 6.49448 83.1464 7.18501C80.5486 14.3534 75.5176 20.5024 70.092 25.7308C64.9623 30.696 57.1363 34.6091 55.4593 42.1721C55.262 43.0928 55.1633 44.0464 55.525 44.9013C56.6101 47.4661 60.2601 46.7756 62.3975 46.4468C66.2118 45.8549 70.0591 45.2301 73.9392 45.0986C78.0496 44.9342 85.8098 45.1315 86.0071 50.7544C86.336 59.5012 61.4768 63.0196 56.9719 63.5128C52.4341 64.0061 44.3778 63.5128 47.0742 67.7218C49.7706 71.9308 61.8385 73.3447 56.9719 83.7027C52.0066 94.0607 8.70028 72.5884 8.70028 72.5884Z" fill="#B988CA"/>
<path d="M6.46433 22.7713C5.87244 22.4425 5.14902 22.3767 4.49137 22.574C4.35984 22.574 4.22832 22.6069 4.09679 22.6398C3.01166 22.9028 2.25536 23.8564 2.18959 24.9415C2.18959 25.0731 2.18959 25.2046 2.18959 25.3361C2.05806 25.9938 2.12383 26.6185 2.41978 27.1447C3.47202 28.9861 6.29991 28.2298 7.08909 26.5528C7.12197 26.5199 7.12198 26.4541 7.15486 26.4212C7.38504 26.0924 7.51657 25.7636 7.58233 25.369C7.81251 24.3497 7.41792 23.2645 6.46433 22.7713Z" fill="#ECA127"/>
<path d="M8.89917 35.9573C7.58387 35.5298 6.13705 36.1217 5.57804 37.437C4.98616 38.818 5.67669 40.4293 7.05776 40.9554C7.28794 41.0869 7.58388 41.1856 7.87982 41.2185C9.19512 41.3829 10.4118 40.3635 10.6748 39.0811C10.9379 37.7 10.2145 36.3847 8.89917 35.9573Z" fill="#ECA127"/>
<path d="M9.32706 51.1162C8.66941 50.9518 7.97887 51.0504 7.41987 51.3792C7.09104 51.5108 6.7951 51.7081 6.49916 52.0369C6.26898 52.3 6.07168 52.6288 5.94015 52.9576C5.84151 53.1878 5.74286 53.418 5.70998 53.681C5.64422 54.0098 5.61133 54.3058 5.61133 54.6346C5.61133 55.6211 5.90728 56.6076 6.53205 57.2652C8.01176 58.8436 10.6095 58.1859 11.4644 56.3116C12.2865 54.4702 11.3987 51.6752 9.32706 51.1162Z" fill="#ECA127"/>
<path d="M18.6307 63.2827C18.5321 61.5728 16.9208 60.2575 15.2109 60.6521C14.7506 60.7508 14.3231 61.0138 13.9614 61.3427C13.5668 61.4742 13.2051 61.7373 12.8763 62.099C11.9556 63.1512 12.12 64.7625 13.1393 65.716C13.8628 66.4066 14.8492 66.571 15.7371 66.3408C16.033 66.3408 16.2961 66.3408 16.592 66.2422C17.8744 65.8805 18.6965 64.598 18.6307 63.2827Z" fill="#ECA127"/>
<path d="M23.9571 47.9595C22.9049 47.4005 21.754 47.6635 20.8333 48.2883C20.5045 48.3212 20.1756 48.4198 19.8468 48.65C19.2878 49.0117 18.959 49.5707 18.7946 50.2284C17.6765 51.3135 18.0054 53.4509 19.5837 54.0756C20.0112 54.4373 20.5702 54.6346 21.195 54.6017C21.6882 54.5689 22.1815 54.4045 22.6089 54.1414C24.9436 53.0892 26.5877 49.3077 23.9571 47.9595Z" fill="#ECA127"/>
<path d="M31.2235 35.2339C30.7631 33.6556 28.9546 32.965 27.5406 33.6885C26.3568 34.3132 25.8307 35.6285 25.9294 36.9109C25.9294 37.0096 25.8965 37.1411 25.8965 37.2398C25.8965 38.2262 26.3897 38.851 27.0474 39.1799C27.6064 39.6073 28.3627 39.8375 29.1519 39.7717C30.7302 39.6402 31.9469 38.5551 31.914 36.9109C31.914 36.2862 31.6181 35.6943 31.2235 35.2339Z" fill="#ECA127"/>
<path d="M37.0772 19.9434C36.8142 18.7925 35.8277 18.2664 34.8083 18.2664C31.7831 16.8524 29.7773 21.5218 31.7174 23.5605C32.7039 24.6127 34.1178 24.4154 35.2358 23.6591C35.2687 23.6262 35.3345 23.5934 35.3673 23.5605C36.5511 22.7055 37.3732 21.2258 37.0772 19.9434Z" fill="#ECA127"/>
<path d="M38.7227 43.6188C37.5718 42.5337 35.829 42.7968 34.8426 43.8819C34.5137 44.145 34.2507 44.4738 34.0534 44.8684C34.0205 44.9013 34.0205 44.9341 33.9876 44.9999C33.9547 45.0328 33.9547 45.0328 33.9219 45.0657C32.771 46.2823 33.2971 48.2553 34.711 48.9787C35.4016 49.3404 36.125 49.4062 36.8155 49.2417C37.6376 49.1431 38.4596 48.7156 38.9529 48.0251C39.3146 47.5319 39.5119 46.9729 39.5448 46.4139C39.7749 45.4603 39.5777 44.4409 38.7227 43.6188Z" fill="#ECA127"/>
<path d="M61.5439 28.4931C60.6232 27.0133 58.6502 27.0791 57.4993 28.1971C57.2363 28.4602 57.0061 28.7232 56.8088 29.0521C55.6579 30.1043 54.7043 31.6169 56.0525 32.9651C56.0525 32.9651 56.0854 32.998 56.1183 32.998C56.7102 34.1489 58.3214 34.2475 59.4723 33.5241C59.9984 33.2939 60.5245 32.8993 60.8863 32.4718C61.8727 31.3538 62.4317 29.8741 61.5439 28.4931Z" fill="#ECA127"/>
<path d="M72.7558 10.9336C72.2297 9.9142 71.0459 9.32232 69.7964 9.61826C69.2045 9.74979 68.6455 10.1115 68.1523 10.6047C67.0342 11.3282 66.3766 13.2682 66.7383 14.5178C66.9356 15.1754 67.396 15.6358 67.9221 15.8659C68.2509 16.0632 68.6455 16.1948 69.1059 16.1948C70.3225 16.1948 71.7365 15.2741 72.5585 14.3862C73.545 13.3998 73.5779 11.92 72.7558 10.9336Z" fill="#ECA127"/>
<path d="M51.2827 50.8201C50.9868 49.8008 50.2305 48.9458 49.244 48.5841C49.1782 48.5183 49.1125 48.4855 49.0138 48.4526C47.6656 47.6305 45.8242 47.9265 45.1008 49.4391C45.035 49.5706 44.9693 49.735 44.9035 49.8994C44.7062 50.0967 44.5747 50.3269 44.476 50.59C43.9499 52.0697 44.7391 53.944 46.1859 54.6016C46.8436 54.8975 47.5341 54.8647 48.1589 54.6345C50.0332 54.5687 51.8746 53.0232 51.2827 50.8201Z" fill="#ECA127"/>
<path d="M34.1848 59.5999C32.7709 59.8629 30.3704 60.6192 29.5813 61.9345C29.0223 62.8881 29.3182 64.1706 30.1074 64.9269C31.4884 66.1764 33.56 66.6696 35.2042 65.6831C37.21 64.4665 38.7226 61.0796 35.9605 59.8301C35.3357 59.5012 34.7438 59.4683 34.1848 59.5999Z" fill="#ECA127"/>
<path d="M26.7197 70.78C26.3251 69.1358 24.0562 68.2151 22.5107 68.5768C21.59 68.7741 20.9981 69.3989 20.6036 70.1881C20.209 70.78 20.0446 71.5034 20.1432 72.1939C20.1432 73.7394 21.1297 75.1533 22.8724 75.0547C23.7274 75.0218 24.6481 74.5286 25.3386 73.8709C26.3251 73.1146 27.0157 71.9966 26.7197 70.78Z" fill="#ECA127"/>
<path d="M38.1633 72.2595C37.5057 71.0099 35.9602 70.5496 34.6449 70.9442C34.3161 71.0428 33.9872 71.2072 33.6584 71.3716C31.9156 71.5689 30.6004 73.6405 31.4553 75.6135C31.9814 76.8302 33.231 77.5536 34.5463 77.6193C35.8616 77.6851 37.1111 76.9288 37.8345 75.8437C38.525 74.8243 38.7552 73.3775 38.1633 72.2595Z" fill="#ECA127"/>
<path d="M47.8621 80.1513C47.1058 77.3563 42.9297 76.6329 41.45 79.1977C40.9568 80.0527 40.891 81.1378 41.2856 82.0256C41.3185 82.486 41.5487 82.9792 41.9433 83.4067C44.1135 85.6098 48.6842 83.1765 47.8621 80.1513Z" fill="#ECA127"/>
<path d="M57.0389 76.9289C56.6772 75.778 55.9866 74.923 54.9015 75.1203C53.6191 75.3505 52.8299 77.3563 52.6984 78.4743C52.534 79.8883 52.9286 82.223 54.5727 82.6504C55.3619 82.8477 56.2168 82.4531 56.7429 81.8284C57.3677 80.9405 57.5321 78.6059 57.0389 76.9289Z" fill="#ECA127"/>
<path d="M47.9312 68.8399H47.8983C47.8326 68.7412 47.7668 68.6755 47.701 68.6097C47.2736 68.248 46.879 67.8863 46.4515 67.5575C46.2871 67.2615 46.024 66.9985 45.6952 66.8669C44.9389 66.571 44.1826 66.8669 43.7222 67.5246C43.6565 67.6232 43.5907 67.7548 43.5249 67.8534C42.8673 68.9385 43.1632 70.4511 44.0839 71.339C45.2348 72.4241 46.9447 72.457 48.2929 71.7336C49.5096 71.0759 49.2136 69.1687 47.9312 68.8399Z" fill="#ECA127"/>
<path d="M62.7925 57.4295C62.924 56.8047 62.6281 56.1471 61.8389 55.884C61.806 55.884 61.7731 55.8511 61.7402 55.8511C60.1619 54.7002 57.4326 55.062 56.4462 56.8376C55.2295 59.0736 57.5642 60.9808 59.6686 60.8164C60.3592 60.9479 61.0826 60.8164 61.7074 60.3889C62.661 59.7642 63.0884 58.5475 62.7925 57.4295Z" fill="#ECA127"/>
<path d="M72.8848 49.735C71.9312 48.7814 70.32 48.5841 69.1362 49.3076C67.8538 50.0967 66.9989 51.6751 67.788 53.1219C68.1169 53.7467 68.643 54.1413 69.2349 54.3715C69.3993 54.4701 69.5637 54.5688 69.7281 54.6345C71.0763 55.1607 72.6218 54.6345 73.3123 53.385C74.0357 52.1355 73.8713 50.6886 72.8848 49.735Z" fill="#ECA127"/>
<path d="M62.6931 16.6882C62.0355 15.899 60.8517 15.7675 59.9967 16.2278C59.076 16.721 58.5828 17.8062 58.8459 18.7927C59.1418 19.8449 60.2269 20.5683 61.312 20.4368C61.871 20.371 62.3314 20.1079 62.6602 19.7134C62.7917 19.6147 62.8904 19.4832 62.989 19.3188C63.5152 18.4638 63.3179 17.4116 62.6931 16.6882Z" fill="#ECA127"/>
<path d="M49.5385 36.1874C48.5521 35.6284 47.3354 35.8257 46.5791 36.6806C46.4805 36.8121 46.3818 36.9437 46.2832 37.0752C45.8557 37.7 45.6913 38.522 45.8557 39.2126C46.1188 40.2977 47.2696 40.9553 48.3219 40.8567C49.4399 40.758 50.3606 40.0675 50.6565 38.9824C50.9196 37.963 50.4593 36.7135 49.5385 36.1874Z" fill="#ECA127"/>
<path d="M34.2157 10.0788C33.0977 9.02651 31.2891 9.35534 30.5986 10.7035C29.8423 12.1832 30.763 14.0575 32.5058 14.0575C32.8346 14.0575 33.1634 13.9589 33.4594 13.8274C33.5909 13.7945 33.7553 13.7287 33.8869 13.6301C35.1035 12.8409 35.2679 11.0981 34.2157 10.0788Z" fill="#ECA127"/>
<path d="M28.595 26.6844C28.5621 25.8952 27.9373 25.1389 27.1152 25.2047C26.7864 25.2047 26.4905 25.3033 26.2274 25.4677C26.1945 25.4677 26.1945 25.4677 26.1616 25.4677C25.5698 25.6322 25.0436 26.1254 24.9121 26.7502C24.7148 27.5065 25.1094 28.3285 25.7999 28.6573C25.8328 28.6902 25.8657 28.6902 25.8986 28.7231C26.4247 29.0191 27.1152 29.019 27.6085 28.6902C27.9702 28.46 28.2661 28.0655 28.3977 27.638C28.5292 27.342 28.595 27.0132 28.595 26.6844Z" fill="#ECA127"/>
<path d="M10.3782 29.9726C10.0165 29.5122 9.4575 29.3478 8.8985 29.4465C8.60256 29.4794 8.37238 29.5451 8.10932 29.7095C7.94491 29.8082 7.74761 29.9726 7.61608 30.1041C7.51743 30.2357 7.3859 30.3672 7.32014 30.5316C7.25437 30.696 7.15572 30.8604 7.12284 31.0248C7.05708 31.2221 7.05708 31.4194 7.08996 31.6167C7.08996 31.814 7.15572 31.9784 7.25437 32.1757C7.41878 32.4717 7.7805 32.7676 8.1422 32.8334C8.37238 32.8991 8.63545 32.8991 8.86562 32.8334C8.89851 32.8334 8.93138 32.8334 8.96427 32.8334C9.58904 32.8005 10.1809 32.5046 10.4769 31.9456C10.8386 31.2879 10.8057 30.5316 10.3782 29.9726Z" fill="#ECA127"/>
<path d="M15.2766 47.7292C15.2437 47.3674 15.1122 47.0386 14.8162 46.7755C14.586 46.5454 14.3559 46.4139 14.0599 46.3152C13.6324 46.1837 13.1721 46.2494 12.8104 46.4796C12.4816 46.644 12.2843 46.94 12.1199 47.2688C12.0212 47.4003 11.9226 47.5647 11.8897 47.7292C11.8239 47.9593 11.8239 48.1895 11.8239 48.4197C11.791 48.7485 11.9883 49.176 12.2185 49.4062C12.4816 49.6692 12.8104 49.8007 13.205 49.8007C13.5996 49.8007 14.0928 49.7021 14.4216 49.4719C14.6847 49.3075 14.9149 49.0773 15.0464 48.8143C15.2437 48.4526 15.3095 48.1237 15.2766 47.7292Z" fill="#ECA127"/>
<path d="M32.8364 53.1547C32.7378 52.7601 32.5076 52.4641 32.1459 52.234C32.0144 52.1682 31.8828 52.1024 31.7513 52.0696C31.6198 52.0367 31.4554 52.0038 31.3238 52.0038C31.1923 52.0038 30.995 52.0367 30.8964 52.0696C30.7648 52.1024 30.6004 52.1682 30.5018 52.234C30.3045 52.3326 30.0743 52.5628 29.9428 52.793L29.9099 52.8258C29.6468 53.1218 29.4824 53.4506 29.4824 53.8452C29.4824 53.9767 29.4824 54.1411 29.5482 54.2727C29.6139 54.5028 29.7455 54.733 29.9099 54.8974C30.0743 55.0619 30.2387 55.1605 30.436 55.2263C30.6662 55.3249 30.8306 55.3578 31.0937 55.3578C31.2252 55.3578 31.3567 55.3249 31.4882 55.292C31.5211 55.292 31.5211 55.292 31.554 55.292C31.85 55.1934 32.1459 55.029 32.3761 54.7988C32.4747 54.7002 32.6062 54.5686 32.672 54.4042C32.8035 54.1411 32.8364 54.0425 32.8693 53.7794C32.9022 53.5493 32.9022 53.3849 32.8364 53.1547Z" fill="#ECA127"/>
<path d="M70.1583 20.4695C70.1583 20.1735 70.0926 19.9434 69.961 19.7132C69.8624 19.5488 69.7637 19.4172 69.5993 19.3186C69.4678 19.1871 69.3034 19.1213 69.139 19.0884C68.9417 19.0227 68.7773 19.0227 68.58 19.0555C68.4813 19.0555 68.3827 19.0884 68.2511 19.1213C68.2183 19.1213 68.2182 19.1213 68.1854 19.1213C68.021 19.1542 67.8566 19.2528 67.725 19.3515C67.6593 19.3844 67.6264 19.4172 67.5606 19.483C67.5277 19.5159 67.4948 19.5817 67.462 19.6145C67.4291 19.6474 67.3962 19.7132 67.3633 19.7461C67.3633 19.7461 67.3633 19.7461 67.3633 19.779C67.3304 19.8776 67.2647 20.0091 67.2318 20.1078C67.2318 20.1078 67.2318 20.1078 67.2318 20.1407C67.1989 20.2722 67.166 20.4037 67.166 20.5352C67.166 20.5681 67.1989 20.8641 67.2318 20.897C67.2318 20.9627 67.2976 21.0285 67.2976 21.0614C67.3633 21.2587 67.3962 21.3573 67.5935 21.4888C67.6921 21.5546 67.7908 21.6204 67.8565 21.6861C67.9552 21.7519 68.0867 21.8177 68.2183 21.8506C68.284 21.8834 68.3498 21.8834 68.4155 21.8834C68.4484 21.8834 68.5471 21.9163 68.6129 21.9163C68.7444 21.9163 68.843 21.8834 68.9746 21.8834H69.0074C69.1061 21.8506 69.2376 21.7848 69.3363 21.7519C69.3363 21.7519 69.3363 21.7519 69.3692 21.7519C69.4349 21.719 69.5007 21.6533 69.5336 21.6204C69.5993 21.5875 69.6651 21.5546 69.698 21.4888C69.7309 21.456 69.7637 21.3902 69.7966 21.3573C69.8624 21.2915 69.8953 21.2258 69.9282 21.16C70.0926 20.9627 70.1583 20.7325 70.1583 20.4695Z" fill="#ECA127"/>
<path d="M79.5929 5.08043C79.4285 4.52142 79.0011 4.09395 78.4749 3.92954C78.3105 3.89666 78.1132 3.86377 77.9488 3.86377C77.6529 3.89665 77.3898 3.92954 77.1268 4.09395C76.8966 4.22548 76.6664 4.42277 76.5349 4.68583C76.3705 4.94889 76.3376 5.21195 76.3047 5.5079C76.3047 5.60654 76.3047 5.7052 76.3376 5.80385C76.3376 5.86961 76.3705 5.93537 76.3705 6.00113C76.5349 6.56014 76.9623 6.98762 77.5213 7.11915C78.0803 7.28356 78.7051 7.08626 79.1326 6.65879C79.5601 6.29708 79.7574 5.67231 79.5929 5.08043Z" fill="#ECA127"/>
<path d="M44.1805 59.5669C44.1805 59.4682 44.1476 59.3367 44.1476 59.2381C44.1147 59.0737 44.0161 58.9092 43.9174 58.8106C43.8517 58.7119 43.7859 58.6462 43.6872 58.5804C43.6544 58.5475 43.5886 58.5147 43.5228 58.4818C43.4242 58.416 43.3584 58.3831 43.2269 58.3502C43.2269 58.3502 43.2269 58.3502 43.194 58.3502C43.2269 58.3502 43.2598 58.3831 43.2927 58.3831C43.2269 58.3502 43.1283 58.3174 43.0625 58.3174C42.931 58.2845 42.7994 58.2516 42.6679 58.2516C42.5364 58.2516 42.372 58.2845 42.2404 58.3174C42.1418 58.3502 41.9774 58.416 41.8787 58.4489C41.6814 58.5475 41.5499 58.679 41.4184 58.8763C41.2868 59.0736 41.1882 59.1723 41.1224 59.4354V59.4682C41.0895 59.5998 41.0895 59.6984 41.0566 59.8299C41.0895 59.9615 41.0895 60.0601 41.1224 60.1916C41.1553 60.3232 41.2211 60.4218 41.2868 60.5534C41.3526 60.6849 41.4512 60.7835 41.5499 60.8822C41.5828 60.9151 41.6157 60.9808 41.6485 61.0137C41.7472 61.0795 41.8458 61.1453 41.9116 61.211C42.076 61.3097 42.2404 61.3754 42.4048 61.3754C42.5364 61.4083 42.635 61.4083 42.7665 61.3754C42.8981 61.3754 42.9967 61.3426 43.0954 61.2768C43.194 61.2439 43.2927 61.1781 43.3913 61.1124C43.5228 61.0137 43.6544 60.8822 43.753 60.7178C43.7859 60.6849 43.8188 60.6191 43.8188 60.5862C43.9503 60.4218 44.049 60.2574 44.1147 60.0601C44.1476 59.8957 44.1476 59.7313 44.1805 59.5669Z" fill="#ECA127"/>
<path d="M45.7262 43.2244C45.6933 43.06 45.5946 42.8956 45.4631 42.7641C45.3973 42.6325 45.2987 42.5668 45.1672 42.4681C45.1014 42.4024 45.0685 42.3695 45.0027 42.3366C44.7726 42.1722 44.4766 42.0406 44.2136 42.0406C43.8519 42.0406 43.523 42.1722 43.26 42.4352C42.7667 42.9285 42.6023 43.619 42.7667 44.2767L42.8983 44.6055C42.9969 44.7699 43.0956 44.9014 43.26 45.0001C43.3586 45.0987 43.4573 45.1316 43.5559 45.1645C43.7203 45.2631 43.8847 45.296 44.082 45.296C44.1149 45.296 44.1149 45.296 44.1478 45.296C44.2793 45.296 44.378 45.2631 44.5095 45.2631C44.641 45.2303 44.7397 45.1974 44.9041 45.0987C45.0356 45.033 45.1672 44.9343 45.2987 44.8028C45.496 44.6055 45.6275 44.3753 45.6933 44.0794C45.8248 43.7505 45.7919 43.5204 45.7262 43.2244Z" fill="#ECA127"/>
<path d="M64.4032 50.9518C64.2717 50.4585 63.8771 50.0311 63.351 49.9324C62.8249 49.8338 62.2987 49.9324 61.9041 50.327C61.7069 50.5243 61.5753 50.7216 61.5096 50.9847C61.4438 51.2148 61.4438 51.445 61.4767 51.7081C61.4767 52.1684 61.7069 52.6617 62.1343 52.8919C62.4632 53.0563 62.8249 53.122 63.1866 53.0234C63.3181 52.9905 63.4825 52.9247 63.5812 52.859C63.7127 52.7932 63.8442 52.6946 63.91 52.563C64.1073 52.3329 64.173 52.2013 64.3046 51.9054C64.469 51.5766 64.469 51.2148 64.4032 50.9518Z" fill="#ECA127"/>
<path d="M81.8954 50.9845C81.5995 50.4584 81.0076 50.1625 80.4157 50.1625C80.1198 50.1625 79.791 50.2282 79.5608 50.3927C79.4293 50.4584 79.3306 50.5571 79.1991 50.6557C79.0018 50.853 78.9031 51.0832 78.8045 51.3134C78.7387 51.4778 78.7387 51.6751 78.7716 51.8395C78.7716 52.0368 78.8374 52.2012 78.936 52.3327C78.9689 52.3656 78.9689 52.3985 79.0018 52.4314C79.0347 52.5958 79.1333 52.7931 79.232 52.9246C79.4293 53.1548 79.6265 53.2863 79.9225 53.4179C79.9882 53.4507 80.0869 53.4507 80.1527 53.4507C80.2184 53.4507 80.3171 53.4836 80.3828 53.4836C80.5473 53.4836 80.7117 53.4507 80.8432 53.4179C81.1391 53.3521 81.4022 53.1548 81.5995 52.9575C82.1256 52.4643 82.2571 51.6422 81.8954 50.9845Z" fill="#ECA127"/>
<path d="M25.3707 60.6849C25.3049 60.4218 25.2392 60.3561 25.1076 60.1917C24.9761 60.0272 24.8446 59.8628 24.6473 59.7642C24.3842 59.6327 24.1869 59.5669 23.8581 59.5669C23.332 59.5669 22.773 59.83 22.5099 60.3232C22.3455 60.6191 22.2797 60.9808 22.3784 61.3097C22.3784 61.4412 22.4113 61.5727 22.4441 61.7043C22.477 61.8687 22.5757 62.0331 22.6743 62.1646C22.773 62.2961 22.9045 62.4277 23.036 62.5263C23.1347 62.5592 23.2662 62.625 23.3649 62.6578C23.595 62.7236 23.8252 62.7236 24.0883 62.6578C24.2527 62.625 24.4171 62.5592 24.5815 62.4606C24.8117 62.2961 25.009 62.1317 25.1405 61.9015C25.2392 61.77 25.3049 61.6056 25.3378 61.4412C25.4365 61.1781 25.4365 60.9479 25.3707 60.6849Z" fill="#ECA127"/>
</g>
</svg>
