<svg width="83" height="21" viewBox="0 0 83 21" fill="none" xmlns="http://www.w3.org/2000/svg">
<path opacity="0.4" d="M4.09765 12.5147C4.09765 12.5147 3.39857 12.2752 2.02926 13.1193C0.619164 15.4069 1.51845 18.483 7.2759 18.8353C13.0334 19.1877 19.8499 15.3882 17.9499 10.5005C16.0498 5.6129 12.7152 6.81646 12.7152 6.81646C12.7152 6.81646 8.09941 8.18871 10.3235 13.1417C12.522 18.1022 20.3487 17.758 23.73 16.9983C27.0856 16.246 34.6515 12.6391 33.3907 7.47311C32.0939 2.08896 21.9796 2.66728 24.2807 10.1592C26.5562 17.6586 35.2233 15.3536 38.0807 14.1294C40.9381 12.9053 45.5316 8.61223 43.8903 3.94625C42.2491 -0.719726 35.0325 -0.279548 37.1356 6.62991C37.7216 8.53976 38.9637 10.4179 41.2881 10.9734C46.1781 12.1511 48.6101 6.9118 52.3393 5.06689C56.478 3.01079 60.4689 5.00016 62.1192 8.08544C63.6446 10.9328 64.7608 16.5527 60.0578 18.385C58.6392 18.9369 56.9276 18.8656 55.7954 18.1216C52.3795 15.9184 55.8975 8.9895 60.3537 8.96751C63.2883 8.95578 65.505 11.4181 66.4652 13.4701C66.4775 13.5123 66.5215 13.568 66.5338 13.6102C68.9823 19.0464 75.7775 21.3366 82.1464 19.7035" stroke="url(#paint0_linear_144_1117)" stroke-width="0.983232" stroke-miterlimit="10" stroke-linecap="round"/>
<defs>
<linearGradient id="paint0_linear_144_1117" x1="19.2484" y1="-0.871025" x2="101.473" y2="26.6375" gradientUnits="userSpaceOnUse">
<stop stop-color="#B988CA"/>
<stop offset="0.79" stop-color="#5C4364" stop-opacity="0"/>
</linearGradient>
</defs>
</svg>
