<svg width="52" height="59" viewBox="0 0 52 59" fill="none" xmlns="http://www.w3.org/2000/svg">
<g opacity="0.3">
<path d="M40.975 2.13101C40.975 2.13101 46.6061 5.30737 49.5003 23.8743C52.3945 42.4413 53.1809 51.6429 49.5003 56.3256C45.8196 61.0083 41.4784 57.9956 40.975 47.8116C40.5032 37.6276 37.9236 22.7282 34.5575 31.6024C31.1914 40.4765 27.0075 46.469 25.4031 47.6479C23.7987 48.8268 18.1676 48.8268 22.1943 38.7737C26.221 28.7535 25.4031 21.7131 22.037 23.5469C18.671 25.3806 4.70337 35.0735 1.80919 30.2925C-1.08499 25.5116 -2.37479 11.6601 12.8826 5.14364C28.14 -1.37281 34.7148 -0.881617 40.975 2.13101Z" fill="#FFCAEB"/>
<path d="M7.6946 20.5013C7.6946 20.5668 7.75751 20.6323 7.78897 20.6651C7.75751 20.6978 7.72605 20.7306 7.72605 20.7306C7.60022 20.8615 7.75751 21.058 7.91481 20.9598C8.89002 20.4031 9.77086 19.6172 10.6517 18.9295C10.7775 18.8313 10.8404 18.6348 10.7146 18.5038C9.92815 17.5542 8.85856 16.8665 7.72605 16.5063C7.56876 16.4736 7.34855 16.6046 7.38001 16.801C7.47439 18.0126 7.50585 19.257 7.6946 20.5013Z" fill="#BBE5FF"/>
<path d="M9.14 22.0732C8.60521 22.2042 8.69959 22.8918 8.69959 23.3175C8.66813 24.5946 8.66813 25.8717 8.7625 27.1488C8.7625 27.247 8.79396 27.3125 8.85688 27.3453C8.85688 27.378 8.82542 27.4435 8.82542 27.4763C8.79396 27.6072 8.98271 27.7055 9.04563 27.5745C9.07708 27.509 9.10855 27.4763 9.10855 27.4108C9.23438 27.378 9.32875 27.3125 9.2973 27.1488C9.2973 27.1161 9.2973 27.0833 9.2973 27.0506C10.0523 25.4788 10.65 23.8742 11.1533 22.2042C11.1848 22.0404 11.059 21.844 10.9017 21.844C10.5871 21.8767 10.304 21.9094 9.98938 21.9749C9.70625 22.0077 9.42313 22.0077 9.14 22.0732Z" fill="#BBE5FF"/>
<path d="M14.1106 14.5742C14.2679 14.5415 14.2993 14.4105 14.2993 14.2795C14.3308 14.2795 14.3308 14.2468 14.3622 14.2468C14.4251 14.1813 14.4881 14.0831 14.551 14.0176C14.6768 13.8538 14.8026 13.6901 14.897 13.5264C15.1172 13.1662 15.3374 12.806 15.5262 12.4458C15.7149 12.0856 15.8722 11.6926 16.0295 11.2997C16.1868 10.9067 16.2812 10.5137 16.5014 10.1863C16.5958 10.0553 16.5014 9.79333 16.3441 9.76059C15.7464 9.6296 15.1172 9.56411 14.5195 9.6296C14.2679 9.66235 13.9847 9.66235 13.7331 9.79333C13.5128 9.92432 13.4499 10.1863 13.4499 10.4483C13.4499 11.7908 13.6072 13.1007 13.7645 14.4105C13.7645 14.5415 13.9847 14.6397 14.1106 14.5742Z" fill="#BBE5FF"/>
<path d="M14.4247 20.0757C14.3618 20.3704 14.4247 20.6979 14.4247 20.9926C14.4247 21.3528 14.4562 21.6802 14.4562 22.0405C14.4877 22.7609 14.4877 23.4813 14.3618 24.1689C14.3304 24.3327 14.4247 24.4309 14.5191 24.4964C14.4877 24.6274 14.6764 24.7584 14.7393 24.6274C15.3056 23.8742 15.746 22.9573 16.2179 22.1059C16.6898 21.2546 17.1931 20.4032 17.6964 19.5518C17.7908 19.388 17.665 19.1916 17.4762 19.1588C16.8785 19.1261 16.3752 19.4208 15.8404 19.5518C15.4629 19.65 14.582 19.4863 14.4247 20.0757Z" fill="#BBE5FF"/>
<path d="M20.4965 18.8642C20.4965 18.9624 20.5594 19.0279 20.6538 19.0606C20.6538 19.0934 20.6538 19.1261 20.6223 19.1916C20.6223 19.3226 20.7796 19.3881 20.8425 19.2899C21.7863 18.1438 22.9503 17.2269 23.7053 15.917C23.8311 15.7205 23.6738 15.4913 23.4536 15.4913C22.9503 15.4913 22.4155 15.5241 21.9121 15.5568C21.629 15.5896 21.3773 15.6223 21.0942 15.6551C20.874 15.6878 20.6223 15.7206 20.4021 15.786C20.1504 15.8843 20.0246 16.1135 20.0875 16.3755C20.119 16.6374 20.1819 16.8994 20.2134 17.1614C20.3077 17.7508 20.4021 18.3075 20.4965 18.8642Z" fill="#BBE5FF"/>
<path d="M23.2329 11.0704C23.8621 10.8739 24.4913 10.6774 25.1204 10.481C25.435 10.3827 25.7496 10.2845 26.0327 10.1535C26.2844 10.0553 26.6304 9.95703 26.8192 9.72781C26.8506 9.69506 26.8506 9.59682 26.7877 9.59682C26.7563 9.59682 26.7248 9.59682 26.6933 9.59682C26.7248 9.53133 26.6933 9.43309 26.6619 9.3676C25.844 8.02501 24.8688 6.74792 24.0194 5.43808C23.8621 5.17612 23.5475 5.3071 23.516 5.56907C23.2958 7.30461 23.1071 9.07289 22.9183 10.8084C22.8554 10.9722 23.0756 11.1031 23.2329 11.0704Z" fill="#BBE5FF"/>
<path d="M28.1729 36.0229C27.6381 36.2849 27.1033 36.5468 26.5685 36.8088C26.3797 36.907 26.0966 36.9725 25.9708 37.2017C25.8449 37.431 26.0022 37.6602 26.1281 37.8894C26.6943 38.97 27.292 40.0834 27.8583 41.164C27.9527 41.3605 28.1414 41.3277 28.2672 41.2295C28.3302 41.2295 28.4245 41.1968 28.456 41.1313C28.5818 40.7711 28.5504 40.3454 28.5818 39.9524C28.6133 39.5595 28.6133 39.1338 28.6133 38.7081C28.6133 37.8894 28.6133 37.0708 28.6133 36.2521C28.5504 36.0556 28.3302 35.9247 28.1729 36.0229Z" fill="#BBE5FF"/>
<path d="M31.2548 29.6046C30.6571 29.2772 30.0594 28.9824 29.4302 28.7205C29.0527 28.5567 28.3291 28.2293 28.1089 28.8187C28.0146 29.1134 28.0146 29.5064 28.0146 29.8011C27.9831 30.1613 27.9831 30.5215 27.9831 30.9145C27.9831 31.6349 28.0146 32.388 28.0775 33.1084C28.1089 33.4031 28.5808 33.4031 28.5179 33.1084L28.5179 33.0757C29.0212 32.65 29.4302 32.1588 29.8706 31.6676C30.3425 31.1109 30.8144 30.5215 31.2862 29.9321C31.3806 29.8338 31.3806 29.6701 31.2548 29.6046Z" fill="#BBE5FF"/>
<path d="M29.1481 22.892C29.2739 23.023 29.4312 22.9575 29.5256 22.8592C29.5885 22.892 29.6829 22.892 29.7458 22.7937C30.1233 22.0733 30.375 21.2547 30.6581 20.4688C30.9412 19.6829 31.2244 18.897 31.5389 18.1111C31.6019 17.9146 31.3502 17.7181 31.1929 17.8164C30.1548 18.4713 29.1166 19.1589 28.2043 20.0431C27.9841 20.2396 27.7639 20.4688 27.6066 20.698C27.4493 20.9272 27.4493 21.1892 27.6381 21.3857C28.1414 21.9096 28.6448 22.4008 29.1481 22.892Z" fill="#BBE5FF"/>
<path d="M31.4449 5.47088C31.5079 6.1258 31.6022 6.81346 31.7281 7.46838C31.791 7.79584 32.2629 7.66486 32.2314 7.37015C32.4831 7.07543 32.7347 6.74797 32.9864 6.45326C33.2695 6.1258 33.5527 5.83108 33.8358 5.50362C34.402 4.88145 34.9368 4.25928 35.2514 3.44063C35.3143 3.2769 35.157 3.11317 34.9998 3.11317C34.3706 3.17866 33.71 3.21141 33.0808 3.2769C32.7662 3.30965 32.4516 3.34239 32.137 3.34239C31.8539 3.37514 31.5708 3.37514 31.4449 3.6371C31.3506 3.89907 31.382 4.22653 31.382 4.4885C31.4135 4.81596 31.4135 5.14342 31.4449 5.47088Z" fill="#BBE5FF"/>
<path d="M33.9926 9.36771C33.9926 9.49869 33.9926 9.66242 34.0241 9.79341C34.0241 9.95714 34.0555 10.1536 34.087 10.3173C34.1184 10.6448 34.1499 11.005 34.1814 11.3325C34.2128 11.6927 34.2443 12.0529 34.2757 12.3803C34.3072 12.7078 34.3386 13.0353 34.2443 13.33C34.1184 13.6574 34.6218 13.7884 34.7476 13.461C34.7476 13.4282 34.7791 13.3955 34.7791 13.3627C34.9993 13.1007 35.188 12.7405 35.4082 12.4786C35.6599 12.1184 35.943 11.7582 36.2262 11.398C36.761 10.6775 37.3272 10.0226 37.9564 9.36771C38.0822 9.23673 37.9878 8.97476 37.7991 8.97476C37.107 8.97476 36.4149 8.97476 35.7543 8.97476C35.4082 8.97476 35.0936 8.97476 34.7476 8.97476C34.4016 9.04025 34.0555 9.0075 33.9926 9.36771Z" fill="#BBE5FF"/>
<path d="M35.5647 19.5517C35.3759 19.9119 35.6276 20.403 35.7534 20.7305C36.1309 21.8439 36.5399 22.8917 37.0118 23.9396C37.0432 23.9724 37.0432 24.0051 37.0747 24.0051C37.1061 24.1033 37.232 24.1361 37.2949 24.0379C37.3893 24.0051 37.4836 23.8741 37.4522 23.7431C37.8926 22.99 38.2072 22.2041 38.5218 21.3854C38.7105 20.927 38.8678 20.4358 39.0566 19.9446C39.1824 19.5844 39.4655 19.0605 39.2768 18.7003C39.0566 18.2746 38.4903 18.5693 38.1443 18.6348C37.6409 18.7658 37.1376 18.8967 36.6343 19.0277C36.3197 19.1587 35.7534 19.1915 35.5647 19.5517Z" fill="#BBE5FF"/>
<path d="M40.506 15.4584C40.6318 15.4911 40.7891 15.4256 40.9149 15.3929C41.0722 15.3601 41.2295 15.2946 41.4183 15.2619C41.7643 15.1636 42.1104 15.0654 42.4249 14.9672C42.771 14.8689 43.117 14.8034 43.4316 14.6397C43.5574 14.5742 43.526 14.3777 43.4002 14.345C43.2743 13.5591 42.9283 12.9042 42.4879 12.2493C42.2676 11.889 42.016 11.5288 41.7958 11.2014C41.5756 10.8739 41.3868 10.481 41.0722 10.219C40.9149 10.088 40.6947 10.2845 40.6947 10.4482C40.6318 11.9218 40.506 13.3954 40.3172 14.8689C40.2228 15.0982 40.1914 15.4256 40.506 15.4584Z" fill="#BBE5FF"/>
<path d="M43.5234 33.0757C43.6177 33.2722 43.8694 33.2067 43.9323 33.0757C43.9952 33.1412 44.1211 33.1412 44.1525 33.0102C44.3098 32.6173 44.3413 32.1588 44.4042 31.7331C44.4671 31.2747 44.53 30.849 44.5929 30.3905C44.6559 29.9648 44.7188 29.5064 44.7502 29.0807C44.7817 28.786 44.9075 28.262 44.4671 28.2293C44.2784 28.1966 44.1211 28.3275 43.9323 28.393L43.3031 28.655C42.8942 28.8515 42.4852 29.0152 42.0763 29.1789C41.8246 29.2772 41.3213 29.3754 41.4156 29.8011C41.4471 29.9648 41.5729 30.0631 41.6988 30.1941C41.8246 30.3578 41.9504 30.5215 42.0763 30.6852C42.3279 31.0455 42.5796 31.4057 42.7684 31.7986C43.1144 32.2243 43.3031 32.65 43.5234 33.0757Z" fill="#BBE5FF"/>
<path d="M42.9587 19.3554C42.9272 19.5846 43.116 19.8139 43.2418 20.0103C43.5249 20.4688 43.7766 20.96 43.9339 21.4512C44.1226 22.0078 44.217 22.5645 44.4058 23.1212C44.4687 23.2849 44.626 23.3177 44.7518 23.2522C44.7833 23.2522 44.8462 23.2522 44.8776 23.2522C45.0035 23.1867 45.0035 23.023 45.0349 22.892C45.0664 22.6955 45.0979 22.499 45.0979 22.3026C45.1293 21.8769 45.1608 21.4512 45.1922 21.0255C45.2237 20.1741 45.2237 19.3554 45.1608 18.504C45.1608 18.373 45.0349 18.2421 44.8776 18.3075C44.3743 18.4713 43.871 18.7005 43.3676 18.9625C43.2418 19.028 42.9901 19.1262 42.9587 19.3554Z" fill="#BBE5FF"/>
<path d="M42.4227 39.7887C42.2025 39.7887 42.1396 40.0507 42.2654 40.1817C42.6115 40.6401 42.9261 41.0986 43.2406 41.5898C43.3979 41.819 43.5238 42.0809 43.6496 42.3102C43.7754 42.5721 43.9327 42.7686 44.09 42.9978C44.1529 43.0633 44.2159 43.0306 44.2473 42.9978C44.4046 43.0306 44.5619 42.9323 44.5934 42.7359C44.6563 42.0809 44.7506 41.4588 44.9709 40.8366C45.1596 40.2472 45.5371 39.6905 45.5371 39.0356C45.5371 38.8063 45.2854 38.6754 45.0967 38.7736C44.3102 39.2648 43.3979 39.8542 42.4227 39.7887Z" fill="#BBE5FF"/>
<path d="M47.0483 36.9071C47.2999 37.3 47.5201 37.693 47.7718 38.0532C47.992 38.3806 48.1493 38.8063 48.5268 38.9373L48.5268 38.9701C48.5583 39.0683 48.6841 39.0683 48.7156 39.0028C48.747 38.9701 48.747 38.9373 48.7785 38.8718C48.8099 38.8391 48.8414 38.7736 48.8414 38.7081C48.9043 38.4134 48.9043 38.1187 48.9358 37.824C48.9987 37.3983 49.0301 36.9726 49.0301 36.5469C49.0616 36.1212 49.0931 35.6627 49.0931 35.237C49.0931 34.9423 49.2189 34.4184 48.8099 34.3856C48.6526 34.3529 48.4954 34.4511 48.3695 34.4839C48.1808 34.5494 47.992 34.6149 47.8033 34.6804C47.4572 34.8113 47.1112 34.9751 46.7651 35.1388C46.482 35.2698 46.136 35.4335 46.3562 35.7937C46.5764 36.1867 46.8281 36.5469 47.0483 36.9071Z" fill="#BBE5FF"/>
<path d="M49.0921 48.6302C49.0292 48.6302 48.9977 48.6302 48.9348 48.6302C48.9663 48.5647 48.9663 48.4665 48.9348 48.401C48.4 47.3858 47.8652 46.4035 47.3304 45.3883C47.236 45.2246 47.0158 45.2246 46.9215 45.3883C46.5754 46.0105 46.544 46.7309 46.544 47.4186C46.544 48.2372 46.5754 49.0559 46.5754 49.9073C46.5754 50.071 46.7327 50.1692 46.89 50.1038C47.2675 49.8745 47.645 49.6453 48.0225 49.4816C48.2113 49.3833 48.4 49.3179 48.5888 49.2196C48.7775 49.1214 48.9977 49.0559 49.155 48.8922C49.1865 48.7612 49.1865 48.6629 49.0921 48.6302Z" fill="#BBE5FF"/>
</g>
</svg>
