<svg width="212" height="194" viewBox="0 0 212 194" fill="none" xmlns="http://www.w3.org/2000/svg">
<g opacity="0.2">
<mask id="mask0_280_469" style="mask-type:alpha" maskUnits="userSpaceOnUse" x="25" y="0" width="188" height="194">
<path d="M62.3971 70.53C62.3971 31.5774 95.887 4.31551e-05 137.199 4.67667e-05C178.511 5.03783e-05 212.001 31.5774 212.001 70.53C212.001 109.483 80.5119 193.607 39.1999 193.607C-2.11206 193.607 62.3971 109.483 62.3971 70.53Z" fill="#FFCB3C"/>
</mask>
<g mask="url(#mask0_280_469)">
<path fill-rule="evenodd" clip-rule="evenodd" d="M146.11 79.9723C150.734 81.8015 155.958 82.1657 161.717 80.5768C181.38 75.1512 189.431 60.7037 190.508 43.493C192.017 19.3027 179.218 -10.476 167.754 -25.2723C166.415 -27.0008 163.842 -27.3766 162.008 -26.1171C160.179 -24.8537 159.777 -22.4277 161.117 -20.6993C171.745 -6.98035 183.702 20.6048 182.3 43.0357C181.437 56.9097 175.255 68.7646 159.407 73.1399C155.979 74.0855 152.859 73.9537 150.052 73.0236C150.965 71.2991 151.836 69.5707 152.662 67.8422C155.963 60.9208 160.895 41.7025 159.053 27.5728C157.594 16.3922 151.992 8.37405 140.434 8.66858C133.817 8.83522 128.934 12.6059 126.004 18.7872C122.391 26.4102 121.897 38.0713 124.438 49.2519C126.546 58.549 130.73 67.4702 136.6 73.4693C137.422 74.3103 138.277 75.097 139.16 75.8255C119.892 108.034 85.1157 137.921 49.4109 150.652C47.2901 151.408 46.2216 153.644 47.0231 155.647C47.8246 157.647 50.2001 158.655 52.3209 157.899C89.563 144.622 125.864 113.545 146.11 79.9723ZM143.147 68.7064C143.846 67.3617 144.52 66.0131 145.161 64.6644C148.124 58.4521 152.547 41.2027 150.895 28.5184C150.019 21.8062 147.59 16.2411 140.652 16.4155C137.249 16.5008 135.013 18.7718 133.509 21.9496C131.511 26.1622 130.8 31.8745 131.117 37.955C131.614 47.3878 134.635 57.7119 139.953 65.0132C140.936 66.3618 142 67.6058 143.147 68.7064Z" fill="#35312B"/>
<path fill-rule="evenodd" clip-rule="evenodd" d="M76.9333 102.18C73.7274 119.809 61.4668 138.566 48.2938 151.564C46.7278 153.11 46.7853 155.563 48.4252 157.044C50.0652 158.52 52.6711 158.466 54.237 156.92C68.4705 142.871 81.5737 122.537 85.0344 103.489C85.4167 101.381 83.9122 99.3777 81.6763 99.0172C79.4403 98.6568 77.3156 100.071 76.9333 102.18Z" fill="#35312B"/>
<path fill-rule="evenodd" clip-rule="evenodd" d="M53.8832 157.66C67.4262 150.37 88.1989 149.417 103.341 153.114C105.54 153.649 107.784 152.401 108.351 150.332C108.918 148.262 107.599 146.146 105.4 145.607C88.3755 141.457 65.0341 142.732 49.806 150.928C47.8372 151.986 47.1508 154.358 48.2769 156.214C49.4031 158.071 51.9145 158.718 53.8832 157.66Z" fill="#35312B"/>
</g>
<path fill-rule="evenodd" clip-rule="evenodd" d="M18.7339 175.726C18.7733 176.512 18.7654 177.278 18.726 177.997C18.5918 180.16 16.4603 180.152 16.2946 180.149C15.9472 180.142 14.3998 180.049 14.0288 178.364C14.0051 178.263 13.9498 177.535 13.9341 177.254C13.9025 176.656 13.8867 176.068 13.9736 175.478C13.8946 174.477 13.721 173.446 13.3894 172.477C12.9078 171.047 12.1263 169.726 10.7132 169.023C8.18703 167.757 4.86358 167.809 2.08478 167.487C0.924313 167.353 0.0401381 166.441 0.000666613 165.339C-0.0309106 164.237 0.790068 163.275 1.94264 163.075C5.41614 162.469 9.41071 159.491 11.9527 157.092C12.7342 156.355 13.6105 154.6 14.5894 153.476C15.3788 152.576 16.2551 151.972 17.084 151.732C17.4077 151.639 19.1996 151.3 20.0048 153.049C20.2259 153.54 21.0074 156.113 21.0785 156.406C21.5048 158.087 22.1126 159.588 23.3046 160.925C24.3388 162.084 25.594 163.096 27.1018 163.657C27.7097 163.884 28.3412 164.056 28.9728 164.233C29.1938 164.258 29.8175 164.333 30.0385 164.403C30.4885 164.545 30.8201 164.767 31.0569 164.988C31.5069 165.406 31.7358 165.905 31.7753 166.474C31.8069 166.849 31.7516 167.294 31.4674 167.788C31.2543 168.138 30.7727 168.666 29.9043 169.009C28.9965 169.367 27.0466 169.707 26.6992 169.795C24.2835 170.409 21.9152 171.341 20.0601 172.958C19.1364 173.766 18.9233 174.638 18.7339 175.726ZM17.1865 169.396C16.255 167.575 14.8657 166.042 12.9316 165.077C12.1342 164.676 11.2659 164.371 10.3659 164.135C12.2211 162.917 13.942 161.532 15.3078 160.249C15.7498 159.832 16.2314 159.156 16.7445 158.414C17.3445 160.395 18.2286 162.175 19.6811 163.803C20.5416 164.764 21.5127 165.641 22.5942 166.373C20.6364 167.104 18.7812 168.082 17.1865 169.396Z" fill="#35312B"/>
</g>
</svg>
