<svg width="28" height="36" viewBox="0 0 28 36" fill="none" xmlns="http://www.w3.org/2000/svg">
<path d="M9.81066 20.4393C9.22487 19.8536 8.27513 19.8536 7.68934 20.4393C7.10355 21.0251 7.10355 21.9749 7.68934 22.5607L9.81066 20.4393ZM12.25 25L11.1893 26.0607C11.7751 26.6464 12.7249 26.6464 13.3107 26.0607L12.25 25ZM20.3107 19.0607C20.8964 18.4749 20.8964 17.5251 20.3107 16.9393C19.7249 16.3536 18.7751 16.3536 18.1893 16.9393L20.3107 19.0607ZM24.75 9.25V30.25H27.75V9.25H24.75ZM22.75 32.25H5.25V35.25H22.75V32.25ZM3.25 30.25V9.25H0.25V30.25H3.25ZM5.25 7.25H8.75V4.25H5.25V7.25ZM19.25 7.25H22.75V4.25H19.25V7.25ZM5.25 32.25C4.14543 32.25 3.25 31.3546 3.25 30.25H0.25C0.25 33.0114 2.48858 35.25 5.25 35.25V32.25ZM24.75 30.25C24.75 31.3546 23.8546 32.25 22.75 32.25V35.25C25.5114 35.25 27.75 33.0114 27.75 30.25H24.75ZM27.75 9.25C27.75 6.48858 25.5114 4.25 22.75 4.25V7.25C23.8546 7.25 24.75 8.14543 24.75 9.25H27.75ZM3.25 9.25C3.25 8.14543 4.14543 7.25 5.25 7.25V4.25C2.48858 4.25 0.25 6.48858 0.25 9.25H3.25ZM7.68934 22.5607L11.1893 26.0607L13.3107 23.9393L9.81066 20.4393L7.68934 22.5607ZM13.3107 26.0607L20.3107 19.0607L18.1893 16.9393L11.1893 23.9393L13.3107 26.0607ZM12.25 3.75H15.75V0.75H12.25V3.75ZM15.75 7.75H12.25V10.75H15.75V7.75ZM12.25 7.75C11.1454 7.75 10.25 6.85457 10.25 5.75H7.25C7.25 8.51142 9.48858 10.75 12.25 10.75V7.75ZM17.75 5.75C17.75 6.85457 16.8546 7.75 15.75 7.75V10.75C18.5114 10.75 20.75 8.51142 20.75 5.75H17.75ZM15.75 3.75C16.8546 3.75 17.75 4.64543 17.75 5.75H20.75C20.75 2.98858 18.5114 0.75 15.75 0.75V3.75ZM12.25 0.75C9.48858 0.75 7.25 2.98858 7.25 5.75H10.25C10.25 4.64543 11.1454 3.75 12.25 3.75V0.75Z" fill="url(#paint0_linear_5795_706)"/>
<defs>
<linearGradient id="paint0_linear_5795_706" x1="14.0019" y1="36.6619" x2="14.0019" y2="3.03589" gradientUnits="userSpaceOnUse">
<stop stop-color="#123EF9"/>
<stop offset="0.1299" stop-color="#1146F9"/>
<stop offset="0.3262" stop-color="#0E5AFA"/>
<stop offset="0.5646" stop-color="#0A7CFC"/>
<stop offset="0.8336" stop-color="#04ABFE"/>
<stop offset="1" stop-color="#00CCFF"/>
</linearGradient>
</defs>
</svg>
