<svg width="894" height="142" viewBox="0 0 894 142" fill="none" xmlns="http://www.w3.org/2000/svg">
<path d="M370.635 16.1747C369.746 17.0734 368.318 17.1551 367.304 16.3789C363.001 13.1108 357.332 11.3338 352.284 11.3338C338.194 11.3338 329.649 21.8939 329.649 35.2523C329.649 45.9145 335.939 56.9444 352.284 56.9444C357.125 56.9444 361.387 55.964 366.146 52.4916C366.766 52.0422 367.118 51.3069 367.118 50.5307V42.7077C367.118 41.3391 366.001 40.2362 364.615 40.2362H352.801C351.415 40.2362 350.297 39.1332 350.297 37.7646V31.7595C350.297 30.391 351.415 29.288 352.801 29.288H375.973C377.359 29.288 378.477 30.391 378.477 31.7595V55.678C378.477 56.2908 378.249 56.8831 377.835 57.3529C371.463 64.2364 363.456 68.3215 352.284 68.3215C327.58 68.3215 317.546 52.2873 317.546 35.2318C317.546 16.9713 329.091 0.0996094 352.284 0.0996094C360.27 0.0996094 368.256 2.83666 374.711 8.22905C375.828 9.1482 375.911 10.8231 374.897 11.8648L370.635 16.1747Z" fill="#0F172A"/>
<path d="M435.872 44.0556C435.872 57.2098 426.769 67.872 411.748 67.872C396.727 67.872 387.707 57.2098 387.707 44.0556C387.707 30.9832 396.914 20.2393 411.645 20.2393C426.376 20.2393 435.872 30.9832 435.872 44.0556ZM399.148 44.0556C399.148 51.0004 403.369 57.4958 411.727 57.4958C420.086 57.4958 424.307 51.0004 424.307 44.0556C424.307 37.1926 419.424 30.5134 411.727 30.5134C403.472 30.5134 399.148 37.1926 399.148 44.0556Z" fill="#0F172A"/>
<path d="M491.736 38.5405V4.42952C491.736 3.061 492.853 1.95801 494.239 1.95801H501.646C503.032 1.95801 504.149 3.061 504.149 4.42952V64.379C504.149 65.7475 503.032 66.8505 501.646 66.8505H495.294C494.529 66.8505 493.825 66.5033 493.35 65.9314L463.619 29.1651C462.15 27.3472 459.17 28.3685 459.17 30.697V64.3994C459.17 65.768 458.053 66.8709 456.667 66.8709H449.26C447.874 66.8709 446.757 65.768 446.757 64.3994V4.42952C446.757 3.061 447.874 1.95801 449.26 1.95801H455.612C456.377 1.95801 457.101 2.30525 457.577 2.89759L487.308 40.052C488.756 41.8903 491.736 40.869 491.736 38.5405Z" fill="#0F172A"/>
<path d="M530.443 48.0387C528.581 48.0387 527.319 50.0199 528.208 51.6336C530.236 55.3306 534.622 57.7613 540.85 57.7613C544.367 57.7613 548.815 56.6583 551.712 54.7383C552.684 54.0847 553.988 54.2276 554.815 55.0447L558.663 58.803C559.76 59.8651 559.615 61.6218 558.394 62.5409C553.512 66.2584 546.725 68.0559 540.643 68.0559C524.691 68.0559 515.195 58.3332 515.195 43.6675C515.195 29.7576 524.774 19.749 539.794 19.749C554.608 19.749 564.105 28.4095 563.339 45.6284C563.277 46.9561 562.181 48.0182 560.836 48.0182H530.443V48.0387ZM548.877 38.6632C550.739 38.6632 551.981 36.7024 551.112 35.0887C549.229 31.5551 545.277 29.7781 540.188 29.7781C535.512 29.7781 531.457 31.4734 529.036 34.8641C527.898 36.4573 529.139 38.6837 531.126 38.6837H548.877V38.6632Z" fill="#0F172A"/>
<path d="M599.459 22.3847C599.914 21.629 600.721 21.1592 601.611 21.1592H613.88V21.5268L599.624 42.2794C599.045 43.1168 599.045 44.2402 599.645 45.0777L614.811 66.586V66.8719H602.459C601.611 66.8719 600.824 66.443 600.369 65.7485L593.149 54.7595C592.156 53.2684 589.942 53.2684 588.969 54.7595L581.749 65.7485C581.293 66.443 580.507 66.8719 579.659 66.8719H567.307V66.586L582.473 45.0777C583.073 44.2402 583.073 43.1373 582.494 42.2794L568.259 21.5268V21.1592H580.528C581.418 21.1592 582.245 21.629 582.68 22.3847L588.907 32.9652C589.859 34.5993 592.259 34.5993 593.231 32.9652L599.459 22.3847Z" fill="#0F172A"/>
<path d="M639.633 11.0081V18.7903C639.633 20.1588 640.75 21.2618 642.137 21.2618H649.916C651.302 21.2618 652.419 22.3648 652.419 23.7333V28.5334C652.419 29.9019 651.302 31.0049 649.916 31.0049H642.054C640.668 31.0049 639.55 32.1079 639.55 33.4764V50.7565C639.55 55.1072 641.992 57.2519 645.55 57.2519C646.585 57.2519 647.723 57.0681 648.819 56.7413C650.123 56.3532 651.488 57.0681 651.902 58.3345L653.516 63.2367C653.95 64.5235 653.247 65.9329 651.944 66.3414C649.606 67.0563 647.413 67.3831 644.806 67.4648C634.751 67.8325 628.192 62.1745 628.192 50.777V33.4968C628.192 32.1283 627.075 31.0253 625.688 31.0253H622.047C620.661 31.0253 619.544 29.9223 619.544 28.5538V23.7537C619.544 22.3852 620.661 21.2822 622.047 21.2822H625.688C627.075 21.2822 628.192 20.1792 628.192 18.8107V11.723C628.192 10.4566 629.164 9.41489 630.426 9.27191L636.882 8.59786C638.33 8.41403 639.633 9.53744 639.633 11.0081Z" fill="#0F172A"/>
<path d="M676.895 4.42952V53.0836C676.895 54.4521 678.012 55.5551 679.398 55.5551H708.198C709.585 55.5551 710.702 56.6581 710.702 58.0266V64.3994C710.702 65.768 709.585 66.8709 708.198 66.8709H667.005C665.619 66.8709 664.502 65.768 664.502 64.3994V4.42952C664.502 3.061 665.619 1.95801 667.005 1.95801H674.412C675.778 1.95801 676.895 3.061 676.895 4.42952Z" fill="#0F172A"/>
<path d="M731.941 48.0387C730.079 48.0387 728.816 50.0199 729.706 51.6336C731.734 55.3306 736.12 57.7613 742.347 57.7613C745.865 57.7613 750.313 56.6583 753.209 54.7383C754.182 54.0847 755.485 54.2276 756.313 55.0447L760.161 58.803C761.258 59.8651 761.113 61.6218 759.892 62.5409C755.009 66.2584 748.223 68.0559 742.141 68.0559C726.189 68.0559 716.692 58.3332 716.692 43.6675C716.692 29.7576 726.272 19.749 741.292 19.749C756.106 19.749 765.602 28.4095 764.837 45.6284C764.775 46.9561 763.678 48.0182 762.334 48.0182H731.941V48.0387ZM750.375 38.6632C752.237 38.6632 753.478 36.7024 752.61 35.0887C750.727 31.5551 746.775 29.7781 741.685 29.7781C737.01 29.7781 732.954 31.4734 730.534 34.8641C729.396 36.4573 730.637 38.6837 732.623 38.6837H750.375V38.6632Z" fill="#0F172A"/>
<path d="M818.91 24.4855L801.304 65.5412C800.911 66.4603 800 67.0527 799.007 67.0527H789.924C788.931 67.0527 788.021 66.4603 787.628 65.5616L769.938 24.5059C769.235 22.8719 770.456 21.0744 772.235 21.0744H779.29C780.304 21.0744 781.214 21.6667 781.586 22.5859L787.338 36.1894L792.117 49.1189C792.924 51.284 796.007 51.284 796.814 49.1189L801.511 36.3733L807.262 22.6063C807.655 21.6872 808.566 21.0744 809.579 21.0744H816.635C818.393 21.054 819.614 22.8514 818.91 24.4855Z" fill="#0F172A"/>
<path d="M839.362 48.0387C837.5 48.0387 836.238 50.0199 837.128 51.6336C839.155 55.3306 843.542 57.7613 849.769 57.7613C853.286 57.7613 857.735 56.6583 860.631 54.7383C861.603 54.0847 862.907 54.2276 863.735 55.0447L867.583 58.803C868.679 59.8651 868.535 61.6218 867.314 62.5409C862.431 66.2584 855.645 68.0559 849.562 68.0559C833.61 68.0559 824.114 58.3332 824.114 43.6675C824.114 29.7576 833.693 19.749 848.714 19.749C863.528 19.749 873.024 28.4095 872.259 45.6284C872.197 46.9561 871.1 48.0182 869.755 48.0182H839.362V48.0387ZM857.797 38.6632C859.659 38.6632 860.9 36.7024 860.031 35.0887C858.148 31.5551 854.197 29.7781 849.107 29.7781C844.431 29.7781 840.376 31.4734 837.955 34.8641C836.817 36.4573 838.059 38.6837 840.045 38.6837H857.797V38.6632Z" fill="#0F172A"/>
<path d="M894 4.53304V64.4008C894 65.7693 892.883 66.8723 891.497 66.8723H885.124C883.738 66.8723 882.621 65.7693 882.621 64.4008V4.53304C882.621 3.16451 883.738 2.06152 885.124 2.06152H891.497C892.883 2.06152 894 3.16451 894 4.53304Z" fill="#0F172A"/>
<path d="M338.34 123.105H323.691C323.216 123.105 322.76 123.391 322.574 123.82L320.257 128.947C320.112 129.274 319.76 129.498 319.409 129.498H318.498C317.816 129.498 317.36 128.804 317.65 128.191L329.298 102.557C329.505 102.128 329.94 101.842 330.415 101.842H331.615C332.091 101.842 332.546 102.128 332.733 102.557L344.381 128.191C344.65 128.804 344.215 129.498 343.533 129.498H342.622C342.25 129.498 341.919 129.274 341.774 128.947L339.457 123.82C339.271 123.391 338.815 123.105 338.34 123.105ZM325.905 120.572H336.146C337.036 120.572 337.636 119.673 337.264 118.877L332.153 107.377C331.719 106.417 330.333 106.417 329.898 107.377L324.788 118.877C324.415 119.673 325.016 120.572 325.905 120.572Z" fill="#0F172A"/>
<path d="M381.787 109.233L382.18 109.56C382.573 109.887 382.635 110.479 382.304 110.867L381.456 111.848C381.083 112.297 381.083 112.93 381.435 113.38C382.594 114.81 383.421 116.464 383.421 119.099C383.421 121.775 382.263 124.532 379.863 126.166C379.118 126.677 379.159 127.8 379.945 128.229C382.118 129.414 383.297 131.232 383.297 133.663C383.297 138.565 378.373 141.097 373.139 141.097C367.904 141.097 363.746 138.544 363.187 134.112C363.125 133.54 363.539 133.029 364.118 133.029H364.925C365.38 133.029 365.773 133.356 365.835 133.785C366.27 136.951 369.621 138.503 373.118 138.503C376.759 138.503 380.566 137.114 380.566 133.642C380.566 130.211 376.801 128.658 373.118 128.658C367.035 128.658 362.752 125.145 362.752 119.058C362.752 112.706 368.152 109.458 373.118 109.458C374.69 109.458 376.677 109.846 378.166 110.561C378.663 110.806 379.263 110.684 379.635 110.255L380.463 109.295C380.814 108.947 381.394 108.907 381.787 109.233ZM365.504 119.099C365.504 123.919 368.856 126.248 373.139 126.248C377.69 126.248 380.752 122.959 380.752 119.099C380.752 114.238 377.028 111.991 373.139 111.991C369.518 111.991 365.504 114.217 365.504 119.099Z" fill="#0F172A"/>
<path d="M407.457 120.855C406.65 120.855 406.029 121.611 406.257 122.367C407.188 125.512 410.043 127.33 413.457 127.33C415.567 127.33 418.071 126.595 419.581 125.226C419.933 124.92 420.45 124.94 420.802 125.247L421.215 125.615C421.629 125.982 421.629 126.615 421.215 127.003C419.209 128.903 416.209 129.863 413.436 129.863C407.56 129.863 403.195 125.962 403.195 119.711C403.195 113.87 407.436 109.642 413.312 109.642C418.878 109.642 423.388 112.787 423.222 119.63C423.202 120.304 422.664 120.855 421.981 120.855H407.457ZM419.271 118.588C420.036 118.588 420.636 117.894 420.491 117.138C419.788 113.788 416.85 111.991 413.374 111.991C409.919 111.991 407.25 113.788 406.278 117.056C406.05 117.812 406.671 118.588 407.478 118.588H419.271Z" fill="#0F172A"/>
<path d="M460.489 129.5C459.971 129.5 459.558 129.092 459.558 128.581V118.573C459.558 114.385 457.075 112.179 453.123 112.179C449.275 112.22 446.647 115.141 446.647 118.9V128.602C446.647 129.112 446.233 129.521 445.716 129.521H444.909C444.392 129.521 443.978 129.112 443.978 128.602V110.933C443.978 110.423 444.392 110.014 444.909 110.014H445.613C446.13 110.014 446.544 110.423 446.544 110.913L446.606 113.282C448.24 110.79 450.806 109.688 453.495 109.688C458.626 109.688 462.289 112.69 462.289 118.532V128.581C462.289 129.092 461.875 129.5 461.357 129.5H460.489Z" fill="#0F172A"/>
<path d="M499.954 126.189C500.347 126.557 500.347 127.211 499.912 127.538C497.968 129.09 495.671 129.846 493.292 129.846C487.643 129.846 483.009 126.128 483.009 119.735C483.009 113.383 487.54 109.665 493.292 109.665C495.609 109.665 497.699 110.36 499.581 111.891C499.995 112.239 499.995 112.872 499.623 113.26L499.188 113.668C498.837 113.995 498.299 113.995 497.926 113.709C496.561 112.668 494.988 112.157 493.333 112.157C489.133 112.157 485.699 114.955 485.699 119.735C485.699 124.637 489.175 127.313 493.292 127.313C495.009 127.313 496.747 126.761 498.154 125.658C498.547 125.352 499.085 125.352 499.416 125.699L499.954 126.189Z" fill="#0F172A"/>
<path d="M537.593 111.277L525.883 138.259C525.738 138.607 525.386 138.811 525.014 138.811H524.145C523.462 138.811 523.007 138.137 523.276 137.524L526.669 129.721C526.793 129.415 526.793 129.088 526.669 128.782L519.469 111.257C519.221 110.644 519.676 109.99 520.338 109.99H521.31C521.703 109.99 522.055 110.235 522.179 110.583L526.152 120.775L527.207 123.492C527.621 124.513 529.09 124.533 529.503 123.492L530.579 120.775L534.945 110.562C535.09 110.215 535.441 109.99 535.814 109.99H536.724C537.407 109.99 537.862 110.664 537.593 111.277Z" fill="#0F172A"/>
<path d="M141.604 83.9849C133.637 119.725 105.811 138.523 76.8618 140.58C44.2351 142.9 10.1375 123.941 1.33219 83.9849C-11.3548 16.982 69.364 -26.5638 119.52 18.4141C118.641 19.6041 117.803 20.8344 116.986 22.0849C112.533 28.4181 109.55 34.4084 107.507 40.0357C103.87 35.8405 99.4778 32.2906 94.595 29.6081V29.6283C52.6523 6.49393 5.74507 53.9929 31.0782 95.0176V95.2798C40.9663 111.657 59.2716 118.898 76.6166 117.022C82.3779 116.417 88.037 114.784 93.2262 112.141C100.479 108.471 106.873 102.843 111.45 95.2596V95.3201C124.402 74.0615 112.533 56.6755 130.511 31.4032C153.147 -4.11519 208.145 -11.0333 239.076 18.5754C239.403 18.878 239.75 19.1805 240.077 19.5032C240.097 19.5234 240.138 19.5637 240.179 19.5839L227.349 40.8223C223.569 36.264 218.891 32.4117 213.681 29.5274V29.6081C183.976 12.4036 143.974 34.3882 142.953 68.172C142.932 68.5754 142.932 68.9788 142.932 69.4024C142.932 69.7251 142.932 70.0276 142.953 70.3503C142.953 70.9151 142.953 71.5 142.932 72.0647C142.81 76.139 142.381 80.1123 141.604 83.9849ZM60.3135 83.3193H99.8046C101.725 78.9425 102.338 74.5254 102.828 69.1805C102.828 69.1603 102.828 69.1402 102.828 69.12C102.951 65.671 103.033 62.2019 103.605 58.8134H74.7984L60.3135 83.3193ZM250.23 35.2757L234.785 60.7295C234.888 61.1934 234.99 61.6775 235.051 62.0607C235.071 62.1817 235.092 62.2826 235.112 62.3633C235.133 62.4238 235.133 62.4641 235.133 62.5044V62.5246C235.133 62.5649 235.153 62.6053 235.153 62.6255C235.153 62.6658 235.174 62.686 235.174 62.686C243.489 108.894 183.894 136.042 153.352 102.601C150.226 110.387 146.16 117.506 141.216 123.88C186.264 163.311 260.098 131.302 259.792 70.6327C259.833 57.7243 256.339 45.663 250.23 35.2757Z" fill="url(#paint0_linear_5561_1701)"/>
<defs>
<linearGradient id="paint0_linear_5561_1701" x1="129.916" y1="154.292" x2="129.916" y2="3.53226" gradientUnits="userSpaceOnUse">
<stop stop-color="#123EF9"/>
<stop offset="0.1299" stop-color="#1146F9"/>
<stop offset="0.3262" stop-color="#0E5AFA"/>
<stop offset="0.5646" stop-color="#0A7CFC"/>
<stop offset="0.8336" stop-color="#04ABFE"/>
<stop offset="1" stop-color="#00CCFF"/>
</linearGradient>
</defs>
</svg>
