<svg width="292" height="68" viewBox="0 0 292 68" fill="none" xmlns="http://www.w3.org/2000/svg">
<rect x="0.556152" y="0.5" width="290.888" height="67" rx="33.5" stroke="url(#paint0_linear_5553_677)" stroke-opacity="0.2"/>
<path d="M126.534 20.1212C126.308 20.3503 125.944 20.3712 125.685 20.1733C124.588 19.3402 123.143 18.8873 121.856 18.8873C118.265 18.8873 116.087 21.5791 116.087 24.9843C116.087 27.7021 117.69 30.5137 121.856 30.5137C123.09 30.5137 124.177 30.2638 125.39 29.3787C125.548 29.2641 125.638 29.0767 125.638 28.8789V26.8847C125.638 26.5359 125.353 26.2547 125 26.2547H121.988C121.635 26.2547 121.35 25.9735 121.35 25.6247V24.0939C121.35 23.7451 121.635 23.4639 121.988 23.4639H127.895C128.248 23.4639 128.533 23.7451 128.533 24.0939V30.1909C128.533 30.3471 128.475 30.4981 128.37 30.6179C126.745 32.3725 124.704 33.4139 121.856 33.4139C115.559 33.4139 113.001 29.3266 113.001 24.9791C113.001 20.3243 115.944 16.0236 121.856 16.0236C123.892 16.0236 125.928 16.7213 127.573 18.0958C127.858 18.3301 127.879 18.7571 127.621 19.0226L126.534 20.1212Z" fill="#0F172A"/>
<path d="M143.164 27.2287C143.164 30.5818 140.843 33.2997 137.014 33.2997C133.185 33.2997 130.886 30.5818 130.886 27.2287C130.886 23.8965 133.233 21.1577 136.988 21.1577C140.743 21.1577 143.164 23.8965 143.164 27.2287ZM133.802 27.2287C133.802 28.999 134.878 30.6547 137.009 30.6547C139.14 30.6547 140.216 28.999 140.216 27.2287C140.216 25.4793 138.971 23.7767 137.009 23.7767C134.905 23.7767 133.802 25.4793 133.802 27.2287Z" fill="#0F172A"/>
<path d="M157.404 25.8227V17.1275C157.404 16.7787 157.689 16.4975 158.042 16.4975H159.93C160.283 16.4975 160.568 16.7787 160.568 17.1275V32.4091C160.568 32.7579 160.283 33.0391 159.93 33.0391H158.311C158.116 33.0391 157.936 32.9506 157.815 32.8048L150.236 23.4328C149.862 22.9694 149.103 23.2297 149.103 23.8233V32.4143C149.103 32.7632 148.818 33.0443 148.464 33.0443H146.576C146.223 33.0443 145.938 32.7632 145.938 32.4143V17.1275C145.938 16.7787 146.223 16.4975 146.576 16.4975H148.195C148.391 16.4975 148.575 16.586 148.697 16.737L156.275 26.208C156.644 26.6766 157.404 26.4162 157.404 25.8227Z" fill="#0F172A"/>
<path d="M167.27 28.2436C166.796 28.2436 166.474 28.7486 166.701 29.16C167.218 30.1024 168.336 30.722 169.923 30.722C170.82 30.722 171.954 30.4408 172.692 29.9514C172.94 29.7848 173.272 29.8212 173.483 30.0295L174.464 30.9875C174.744 31.2582 174.707 31.706 174.395 31.9403C173.151 32.8879 171.421 33.3461 169.87 33.3461C165.804 33.3461 163.384 30.8677 163.384 27.1294C163.384 23.5836 165.825 21.0323 169.654 21.0323C173.43 21.0323 175.851 23.24 175.656 27.6292C175.64 27.9676 175.361 28.2384 175.018 28.2384H167.27V28.2436ZM171.969 25.8537C172.444 25.8537 172.761 25.3539 172.539 24.9426C172.059 24.0418 171.052 23.5888 169.754 23.5888C168.563 23.5888 167.529 24.021 166.912 24.8853C166.622 25.2914 166.938 25.8589 167.444 25.8589H171.969V25.8537Z" fill="#0F172A"/>
<path d="M184.863 21.7041C184.979 21.5114 185.185 21.3917 185.412 21.3917H188.539V21.4854L184.905 26.7754C184.758 26.9888 184.758 27.2752 184.911 27.4887L188.776 32.9713V33.0442H185.628C185.412 33.0442 185.211 32.9348 185.095 32.7578L183.255 29.9566C183.001 29.5765 182.437 29.5765 182.189 29.9566L180.349 32.7578C180.233 32.9348 180.032 33.0442 179.816 33.0442H176.667V32.9713L180.533 27.4887C180.686 27.2752 180.686 26.994 180.539 26.7754L176.91 21.4854V21.3917H180.038C180.264 21.3917 180.475 21.5114 180.586 21.7041L182.173 24.4011C182.416 24.8177 183.028 24.8177 183.276 24.4011L184.863 21.7041Z" fill="#0F172A"/>
<path d="M195.104 18.804V20.7878C195.104 21.1366 195.389 21.4178 195.742 21.4178H197.725C198.078 21.4178 198.363 21.699 198.363 22.0478V23.2714C198.363 23.6202 198.078 23.9014 197.725 23.9014H195.721C195.368 23.9014 195.083 24.1825 195.083 24.5314V28.9362C195.083 30.0452 195.705 30.5919 196.612 30.5919C196.876 30.5919 197.166 30.5451 197.446 30.4618C197.778 30.3628 198.126 30.5451 198.231 30.8679L198.643 32.1175C198.753 32.4455 198.574 32.8048 198.242 32.9089C197.646 33.0911 197.087 33.1744 196.422 33.1953C193.859 33.289 192.187 31.8467 192.187 28.9414V24.5366C192.187 24.1877 191.903 23.9066 191.549 23.9066H190.621C190.268 23.9066 189.983 23.6254 189.983 23.2766V22.053C189.983 21.7042 190.268 21.423 190.621 21.423H191.549C191.903 21.423 192.187 21.1418 192.187 20.793V18.9863C192.187 18.6635 192.435 18.3979 192.757 18.3615L194.402 18.1897C194.772 18.1428 195.104 18.4292 195.104 18.804Z" fill="#0F172A"/>
<path d="M204.602 17.1275V29.5298C204.602 29.8787 204.887 30.1598 205.24 30.1598H212.582C212.935 30.1598 213.22 30.441 213.22 30.7898V32.4143C213.22 32.7632 212.935 33.0443 212.582 33.0443H202.081C201.728 33.0443 201.443 32.7632 201.443 32.4143V17.1275C201.443 16.7787 201.728 16.4975 202.081 16.4975H203.969C204.317 16.4975 204.602 16.7787 204.602 17.1275Z" fill="#0F172A"/>
<path d="M218.634 28.2436C218.159 28.2436 217.837 28.7486 218.064 29.16C218.581 30.1024 219.699 30.722 221.286 30.722C222.183 30.722 223.317 30.4408 224.055 29.9514C224.303 29.7848 224.635 29.8212 224.846 30.0295L225.827 30.9875C226.107 31.2582 226.07 31.706 225.759 31.9403C224.514 32.8879 222.784 33.3461 221.234 33.3461C217.168 33.3461 214.747 30.8677 214.747 27.1294C214.747 23.5836 217.189 21.0323 221.018 21.0323C224.794 21.0323 227.214 23.24 227.019 27.6292C227.003 27.9676 226.724 28.2384 226.381 28.2384H218.634V28.2436ZM223.333 25.8537C223.807 25.8537 224.124 25.3539 223.902 24.9426C223.422 24.0418 222.415 23.5888 221.118 23.5888C219.926 23.5888 218.892 24.021 218.275 24.8853C217.985 25.2914 218.301 25.8589 218.808 25.8589H223.333V25.8537Z" fill="#0F172A"/>
<path d="M240.803 22.2403L236.315 32.7057C236.215 32.94 235.983 33.091 235.729 33.091H233.414C233.161 33.091 232.929 32.94 232.829 32.7109L228.32 22.2455C228.14 21.829 228.451 21.3708 228.905 21.3708H230.703C230.962 21.3708 231.194 21.5218 231.289 21.7561L232.755 25.2237L233.973 28.5196C234.179 29.0715 234.965 29.0715 235.17 28.5196L236.368 25.2706L237.834 21.7613C237.934 21.527 238.166 21.3708 238.424 21.3708H240.223C240.671 21.3656 240.982 21.8238 240.803 22.2403Z" fill="#0F172A"/>
<path d="M246.016 28.2436C245.542 28.2436 245.22 28.7486 245.447 29.16C245.964 30.1024 247.082 30.722 248.669 30.722C249.566 30.722 250.7 30.4408 251.438 29.9514C251.686 29.7848 252.018 29.8212 252.229 30.0295L253.21 30.9875C253.489 31.2582 253.453 31.706 253.141 31.9403C251.897 32.8879 250.167 33.3461 248.616 33.3461C244.55 33.3461 242.129 30.8677 242.129 27.1294C242.129 23.5836 244.571 21.0323 248.4 21.0323C252.176 21.0323 254.597 23.24 254.402 27.6292C254.386 27.9676 254.106 28.2384 253.764 28.2384H246.016V28.2436ZM250.715 25.8537C251.19 25.8537 251.506 25.3539 251.285 24.9426C250.805 24.0418 249.798 23.5888 248.5 23.5888C247.308 23.5888 246.275 24.021 245.658 24.8853C245.368 25.2914 245.684 25.8589 246.19 25.8589H250.715V25.8537Z" fill="#0F172A"/>
<path d="M259.944 17.1534V32.4142C259.944 32.763 259.659 33.0442 259.306 33.0442H257.681C257.328 33.0442 257.043 32.763 257.043 32.4142V17.1534C257.043 16.8046 257.328 16.5234 257.681 16.5234H259.306C259.659 16.5234 259.944 16.8046 259.944 17.1534Z" fill="#0F172A"/>
<path d="M118.302 47.3788H114.568C114.447 47.3788 114.331 47.4517 114.283 47.561L113.693 48.8679C113.656 48.9512 113.566 49.0084 113.476 49.0084H113.244C113.07 49.0084 112.954 48.8314 113.028 48.6752L115.997 42.1409C116.05 42.0315 116.161 41.9586 116.282 41.9586H116.588C116.709 41.9586 116.825 42.0315 116.873 42.1409L119.842 48.6752C119.91 48.8314 119.8 49.0084 119.626 49.0084H119.394C119.299 49.0084 119.214 48.9512 119.177 48.8679L118.587 47.561C118.539 47.4517 118.423 47.3788 118.302 47.3788ZM115.132 46.7331H117.743C117.97 46.7331 118.123 46.504 118.028 46.301L116.725 43.3696C116.614 43.1249 116.261 43.1249 116.15 43.3696L114.847 46.301C114.753 46.504 114.906 46.7331 115.132 46.7331Z" fill="#0F172A"/>
<path d="M129.377 43.8431L129.477 43.9264C129.577 44.0097 129.593 44.1607 129.509 44.2596L129.293 44.5095C129.198 44.6241 129.198 44.7855 129.287 44.9C129.583 45.2645 129.794 45.6862 129.794 46.3579C129.794 47.04 129.498 47.7429 128.886 48.1594C128.697 48.2896 128.707 48.5759 128.908 48.6853C129.461 48.9872 129.762 49.4506 129.762 50.0702C129.762 51.3198 128.507 51.9655 127.172 51.9655C125.838 51.9655 124.778 51.3146 124.636 50.1848C124.62 50.039 124.725 49.9088 124.873 49.9088H125.079C125.195 49.9088 125.295 49.9921 125.311 50.1015C125.421 50.9085 126.276 51.3042 127.167 51.3042C128.095 51.3042 129.066 50.9502 129.066 50.065C129.066 49.1903 128.106 48.7946 127.167 48.7946C125.617 48.7946 124.525 47.8991 124.525 46.3475C124.525 44.7282 125.901 43.9003 127.167 43.9003C127.568 43.9003 128.074 43.9993 128.454 44.1815C128.581 44.244 128.733 44.2127 128.828 44.1034L129.039 43.8587C129.129 43.7702 129.277 43.7598 129.377 43.8431ZM125.226 46.3579C125.226 47.5867 126.081 48.1802 127.172 48.1802C128.333 48.1802 129.113 47.3419 129.113 46.3579C129.113 45.1187 128.164 44.546 127.172 44.546C126.249 44.546 125.226 45.1135 125.226 46.3579Z" fill="#0F172A"/>
<path d="M135.92 46.8058C135.715 46.8058 135.557 46.9984 135.615 47.1911C135.852 47.9929 136.58 48.4563 137.45 48.4563C137.988 48.4563 138.626 48.2689 139.011 47.92C139.101 47.8419 139.232 47.8471 139.322 47.9252L139.428 48.0189C139.533 48.1127 139.533 48.2741 139.428 48.373C138.916 48.8572 138.151 49.1019 137.445 49.1019C135.947 49.1019 134.834 48.1075 134.834 46.5142C134.834 45.0251 135.915 43.9473 137.413 43.9473C138.832 43.9473 139.981 44.7492 139.939 46.4934C139.934 46.6652 139.797 46.8058 139.623 46.8058H135.92ZM138.932 46.2278C139.127 46.2278 139.28 46.0508 139.243 45.8582C139.064 45.0043 138.315 44.5461 137.429 44.5461C136.548 44.5461 135.868 45.0043 135.62 45.8373C135.562 46.03 135.72 46.2278 135.926 46.2278H138.932Z" fill="#0F172A"/>
<path d="M149.439 49.0087C149.307 49.0087 149.201 48.9046 149.201 48.7745V46.2232C149.201 45.1558 148.568 44.5935 147.561 44.5935C146.58 44.6039 145.91 45.3485 145.91 46.3065V48.7797C145.91 48.9098 145.805 49.014 145.673 49.014H145.467C145.335 49.014 145.23 48.9098 145.23 48.7797V44.2759C145.23 44.1457 145.335 44.0416 145.467 44.0416H145.647C145.778 44.0416 145.884 44.1457 145.884 44.2707L145.9 44.8747C146.316 44.2394 146.97 43.9583 147.656 43.9583C148.964 43.9583 149.897 44.7237 149.897 46.2128V48.7745C149.897 48.9046 149.792 49.0087 149.66 49.0087H149.439Z" fill="#0F172A"/>
<path d="M159.499 48.1645C159.599 48.2582 159.599 48.4248 159.488 48.5081C158.992 48.9038 158.407 49.0965 157.8 49.0965C156.361 49.0965 155.179 48.1489 155.179 46.5192C155.179 44.8999 156.334 43.9523 157.8 43.9523C158.391 43.9523 158.924 44.1293 159.404 44.5198C159.509 44.6083 159.509 44.7697 159.414 44.8687L159.303 44.9728C159.214 45.0561 159.077 45.0561 158.982 44.9832C158.634 44.7177 158.233 44.5875 157.811 44.5875C156.74 44.5875 155.865 45.3008 155.865 46.5192C155.865 47.7688 156.751 48.4509 157.8 48.4509C158.238 48.4509 158.681 48.3103 159.04 48.0291C159.14 47.951 159.277 47.951 159.361 48.0395L159.499 48.1645Z" fill="#0F172A"/>
<path d="M169.093 44.3639L166.108 51.2419C166.071 51.3305 165.981 51.3825 165.887 51.3825H165.665C165.491 51.3825 165.375 51.2107 165.443 51.0545L166.308 49.0656C166.34 48.9875 166.34 48.9042 166.308 48.8261L164.473 44.3587C164.41 44.2025 164.526 44.0359 164.695 44.0359H164.942C165.043 44.0359 165.132 44.0984 165.164 44.1869L166.177 46.785L166.446 47.4775C166.551 47.7379 166.925 47.7431 167.031 47.4775L167.305 46.785L168.418 44.1817C168.455 44.0932 168.545 44.0359 168.64 44.0359H168.872C169.046 44.0359 169.162 44.2077 169.093 44.3639Z" fill="#0F172A"/>
<path d="M68.1526 37.4061C66.1216 46.5166 59.0287 51.3083 51.6493 51.8327C43.3325 52.424 34.6408 47.5911 32.3962 37.4061C29.1622 20.3266 49.738 9.22646 62.5231 20.6916C62.2991 20.995 62.0856 21.3086 61.8773 21.6274C60.742 23.2417 59.9817 24.7687 59.4609 26.2032C58.5339 25.1338 57.4143 24.2289 56.1696 23.5451V23.5502C45.4781 17.6531 33.5211 29.761 39.9787 40.2184V40.2853C42.4993 44.46 47.1654 46.3058 51.5868 45.8276C53.0554 45.6734 54.4979 45.2569 55.8207 44.5834C57.6694 43.6477 59.2995 42.2133 60.466 40.2801V40.2956C63.7677 34.8766 60.742 30.4448 65.3248 24.0027C71.095 14.9488 85.1143 13.1853 92.9988 20.7328C93.0821 20.8099 93.1707 20.887 93.254 20.9693C93.2592 20.9744 93.2696 20.9847 93.28 20.9898L90.0096 26.4037C89.0461 25.2417 87.8536 24.2597 86.5256 23.5245V23.5451C78.9535 19.1595 68.7567 24.7636 68.4963 33.3753C68.4911 33.4781 68.4911 33.581 68.4911 33.6889C68.4911 33.7712 68.4911 33.8483 68.4963 33.9306C68.4963 34.0745 68.4964 34.2236 68.4911 34.3676C68.4599 35.4061 68.3505 36.419 68.1526 37.4061ZM47.431 37.2365H57.4976C57.9871 36.1208 58.1433 34.9948 58.2683 33.6324C58.2683 33.6272 58.2683 33.6221 58.2683 33.617C58.2996 32.7378 58.3204 31.8535 58.4662 30.9897H51.1233L47.431 37.2365ZM95.8422 24.9898L91.9052 31.4782C91.9312 31.5964 91.9573 31.7198 91.9729 31.8175C91.9781 31.8483 91.9833 31.874 91.9885 31.8946C91.9937 31.91 91.9937 31.9203 91.9937 31.9306V31.9357C91.9937 31.946 91.9989 31.9563 91.9989 31.9614C91.9989 31.9717 92.0041 31.9769 92.0041 31.9769C94.1237 43.7557 78.9327 50.6759 71.1471 42.1516C70.3503 44.1361 69.314 45.951 68.0537 47.5757C79.5368 57.627 98.3576 49.4677 98.2795 34.0026C98.2899 30.7121 97.3994 27.6376 95.8422 24.9898Z" fill="url(#paint1_linear_5553_677)"/>
<defs>
<linearGradient id="paint0_linear_5553_677" x1="0.0561534" y1="34" x2="291.944" y2="34" gradientUnits="userSpaceOnUse">
<stop stop-color="#1ED2FE"/>
<stop offset="1" stop-color="#1248FA"/>
</linearGradient>
<linearGradient id="paint1_linear_5553_677" x1="65.1731" y1="55.3278" x2="65.1731" y2="16.8982" gradientUnits="userSpaceOnUse">
<stop stop-color="#123EF9"/>
<stop offset="0.1299" stop-color="#1146F9"/>
<stop offset="0.3262" stop-color="#0E5AFA"/>
<stop offset="0.5646" stop-color="#0A7CFC"/>
<stop offset="0.8336" stop-color="#04ABFE"/>
<stop offset="1" stop-color="#00CCFF"/>
</linearGradient>
</defs>
</svg>
