<svg width="20" height="20" viewBox="0 0 20 20" fill="none" xmlns="http://www.w3.org/2000/svg">
<path d="M10.103 12.7778L16.81 6.07979C16.8751 6.01433 16.9527 5.96261 17.0382 5.92769C17.1236 5.89277 17.2152 5.87535 17.3075 5.87647C17.3999 5.87759 17.491 5.89722 17.5756 5.9342C17.6602 5.97119 17.7365 6.02478 17.8 6.09179C17.9301 6.22885 18.0016 6.41125 17.9994 6.60022C17.9972 6.78919 17.9213 6.96984 17.788 7.10379L10.585 14.2968C10.5204 14.3619 10.4434 14.4134 10.3586 14.4484C10.2739 14.4834 10.183 14.5011 10.0912 14.5005C9.99953 14.5 9.90885 14.4811 9.8245 14.4451C9.74016 14.4091 9.66383 14.3566 9.6 14.2908L2.205 6.71979C2.07412 6.58425 2.00098 6.4032 2.00098 6.21479C2.00098 6.02637 2.07412 5.84532 2.205 5.70979C2.26931 5.64356 2.34626 5.59091 2.43129 5.55496C2.51631 5.51901 2.60769 5.50049 2.7 5.50049C2.79231 5.50049 2.88369 5.51901 2.96872 5.55496C3.05374 5.59091 3.13069 5.64356 3.195 5.70979L10.103 12.7778Z" fill="#26404C"/>
</svg>
