<svg width="10" height="7" viewBox="0 0 10 7" fill="none" xmlns="http://www.w3.org/2000/svg">
<path d="M5.26106 5.58981L8.98734 1.8532C9.04609 1.79444 9.0791 1.71475 9.0791 1.63166C9.0791 1.54856 9.04609 1.46888 8.98734 1.41013C8.92858 1.35137 8.84889 1.31836 8.7658 1.31836C8.68271 1.31836 8.60302 1.35137 8.54426 1.41013L5.03952 4.92446L1.53478 1.41013C1.47603 1.35137 1.39634 1.31836 1.31325 1.31836C1.23015 1.31836 1.15046 1.35137 1.09171 1.41013C1.03295 1.46888 0.999943 1.54856 0.999943 1.63166C0.999943 1.71475 1.03295 1.79444 1.09171 1.8532L4.81798 5.58981C4.84706 5.61893 4.8816 5.64203 4.91961 5.65779C4.95762 5.67355 4.99837 5.68166 5.03952 5.68166C5.08067 5.68166 5.12142 5.67355 5.15943 5.65779C5.19745 5.64203 5.23198 5.61893 5.26106 5.58981Z" fill="#26404C" stroke="#26404C"/>
</svg>
