<svg width="25" height="16" viewBox="0 0 25 16" fill="none" xmlns="http://www.w3.org/2000/svg">
<path fill-rule="evenodd" clip-rule="evenodd" d="M-3.49691e-07 8C-3.59994e-07 7.76429 0.0940622 7.53822 0.261495 7.37155C0.428927 7.20487 0.656014 7.11124 0.8928 7.11124L21.9504 7.11124L16.3311 1.51913C16.1635 1.35225 16.0693 1.1259 16.0693 0.889887C16.0693 0.653874 16.1635 0.427528 16.3311 0.260641C16.4987 0.093755 16.7261 2.22552e-07 16.9632 2.12189e-07C17.2003 2.01826e-07 17.4277 0.093755 17.5953 0.260641L24.7377 7.37075C24.8208 7.45331 24.8868 7.55139 24.9318 7.65937C24.9768 7.76734 25 7.8831 25 8C25 8.1169 24.9768 8.23266 24.9318 8.34063C24.8868 8.44861 24.8209 8.54669 24.7377 8.62924L17.5953 15.7394C17.4277 15.9062 17.2003 16 16.9632 16C16.7261 16 16.4987 15.9062 16.3311 15.7394C16.1635 15.5725 16.0693 15.3461 16.0693 15.1101C16.0693 14.8741 16.1635 14.6478 16.3311 14.4809L21.9504 8.88876L0.8928 8.88876C0.656014 8.88876 0.428927 8.79513 0.261495 8.62845C0.0940622 8.46177 -3.39388e-07 8.23572 -3.49691e-07 8Z" fill="#fff"/>
</svg>
