<svg width="15" height="14" viewBox="0 0 15 14" fill="none" xmlns="http://www.w3.org/2000/svg">
<path d="M14.374 9.64613L13.0328 8.39463C12.6335 8.0252 12.0947 7.81693 11.5324 7.81473C10.9701 7.81253 10.4294 8.01656 10.0269 8.38285C9.81208 8.58455 9.52864 8.71005 9.22536 8.73773C8.92208 8.76541 8.61794 8.69354 8.36534 8.53451C7.36694 7.91401 6.50911 7.11631 5.8407 6.18685C5.67348 5.94855 5.59937 5.66376 5.63084 5.38043C5.66231 5.09711 5.79744 4.83256 6.01348 4.63132C6.40282 4.25525 6.61886 3.75186 6.61532 3.22899C6.61178 2.70611 6.38894 2.20531 5.99454 1.83386L4.65333 0.582366C4.25241 0.209421 3.70939 0 3.14328 0C2.57717 0 2.03414 0.209421 1.63323 0.582366L1.24822 0.942354C-0.75256 2.82107 -0.601871 6.76254 3.5772 10.6606C6.09711 13.0163 8.63358 13.9976 10.6904 13.9976C11.2958 14.0164 11.8992 13.9226 12.4654 13.7217C13.0315 13.5207 13.5492 13.2166 13.9882 12.8271L14.374 12.4671C14.7748 12.093 15 11.5857 15 11.0566C15 10.5276 14.7748 10.0203 14.374 9.64613Z" fill="white"/>
</svg>
