<svg width="15" height="15" viewBox="0 0 15 15" fill="none" xmlns="http://www.w3.org/2000/svg">
<path fill-rule="evenodd" clip-rule="evenodd" d="M7.5 1C11.0899 1 14 3.91015 14 7.5C14 11.0899 11.0899 14 7.5 14C3.91015 14 1 11.0899 1 7.5C1 3.91015 3.91015 1 7.5 1ZM15 7.5C15 3.35786 11.6421 0 7.5 0C3.35786 0 0 3.35786 0 7.5C0 11.6421 3.35786 15 7.5 15C11.6421 15 15 11.6421 15 7.5Z" fill="#26404C"/>
<path fill-rule="evenodd" clip-rule="evenodd" d="M7.5 4.375C7.22386 4.375 7 4.59886 7 4.875V8.375C7 8.65114 7.22386 8.875 7.5 8.875H10.5625C10.8386 8.875 11.0625 8.65114 11.0625 8.375C11.0625 8.09886 10.8386 7.875 10.5625 7.875H8V4.875C8 4.59886 7.77614 4.375 7.5 4.375Z" fill="#26404C"/>
</svg>
