<svg width="22" height="20" viewBox="0 0 22 20" fill="none" xmlns="http://www.w3.org/2000/svg">
<path d="M3.78125 1.30158C3.2591 1.30158 2.75835 1.50728 2.38913 1.87342C2.01992 2.23956 1.8125 2.73615 1.8125 3.25395V12.365C1.8125 12.8828 2.01992 13.3794 2.38913 13.7456C2.75835 14.1117 3.2591 14.3174 3.78125 14.3174H6.1875V18.479C6.1875 18.6551 6.38875 18.7584 6.534 18.6543L12.596 14.3174H18.2188C18.7409 14.3174 19.2417 14.1117 19.6109 13.7456C19.9801 13.3794 20.1875 12.8828 20.1875 12.365V3.25395C20.1875 2.73615 19.9801 2.23956 19.6109 1.87342C19.2417 1.50728 18.7409 1.30158 18.2188 1.30158H3.78125ZM0.5 3.25395C0.5 2.39095 0.845702 1.5633 1.46106 0.953061C2.07641 0.342826 2.91101 0 3.78125 0H18.2188C19.089 0 19.9236 0.342826 20.5389 0.953061C21.1543 1.5633 21.5 2.39095 21.5 3.25395V12.365C21.5 13.228 21.1543 14.0557 20.5389 14.6659C19.9236 15.2762 19.089 15.619 18.2188 15.619H13.0204L7.30225 19.7103C6.289 20.4348 4.875 19.7172 4.875 18.4781V15.619H3.78125C2.91101 15.619 2.07641 15.2762 1.46106 14.6659C0.845702 14.0557 0.5 13.228 0.5 12.365V3.25395Z" fill="white"/>
</svg>
