<svg width="13" height="12" viewBox="0 0 13 12" fill="none" xmlns="http://www.w3.org/2000/svg">
<path d="M2.375 0.780949C2.07663 0.780949 1.79048 0.904367 1.5795 1.12405C1.36853 1.34374 1.25 1.64169 1.25 1.95237V7.41902C1.25 7.7297 1.36853 8.02765 1.5795 8.24734C1.79048 8.46702 2.07663 8.59044 2.375 8.59044H3.75V11.0874C3.75 11.1931 3.865 11.255 3.948 11.1926L7.412 8.59044H10.625C10.9234 8.59044 11.2095 8.46702 11.4205 8.24734C11.6315 8.02765 11.75 7.7297 11.75 7.41902V1.95237C11.75 1.64169 11.6315 1.34374 11.4205 1.12405C11.2095 0.904367 10.9234 0.780949 10.625 0.780949H2.375ZM0.5 1.95237C0.5 1.43457 0.697544 0.937978 1.04917 0.571837C1.40081 0.205696 1.87772 0 2.375 0H10.625C11.1223 0 11.5992 0.205696 11.9508 0.571837C12.3025 0.937978 12.5 1.43457 12.5 1.95237V7.41902C12.5 7.93682 12.3025 8.43341 11.9508 8.79955C11.5992 9.16569 11.1223 9.37139 10.625 9.37139H7.6545L4.387 11.8262C3.808 12.2609 3 11.8303 3 11.0869V9.37139H2.375C1.87772 9.37139 1.40081 9.16569 1.04917 8.79955C0.697544 8.43341 0.5 7.93682 0.5 7.41902V1.95237Z" fill="#26404C"/>
</svg>
