<svg width="32" height="32" viewBox="0 0 32 32" fill="none" xmlns="http://www.w3.org/2000/svg">
<path d="M9.33333 21.3334C6.38781 21.3334 4 18.9456 4 16.0001C4 13.4573 5.77942 11.3302 8.16094 10.796C8.05559 10.3253 8 9.83587 8 9.33341C8 5.65152 10.9848 2.66675 14.6667 2.66675C17.8924 2.66675 20.5831 4.95775 21.2002 8.00139C21.2445 8.00052 21.2889 8.00008 21.3333 8.00008C25.0152 8.00008 28 10.9848 28 14.6667C28 17.892 25.7097 20.5824 22.6667 21.2001M20 17.3334L16 13.3334M16 13.3334L12 17.3334M16 13.3334L16 29.3334" stroke="#26404C" stroke-width="2" stroke-linecap="round" stroke-linejoin="round"/>
</svg>
