<svg width="32" height="32" viewBox="0 0 32 32" fill="none" xmlns="http://www.w3.org/2000/svg">
<g clip-path="url(#clip0_3954_5479)">
<path d="M17.1436 31.989C19.9074 32.0027 22.6459 31.4864 25.1976 30.4707C27.7493 29.4549 30.0623 27.9602 32 26.0749V12.6601L17.231 19.3706H24.5931V22.0534C22.543 23.6626 19.9703 24.5374 17.3184 24.5271C16.1123 24.5751 14.9093 24.3755 13.7905 23.9416C12.6718 23.5077 11.6631 22.8496 10.8325 22.0115C9.22411 20.382 8.34446 18.216 8.38093 15.9751C8.35282 14.8601 8.55943 13.7511 8.98847 12.7141C9.4175 11.6771 10.0602 10.7332 10.8783 9.93863C11.7166 9.12739 12.7224 8.49215 13.8316 8.07344C14.9408 7.65472 16.1291 7.46171 17.3206 7.50672C20.1474 7.50629 22.8704 8.52584 24.9459 10.3618L30.1613 4.53437C26.6439 1.56571 22.0994 -0.0476808 17.409 0.00703055C12.7985 -0.121067 8.32309 1.50565 4.96475 4.53029C3.34053 6.01254 2.06 7.80474 1.20617 9.79073C0.352337 11.7767 -0.05575 13.9122 0.00835916 16.0587C-0.0631058 18.1783 0.324293 20.2891 1.14623 22.2586C1.96817 24.2281 3.20689 26.0138 4.78461 27.5035C6.42716 29.0028 8.36701 30.1722 10.4897 30.9426C12.6124 31.713 14.8748 32.0688 17.1436 31.989Z" fill="#FF9040"/>
</g>
<defs>
<clipPath id="clip0_3954_5479">
<rect width="32" height="32" fill="white"/>
</clipPath>
</defs>
</svg>
