<svg width="16" height="16" viewBox="0 0 16 16" fill="none" xmlns="http://www.w3.org/2000/svg">
<g clip-path="url(#clip0_3954_5483)">
<path d="M8.57181 15.9945C9.95368 16.0014 11.323 15.7432 12.5988 15.2353C13.8746 14.7274 15.0311 13.9801 16 13.0375V6.33007L8.61551 9.6853H12.2966V11.0267C11.2715 11.8313 9.98517 12.2687 8.65921 12.2635C8.05613 12.2876 7.45466 12.1877 6.89527 11.9708C6.33589 11.7538 5.83157 11.4248 5.41624 11.0058C4.61206 10.191 4.17223 9.108 4.19046 7.98755C4.17641 7.43006 4.27972 6.87557 4.49423 6.35706C4.70875 5.83854 5.0301 5.3666 5.43916 4.96932C5.85831 4.56369 6.36122 4.24608 6.91581 4.03672C7.47041 3.82736 8.06453 3.73086 8.66028 3.75336C10.0737 3.75315 11.4352 4.26292 12.473 5.1809L15.0807 2.26719C13.3219 0.782855 11.0497 -0.0238404 8.70451 0.00351528C6.39924 -0.0605334 4.16155 0.752827 2.48238 2.26515C1.67026 3.00627 1.03 3.90237 0.603085 4.89536C0.176168 5.88836 -0.027875 6.95609 0.00417958 8.02935C-0.0315529 9.08914 0.162147 10.1445 0.573115 11.1293C0.984084 12.1141 1.60345 13.0069 2.39231 13.7517C3.21358 14.5014 4.18351 15.0861 5.24484 15.4713C6.30618 15.8565 7.43742 16.0344 8.57181 15.9945Z" fill="#FF9040"/>
</g>
<defs>
<clipPath id="clip0_3954_5483">
<rect width="16" height="16" fill="white"/>
</clipPath>
</defs>
</svg>
