<svg width="20" height="20" viewBox="0 0 20 20" fill="none" xmlns="http://www.w3.org/2000/svg">
<path d="M10.0004 1.60742C11.8475 1.60742 13.6189 2.34116 14.9249 3.64721C16.231 4.95327 16.9647 6.72466 16.9647 8.57171C16.9647 11.5146 14.8968 14.7217 10.8147 18.2274C10.5877 18.4224 10.2983 18.5295 9.99908 18.5292C9.69985 18.529 9.41063 18.4214 9.18399 18.226L8.91399 17.9917C5.01256 14.5774 3.03613 11.4489 3.03613 8.57171C3.03613 6.72466 3.76987 4.95327 5.07593 3.64721C6.38198 2.34116 8.15338 1.60742 10.0004 1.60742ZM10.0004 5.89314C9.29002 5.89314 8.60871 6.17534 8.10638 6.67767C7.60405 7.18 7.32185 7.86131 7.32185 8.57171C7.32185 9.28211 7.60405 9.96341 8.10638 10.4657C8.60871 10.9681 9.29002 11.2503 10.0004 11.2503C10.7108 11.2503 11.3921 10.9681 11.8945 10.4657C12.3968 9.96341 12.679 9.28211 12.679 8.57171C12.679 7.86131 12.3968 7.18 11.8945 6.67767C11.3921 6.17534 10.7108 5.89314 10.0004 5.89314Z" fill="white"/>
</svg>
