<svg width="30" height="36" viewBox="0 0 30 36" fill="none" xmlns="http://www.w3.org/2000/svg">
<path d="M14.625 0C18.5038 0 22.2237 1.54084 24.9664 4.28356C27.7092 7.02628 29.25 10.7462 29.25 14.625C29.25 20.805 24.9075 27.54 16.335 34.902C15.8583 35.3115 15.2506 35.5364 14.6222 35.5358C13.9938 35.5353 13.3864 35.3093 12.9105 34.899L12.3435 34.407C4.1505 27.237 0 20.667 0 14.625C0 10.7462 1.54084 7.02628 4.28356 4.28356C7.02628 1.54084 10.7462 0 14.625 0ZM14.625 9C13.1332 9 11.7024 9.59263 10.6475 10.6475C9.59263 11.7024 9 13.1332 9 14.625C9 16.1168 9.59263 17.5476 10.6475 18.6025C11.7024 19.6574 13.1332 20.25 14.625 20.25C16.1168 20.25 17.5476 19.6574 18.6025 18.6025C19.6574 17.5476 20.25 16.1168 20.25 14.625C20.25 13.1332 19.6574 11.7024 18.6025 10.6475C17.5476 9.59263 16.1168 9 14.625 9Z" fill="#FF9040"/>
</svg>
