<svg width="14" height="12" viewBox="0 0 14 12" fill="none" xmlns="http://www.w3.org/2000/svg">
<path d="M10.1818 0C8.84545 0 7.68345 0.604389 7 1.61723C6.31655 0.604389 5.15455 0 3.81818 0C2.8059 0.00118236 1.83541 0.405003 1.11962 1.12288C0.403829 1.84075 0.00117893 2.81406 0 3.82928C0 5.69287 1.15818 7.6324 3.44273 9.59299C4.48958 10.4876 5.62037 11.2784 6.81927 11.9544C6.87483 11.9843 6.93693 12 7 12C7.06307 12 7.12517 11.9843 7.18073 11.9544C8.37963 11.2784 9.51042 10.4876 10.5573 9.59299C12.8418 7.6324 14 5.69287 14 3.82928C13.9988 2.81406 13.5962 1.84075 12.8804 1.12288C12.1646 0.405003 11.1941 0.00118236 10.1818 0ZM7 11.1758C5.95573 10.5714 0.763636 7.38541 0.763636 3.82928C0.764479 3.01707 1.08657 2.23837 1.65922 1.66405C2.23188 1.08973 3.00832 0.766702 3.81818 0.765857C5.10873 0.765857 6.19245 1.45704 6.64682 2.57009C6.67558 2.64032 6.72452 2.70039 6.78741 2.74267C6.85029 2.78494 6.92429 2.80752 7 2.80752C7.07571 2.80752 7.14971 2.78494 7.21259 2.74267C7.27548 2.70039 7.32442 2.64032 7.35318 2.57009C7.80755 1.45704 8.89127 0.765857 10.1818 0.765857C10.9917 0.766702 11.7681 1.08973 12.3408 1.66405C12.9134 2.23837 13.2355 3.01707 13.2364 3.82928C13.2364 7.38541 8.04427 10.5714 7 11.1758Z" fill="#26404C"/>
</svg>
