<svg width="24" height="20" viewBox="0 0 24 20" fill="none" xmlns="http://www.w3.org/2000/svg">
<path d="M17.4545 0C15.1636 0 13.1716 1.00731 12 2.69539C10.8284 1.00731 8.83636 0 6.54545 0C4.81011 0.0019706 3.14642 0.675006 1.91935 1.87146C0.692279 3.06792 0.00202103 4.6901 0 6.38214C0 9.48812 1.98545 12.7207 5.90182 15.9883C7.69642 17.4794 9.63492 18.7974 11.6902 19.924C11.7854 19.9739 11.8919 20 12 20C12.1081 20 12.2146 19.9739 12.3098 19.924C14.3651 18.7974 16.3036 17.4794 18.0982 15.9883C22.0145 12.7207 24 9.48812 24 6.38214C23.998 4.6901 23.3077 3.06792 22.0806 1.87146C20.8536 0.675006 19.1899 0.0019706 17.4545 0ZM12 18.6263C10.2098 17.619 1.30909 12.309 1.30909 6.38214C1.31053 5.02845 1.86269 3.73061 2.84438 2.77341C3.82608 1.81621 5.15713 1.27784 6.54545 1.27643C8.75782 1.27643 10.6156 2.4284 11.3945 4.28348C11.4439 4.40053 11.5277 4.50065 11.6356 4.57111C11.7434 4.64157 11.8702 4.67919 12 4.67919C12.1298 4.67919 12.2566 4.64157 12.3644 4.57111C12.4723 4.50065 12.5561 4.40053 12.6055 4.28348C13.3844 2.4284 15.2422 1.27643 17.4545 1.27643C18.8429 1.27784 20.1739 1.81621 21.1556 2.77341C22.1373 3.73061 22.6895 5.02845 22.6909 6.38214C22.6909 12.309 13.7902 17.619 12 18.6263Z" fill="white"/>
</svg>
