<svg width="14" height="14" viewBox="0 0 14 14" fill="none" xmlns="http://www.w3.org/2000/svg">
<path d="M2.95589 4.55469H0.338867V14.0048H2.95589V4.55469Z" fill="white"/>
<path d="M11.7002 4.5562C11.0036 4.31221 10.2469 4.29694 9.5409 4.51262C8.83492 4.7283 8.21676 5.16361 7.77695 5.75479V4.5562H5.16895V14.0063H7.77695V9.02094C7.76225 8.3892 7.99395 7.77639 8.42332 7.31145C8.54567 7.16845 8.6962 7.05204 8.86557 6.96944C9.03494 6.88684 9.21953 6.83981 9.4079 6.83127C9.61941 6.82724 9.82956 6.86584 10.0257 6.94475C10.2219 7.02366 10.4001 7.14126 10.5496 7.29048C10.8735 7.62808 11.0505 8.07965 11.0418 8.54675V14.0086H13.9926V8.15496C14.0669 7.38636 13.8818 6.61502 13.4666 5.96315C13.0513 5.31127 12.4297 4.81614 11.7002 4.5562Z" fill="white"/>
<path d="M1.64642 3.24935C2.54924 3.24935 3.28112 2.52021 3.28112 1.62077C3.28112 0.721328 2.54924 -0.0078125 1.64642 -0.0078125C0.7436 -0.0078125 0.0117188 0.721328 0.0117188 1.62077C0.0117188 2.52021 0.7436 3.24935 1.64642 3.24935Z" fill="white"/>
</svg>
