<svg width="201" height="62" viewBox="0 0 201 62" fill="none" xmlns="http://www.w3.org/2000/svg">
<path d="M55.8659 12.16C56.6717 12.1758 57.4723 12.0274 58.2192 11.7236C58.966 11.4199 59.6436 10.9672 60.2107 10.3931C60.7778 9.81895 61.2226 9.13531 61.5182 8.38362C61.8138 7.63193 61.9541 6.82787 61.9304 6.02022C61.9414 5.22161 61.7916 4.42899 61.49 3.68977C61.1883 2.95056 60.741 2.27995 60.1748 1.71807C59.6086 1.1562 58.9352 0.714612 58.1948 0.419738C57.4545 0.124863 56.6623 -0.0172388 55.8659 0.00193838C55.0663 -0.0184633 54.2708 0.12236 53.5265 0.416046C52.7822 0.709733 52.1044 1.1503 51.5332 1.71161C50.962 2.27292 50.5091 2.94354 50.2013 3.68367C49.8935 4.4238 49.7372 5.21836 49.7416 6.02022C49.7145 6.83382 49.8544 7.64433 50.1526 8.40151C50.4509 9.15869 50.901 9.8464 51.4752 10.422C52.0493 10.9977 52.7353 11.4489 53.4906 11.7479C54.2459 12.0468 55.0543 12.1871 55.8659 12.16ZM61.209 15.1098H50.5827V48.3326H61.209V15.1098ZM84.084 49.2359C86.4847 49.3344 88.8799 48.9365 91.1206 48.0669C93.3613 47.1972 95.3994 45.8744 97.108 44.1809C98.753 42.5595 100.049 40.6175 100.917 38.4746C101.784 36.3316 102.204 34.0333 102.152 31.7212C102.204 29.4092 101.784 27.1108 100.917 24.9679C100.049 22.825 98.753 20.883 97.108 19.2616C95.4108 17.5472 93.3755 16.2067 91.1321 15.3257C88.8888 14.4447 86.4867 14.0426 84.0796 14.1451C81.6731 14.0482 79.2727 14.4529 77.0301 15.3336C74.7876 16.2143 72.7517 17.5518 71.0511 19.2616C69.426 20.8947 68.147 22.8402 67.2908 24.9813C66.4346 27.1225 66.0189 29.415 66.0687 31.7212C66.0189 34.0275 66.4346 36.32 67.2908 38.4611C68.147 40.6023 69.426 42.5478 71.0511 44.1809C72.7641 45.8709 74.8042 47.1914 77.0456 48.0608C79.2871 48.9302 81.6824 49.3301 84.084 49.2359ZM84.084 39.3045C83.1022 39.3261 82.1264 39.1449 81.2175 38.7722C80.3086 38.3994 79.4859 37.8431 78.8007 37.1378C78.0945 36.4155 77.5394 35.5589 77.1683 34.6184C76.7971 33.6779 76.6173 32.6724 76.6396 31.6612C76.618 30.6769 76.7987 29.6987 77.1705 28.7875C77.5423 27.8763 78.0972 27.0516 78.8007 26.3647C79.4743 25.6401 80.2934 25.067 81.2041 24.6832C82.1148 24.2994 83.0964 24.1135 84.084 24.138C85.0658 24.1163 86.0415 24.2975 86.9504 24.6703C87.8593 25.043 88.682 25.5994 89.3672 26.3046C90.091 26.9917 90.6627 27.8236 91.0453 28.7464C91.4279 29.6691 91.6129 30.6622 91.5882 31.6612C91.6105 32.6724 91.4307 33.6779 91.0595 34.6184C90.6884 35.5589 90.1333 36.4155 89.4271 37.1378C88.7305 37.8449 87.8974 38.4021 86.9787 38.7754C86.06 39.1487 85.075 39.3302 84.084 39.3089V39.3045ZM127.308 14.271C123.526 14.271 120.344 15.5886 107.315 15.1142V62H117.942V45.5643C120.495 47.9541 123.878 49.25 127.37 49.1758C129.543 49.2246 131.7 48.7974 133.691 47.9241C135.682 47.0507 137.459 45.7523 138.898 44.1194C141.964 40.7069 143.617 36.2513 143.521 31.6597C143.659 27.1085 142.022 22.6825 138.958 19.3216C137.502 17.6772 135.706 16.3725 133.693 15.4992C131.681 14.6258 129.502 14.2051 127.311 14.2666L127.308 14.271ZM132.711 31.7856C132.738 33.7961 131.984 35.7385 130.609 37.2022C129.931 37.9371 129.103 38.5165 128.18 38.9008C127.258 39.2851 126.264 39.4652 125.266 39.4289C124.26 39.4596 123.259 39.2772 122.328 38.8935C121.397 38.5098 120.557 37.9335 119.863 37.2022C118.488 35.7385 117.735 33.7961 117.762 31.7856C117.73 30.7834 117.901 29.785 118.265 28.851C118.629 27.917 119.179 27.0669 119.881 26.3522C120.582 25.6375 121.422 25.0731 122.347 24.6933C123.273 24.3134 124.266 24.126 125.266 24.1424C126.263 24.1267 127.253 24.3149 128.175 24.6955C129.097 25.0761 129.932 25.6411 130.629 26.3559C131.326 27.0708 131.87 27.9206 132.228 28.8534C132.587 29.7861 132.752 30.7824 132.714 31.7813L132.711 31.7856ZM154.204 12.16C155.01 12.1758 155.811 12.0274 156.557 11.7236C157.304 11.4199 157.982 10.9672 158.549 10.3931C159.116 9.81895 159.561 9.13531 159.857 8.38362C160.152 7.63193 160.292 6.82787 160.269 6.02022C160.28 5.22161 160.13 4.42899 159.828 3.68977C159.527 2.95056 159.079 2.27995 158.513 1.71807C157.947 1.1562 157.274 0.714612 156.533 0.419738C155.793 0.124863 155.001 -0.0172388 154.204 0.00193838C153.405 -0.0184633 152.609 0.12236 151.865 0.416046C151.121 0.709733 150.443 1.1503 149.871 1.71161C149.3 2.27292 148.847 2.94354 148.54 3.68367C148.232 4.4238 148.075 5.21836 148.08 6.02022C148.053 6.83382 148.193 7.64433 148.491 8.40151C148.789 9.15869 149.239 9.8464 149.813 10.422C150.388 10.9977 151.074 11.4489 151.829 11.7479C152.584 12.0468 153.393 12.1871 154.204 12.16ZM159.547 15.1098H148.921V48.3326H159.547V15.1098ZM182.424 49.2359C184.825 49.3349 187.221 48.937 189.463 48.0671C191.704 47.1971 193.743 45.8738 195.452 44.1794C197.097 42.558 198.393 40.616 199.261 38.4731C200.128 36.3302 200.549 34.0318 200.496 31.7198C200.549 29.4077 200.128 27.1093 199.261 24.9664C198.393 22.8235 197.097 20.8815 195.452 19.2601C193.755 17.5457 191.72 16.2052 189.476 15.3242C187.233 14.4432 184.831 14.0411 182.424 14.1436C180.017 14.0468 177.617 14.4515 175.374 15.3322C173.132 16.2128 171.096 17.5503 169.395 19.2601C167.77 20.8931 166.491 22.8387 165.635 24.9798C164.779 27.121 164.363 29.4135 164.413 31.7198C164.362 34.0259 164.777 36.3186 165.632 38.46C166.488 40.6014 167.766 42.5473 169.391 44.1809C171.104 45.8709 173.144 47.1914 175.385 48.0608C177.627 48.9302 180.022 49.3301 182.424 49.2359ZM182.424 39.3045C181.442 39.3261 180.466 39.1449 179.557 38.7722C178.648 38.3994 177.826 37.8431 177.14 37.1378C176.434 36.4155 175.879 35.5589 175.508 34.6184C175.137 33.6779 174.957 32.6724 174.979 31.6612C174.958 30.6769 175.138 29.6987 175.51 28.7875C175.882 27.8763 176.437 27.0516 177.14 26.3647C177.814 25.6401 178.633 25.067 179.544 24.6832C180.455 24.2994 181.436 24.1135 182.424 24.138C183.406 24.1163 184.381 24.2975 185.29 24.6703C186.199 25.043 187.022 25.5994 187.707 26.3046C188.431 26.9917 189.002 27.8236 189.385 28.7464C189.768 29.6691 189.953 30.6622 189.928 31.6612C189.95 32.6724 189.77 33.6779 189.399 34.6184C189.028 35.5589 188.473 36.4155 187.767 37.1378C187.07 37.8449 186.237 38.4021 185.318 38.7754C184.4 39.1487 183.415 39.3302 182.424 39.3089V39.3045Z" fill="white"/>
<path d="M23.9866 48.9956C27.7729 49.0152 31.5247 48.274 35.0205 46.8156C38.5162 45.3573 41.685 43.2114 44.3397 40.5047V21.245L24.1063 30.8793H34.1923V34.7309C31.3837 37.0413 27.8592 38.2972 24.2261 38.2824C22.5736 38.3514 20.9256 38.0648 19.3929 37.4418C17.8602 36.8188 16.4784 35.874 15.3404 34.6709C13.1369 32.3313 11.9318 29.2216 11.9818 26.0043C11.9433 24.4036 12.2263 22.8114 12.8141 21.3225C13.4019 19.8337 14.2824 18.4785 15.4032 17.3378C16.5516 16.1731 17.9296 15.261 19.4492 14.6599C20.9688 14.0587 22.5966 13.7816 24.229 13.8463C28.1017 13.8456 31.8322 15.3094 34.6757 17.9453L41.8207 9.57886C37.0018 5.31674 30.7759 3.00039 24.3502 3.07894C18.0338 2.89503 11.9026 5.23052 7.30166 9.573C5.07649 11.7011 3.32218 14.2741 2.15244 17.1254C0.982698 19.9767 0.423623 23.0426 0.511452 26.1244C0.413546 29.1674 0.944279 32.1979 2.07032 35.0256C3.19637 37.8532 4.89341 40.4169 7.05488 42.5557C9.30515 44.7082 11.9627 46.3871 14.8708 47.4931C17.7788 48.5992 20.8784 49.1101 23.9866 48.9956Z" fill="#FF9040"/>
</svg>
