<svg width="18" height="14" viewBox="0 0 18 14" fill="none" xmlns="http://www.w3.org/2000/svg">
<path d="M15 0.25H3C2.20508 0.252374 1.4434 0.569207 0.881302 1.1313C0.319207 1.6934 0.00237409 2.45508 0 3.25L0 10.75C0.00237409 11.5449 0.319207 12.3066 0.881302 12.8687C1.4434 13.4308 2.20508 13.7476 3 13.75H15C15.7949 13.7476 16.5566 13.4308 17.1187 12.8687C17.6808 12.3066 17.9976 11.5449 18 10.75V3.25C17.9976 2.45508 17.6808 1.6934 17.1187 1.1313C16.5566 0.569207 15.7949 0.252374 15 0.25ZM16.2 4.6L10.275 8.575C9.89105 8.81147 9.45084 8.94094 9 8.95C8.54916 8.94094 8.10895 8.81147 7.725 8.575L1.8 4.6C1.64986 4.47432 1.55148 4.29758 1.52379 4.10374C1.4961 3.90991 1.54105 3.71269 1.65 3.55C1.77568 3.39986 1.95242 3.30148 2.14626 3.27379C2.34009 3.2461 2.53731 3.29105 2.7 3.4L8.625 7.375C8.74998 7.44868 8.89242 7.48754 9.0375 7.48754C9.18258 7.48754 9.32502 7.44868 9.45 7.375L15.375 3.4C15.4578 3.34292 15.5514 3.30336 15.65 3.28375C15.7486 3.26414 15.8502 3.2649 15.9485 3.28597C16.0469 3.30704 16.1399 3.34798 16.2218 3.40628C16.3037 3.46458 16.3729 3.53901 16.425 3.625C16.5007 3.78951 16.5196 3.97447 16.4789 4.1509C16.4382 4.32734 16.3401 4.48528 16.2 4.6Z" fill="white"/>
</svg>
