<svg width="16" height="16" viewBox="0 0 16 16" fill="none" xmlns="http://www.w3.org/2000/svg">
<path d="M8.19176 16C5.9165 16 3.98222 15.2011 2.38892 13.6032C0.796307 12.0059 0 10.0664 0 7.78458C0 6.09358 0.48229 4.54086 1.44687 3.12644C2.41145 1.71202 3.78015 0.694677 5.55299 0.0744134C5.76188 0.00115926 5.94483 -0.0180103 6.10183 0.0169052C6.25953 0.0511361 6.38957 0.119256 6.49197 0.221264C6.59436 0.323272 6.65956 0.453349 6.68754 0.611496C6.71622 0.771012 6.69505 0.938402 6.62406 1.11366C6.49163 1.44023 6.39537 1.77261 6.3353 2.11081C6.27591 2.44901 6.24621 2.79988 6.24621 3.16341C6.24621 4.99339 6.8821 6.54645 8.15387 7.82258C9.42632 9.09802 10.9749 9.73574 12.7996 9.73574C13.2761 9.73574 13.7123 9.68508 14.1083 9.58376C14.5042 9.48244 14.8411 9.40028 15.1189 9.3373C15.267 9.30991 15.4036 9.31333 15.5285 9.34757C15.6514 9.38248 15.7504 9.44273 15.8254 9.52831C15.9046 9.61388 15.9582 9.71931 15.9862 9.8446C16.0149 9.9692 15.9988 10.1119 15.9381 10.2728C15.45 11.9501 14.4933 13.3242 13.0679 14.3949C11.6432 15.465 10.0178 16 8.19176 16Z" fill="#26404C"/>
</svg>
