<svg width="66" height="66" viewBox="0 0 66 66" fill="none" xmlns="http://www.w3.org/2000/svg">
<rect width="66.0013" height="65.9997" rx="32.9998" fill="url(#paint0_linear_5327_421)"/>
<path d="M46.7939 41.3475L33.4967 47.8989C33.3399 47.9654 33.1711 47.9997 33.0005 47.9997C32.8299 47.9997 32.6611 47.9654 32.5043 47.8989L19.2061 41.3485C18.9353 41.2146 18.9353 40.9946 19.2061 40.8606L22.3912 39.2947C22.5483 39.2281 22.7175 39.1938 22.8884 39.1938C23.0593 39.1938 23.2285 39.2281 23.3856 39.2947L32.5054 43.7813C32.662 43.8482 32.8309 43.8826 33.0015 43.8826C33.1721 43.8826 33.341 43.8482 33.4977 43.7813L42.6175 39.2947C42.7744 39.2281 42.9434 39.1938 43.1141 39.1938C43.2849 39.1938 43.4538 39.2281 43.6108 39.2947L46.7959 40.8636C47.0697 40.9946 47.0697 41.2146 46.7959 41.3485L46.7939 41.3475ZM46.7939 32.2055L43.6088 30.6366C43.4518 30.57 43.2829 30.5357 43.1121 30.5357C42.9413 30.5357 42.7724 30.57 42.6154 30.6366L33.4957 35.1282C33.3388 35.1944 33.17 35.2285 32.9995 35.2285C32.829 35.2285 32.6602 35.1944 32.5033 35.1282L23.3836 30.6366C23.2265 30.57 23.0573 30.5356 22.8864 30.5356C22.7155 30.5356 22.5463 30.57 22.3892 30.6366L19.2051 32.2005C18.9343 32.3344 18.9343 32.5544 19.2051 32.6904L32.5033 39.2398C32.6601 39.3063 32.8289 39.3406 32.9995 39.3406C33.1701 39.3406 33.3389 39.3063 33.4957 39.2398L46.7939 32.6904C47.0687 32.5594 47.0687 32.3394 46.7939 32.2005V32.2055ZM19.2072 24.5902L32.5054 30.6366C32.8243 30.7604 33.1787 30.7604 33.4977 30.6366L46.7959 24.5902C47.0667 24.4652 47.0667 24.2632 46.7959 24.1393L33.4977 18.0939C33.179 17.9687 32.824 17.9687 32.5054 18.0939L19.2072 24.1393C18.9313 24.2622 18.9313 24.4652 19.2051 24.5902H19.2072Z" fill="white"/>
<defs>
<linearGradient id="paint0_linear_5327_421" x1="33.0006" y1="0" x2="33.0006" y2="65.9997" gradientUnits="userSpaceOnUse">
<stop stop-color="#6FBFFF"/>
<stop offset="1" stop-color="#3C8BFF"/>
</linearGradient>
</defs>
</svg>
