<svg width="18" height="19" viewBox="0 0 18 19" fill="none" xmlns="http://www.w3.org/2000/svg">
<path fill-rule="evenodd" clip-rule="evenodd" d="M14.4096 0.0931349C14.8281 -0.0145359 15.2671 -0.0290665 15.6926 0.0506693C16.118 0.130405 16.5184 0.302266 16.8628 0.552931C17.2071 0.803595 17.4862 1.12633 17.6783 1.49613C17.8705 1.86593 17.9705 2.27285 17.9708 2.68536C17.9711 3.27599 17.7668 3.85026 17.3896 4.31934C17.0123 4.78841 16.4831 5.12616 15.8838 5.28032C15.2845 5.43448 14.6485 5.39647 14.0742 5.17217C13.7425 5.04262 13.4421 4.85511 13.1872 4.62148L5.55898 8.85486C5.61793 9.07274 5.64815 9.29774 5.64815 9.52467C5.64815 9.75161 5.61793 9.97661 5.55898 10.1945L13.1725 14.4197C13.2496 14.3458 13.3314 14.2761 13.4175 14.2109C13.7131 13.9871 14.0529 13.822 14.4169 13.7254C14.7808 13.6288 15.1614 13.6026 15.5361 13.6485C15.9108 13.6943 16.2721 13.8112 16.5985 13.9923C16.9248 14.1733 17.2097 14.4149 17.4362 14.7025C17.6627 14.9902 17.8262 15.3182 17.9171 15.6671C18.008 16.016 18.0243 16.3787 17.9652 16.7337C17.9061 17.0887 17.7727 17.4288 17.5729 17.7339C17.1844 18.3272 16.5682 18.753 15.8551 18.9211C15.142 19.0892 14.3881 18.9863 13.7534 18.6342C13.1187 18.2822 12.6532 17.7087 12.4558 17.0354C12.3271 16.5967 12.3188 16.1381 12.4259 15.702L4.78266 11.4603C4.52777 11.6937 4.22736 11.881 3.89574 12.0104C3.3216 12.2345 2.68588 12.2724 2.08684 12.1182C1.4878 11.9641 0.958801 11.6266 0.581599 11.1578C0.204397 10.689 0 10.1151 0 9.52467C0 8.9343 0.204397 8.36036 0.581599 7.89156C0.958801 7.42277 1.4878 7.08523 2.08684 6.93111C2.68588 6.77699 3.3216 6.81488 3.89574 7.03891C4.22736 7.16831 4.52777 7.35565 4.78266 7.58909L12.4115 3.35538C12.3688 3.19749 12.3412 3.03574 12.3293 2.87209C12.2994 2.46056 12.3695 2.048 12.5342 1.6664C12.6989 1.28479 12.9537 0.944381 13.2789 0.671553C13.6041 0.398725 13.991 0.200806 14.4096 0.0931349ZM15.3948 1.48852C15.2014 1.45228 15.0019 1.45888 14.8116 1.50782C14.6214 1.55676 14.4455 1.64673 14.2977 1.77074C14.1499 1.89475 14.034 2.04948 13.9592 2.22294C13.8843 2.3964 13.8525 2.58392 13.8661 2.77098C13.8797 2.95804 13.9384 3.13961 14.0376 3.30161C14.1797 3.53357 14.3981 3.71452 14.6592 3.81647C14.9202 3.91843 15.2093 3.93571 15.4817 3.86563C15.7542 3.79556 15.9947 3.64204 16.1662 3.42882C16.3377 3.21561 16.4305 2.95457 16.4304 2.68611C16.4303 2.4986 16.3848 2.31364 16.2974 2.14555C16.2101 1.97746 16.0833 1.83076 15.9267 1.71682C15.7702 1.60288 15.5882 1.52476 15.3948 1.48852ZM3.3112 8.39478C3.05022 8.29295 2.76126 8.27573 2.48897 8.34578C2.21668 8.41584 1.97622 8.56926 1.80477 8.78235C1.63331 8.99544 1.5404 9.25632 1.5404 9.52467C1.5404 9.79303 1.63331 10.0539 1.80477 10.267C1.97622 10.4801 2.21668 10.6335 2.48897 10.7036C2.76126 10.7736 3.05022 10.7564 3.3112 10.6546C3.57217 10.5527 3.79062 10.372 3.93278 10.1402C4.04736 9.95337 4.10774 9.74096 4.10774 9.52467C4.10774 9.30838 4.04736 9.09598 3.93278 8.90917C3.79062 8.67739 3.57217 8.49662 3.3112 8.39478ZM15.3396 15.102C15.1693 15.0812 14.9963 15.0931 14.8309 15.137C14.6655 15.1809 14.511 15.2559 14.3766 15.3577C14.2422 15.4594 14.1307 15.5857 14.0486 15.7292C13.8889 16.0083 13.8497 16.3355 13.9395 16.6415C14.0293 16.9475 14.2408 17.2082 14.5293 17.3683C14.8178 17.5283 15.1605 17.5751 15.4846 17.4987C15.8088 17.4223 16.0889 17.2287 16.2655 16.959C16.3563 16.8203 16.4169 16.6657 16.4438 16.5044C16.4707 16.343 16.4632 16.1781 16.4219 16.0196C16.3806 15.861 16.3063 15.7119 16.2033 15.5811C16.1004 15.4504 15.9709 15.3406 15.8225 15.2583C15.6742 15.176 15.51 15.1228 15.3396 15.102Z" fill="white"/>
</svg>
