<svg width="13" height="12" viewBox="0 0 13 12" fill="none" xmlns="http://www.w3.org/2000/svg">
<path fill-rule="evenodd" clip-rule="evenodd" d="M10.1064 0.0588221C10.3854 -0.00918059 10.6781 -0.0183578 10.9617 0.0320016C11.2453 0.0823611 11.5123 0.190905 11.7418 0.34922C11.9714 0.507534 12.1575 0.711368 12.2856 0.944925C12.4137 1.17848 12.4804 1.43548 12.4805 1.69602C12.4807 2.06905 12.3445 2.43174 12.093 2.728C11.8415 3.02426 11.4887 3.23757 11.0892 3.33494C10.6897 3.4323 10.2657 3.4083 9.8828 3.26663C9.66167 3.18481 9.46138 3.06638 9.29147 2.91883L4.20599 5.59255C4.24529 5.73015 4.26543 5.87225 4.26543 6.01558C4.26543 6.15891 4.24529 6.30102 4.20599 6.43862L9.28165 9.10718C9.3331 9.0605 9.38762 9.01646 9.44499 8.97532C9.64207 8.83397 9.86863 8.7297 10.1112 8.66868C10.3538 8.60766 10.6076 8.59114 10.8574 8.62009C11.1072 8.64904 11.348 8.72288 11.5656 8.83723C11.7832 8.95158 11.9731 9.10412 12.1241 9.28582C12.2751 9.46751 12.3842 9.67467 12.4447 9.89502C12.5053 10.1154 12.5162 10.3444 12.4768 10.5687C12.4374 10.7929 12.3485 11.0077 12.2153 11.2004C11.9563 11.5751 11.5455 11.844 11.0701 11.9502C10.5947 12.0564 10.092 11.9914 9.66893 11.769C9.24582 11.5466 8.9355 11.1844 8.80385 10.7592C8.71806 10.4821 8.71255 10.1925 8.78394 9.91704L3.68844 7.23806C3.51852 7.38549 3.31824 7.50381 3.09716 7.58554C2.7144 7.72703 2.29059 7.75096 1.89123 7.65362C1.49187 7.55629 1.1392 7.3431 0.887733 7.04702C0.636265 6.75094 0.5 6.38845 0.5 6.01558C0.5 5.64271 0.636265 5.28023 0.887733 4.98415C1.1392 4.68807 1.49187 4.47488 1.89123 4.37754C2.29059 4.2802 2.7144 4.30413 3.09716 4.44563C3.31824 4.52735 3.51852 4.64568 3.68844 4.79311L8.77432 2.11919C8.74589 2.01947 8.7275 1.91731 8.71957 1.81395C8.69962 1.55404 8.74635 1.29348 8.85613 1.05246C8.96591 0.811446 9.13579 0.596451 9.3526 0.424139C9.56941 0.251826 9.82734 0.126825 10.1064 0.0588221ZM10.7632 0.940117C10.6343 0.917226 10.5013 0.921398 10.3744 0.952308C10.2476 0.983219 10.1303 1.04004 10.0318 1.11836C9.93325 1.19669 9.85603 1.29441 9.80613 1.40396C9.75623 1.51351 9.73499 1.63195 9.74406 1.75009C9.75312 1.86824 9.79225 1.98291 9.8584 2.08523C9.95312 2.23173 10.0988 2.34601 10.2728 2.4104C10.4468 2.4748 10.6396 2.48571 10.8212 2.44145C11.0028 2.39719 11.1631 2.30024 11.2775 2.16557C11.3918 2.03091 11.4537 1.86605 11.4536 1.69649C11.4535 1.57806 11.4232 1.46124 11.365 1.35508C11.3067 1.24892 11.2222 1.15627 11.1178 1.08431C11.0135 1.01235 10.8921 0.963008 10.7632 0.940117ZM2.70746 5.30197C2.53348 5.23765 2.34084 5.22678 2.15931 5.27102C1.97779 5.31526 1.81748 5.41217 1.70318 5.54675C1.58887 5.68133 1.52694 5.8461 1.52694 6.01558C1.52694 6.18507 1.58887 6.34984 1.70318 6.48442C1.81748 6.619 1.97779 6.7159 2.15931 6.76015C2.34084 6.80439 2.53348 6.79352 2.70746 6.7292C2.88145 6.66488 3.02708 6.55071 3.12186 6.40432C3.19824 6.28634 3.2385 6.15219 3.2385 6.01558C3.2385 5.87898 3.19824 5.74483 3.12186 5.62684C3.02708 5.48046 2.88145 5.36628 2.70746 5.30197ZM10.7264 9.53811C10.6129 9.52494 10.4975 9.53245 10.3873 9.56019C10.277 9.58792 10.174 9.63532 10.0844 9.69957C9.99483 9.76383 9.92046 9.84363 9.86571 9.93425C9.75924 10.1105 9.73316 10.3172 9.793 10.5104C9.85284 10.7037 9.99389 10.8684 10.1862 10.9694C10.3785 11.0705 10.607 11.1 10.8231 11.0518C11.0392 11.0035 11.2259 10.8813 11.3436 10.711C11.4042 10.6234 11.4446 10.5257 11.4625 10.4238C11.4804 10.3219 11.4755 10.2178 11.4479 10.1176C11.4204 10.0175 11.3709 9.9233 11.3022 9.84071C11.2336 9.75812 11.1473 9.68878 11.0484 9.6368C10.9495 9.58483 10.84 9.55126 10.7264 9.53811Z" fill="#26404C"/>
</svg>
