<svg width="17" height="16" viewBox="0 0 17 16" fill="none" xmlns="http://www.w3.org/2000/svg">
<path d="M8.0791 4.36364C6.07183 4.36364 4.44274 5.99273 4.44274 8C4.44274 10.0073 6.07183 11.6364 8.0791 11.6364C10.0864 11.6364 11.7155 10.0073 11.7155 8C11.7155 5.99273 10.0864 4.36364 8.0791 4.36364ZM0.806374 8.72727H2.26092C2.66092 8.72727 2.98819 8.4 2.98819 8C2.98819 7.6 2.66092 7.27273 2.26092 7.27273H0.806374C0.406374 7.27273 0.0791016 7.6 0.0791016 8C0.0791016 8.4 0.406374 8.72727 0.806374 8.72727ZM13.8973 8.72727H15.3518C15.7518 8.72727 16.0791 8.4 16.0791 8C16.0791 7.6 15.7518 7.27273 15.3518 7.27273H13.8973C13.4973 7.27273 13.17 7.6 13.17 8C13.17 8.4 13.4973 8.72727 13.8973 8.72727ZM7.35183 0.727273V2.18182C7.35183 2.58182 7.6791 2.90909 8.0791 2.90909C8.4791 2.90909 8.80637 2.58182 8.80637 2.18182V0.727273C8.80637 0.327273 8.4791 0 8.0791 0C7.6791 0 7.35183 0.327273 7.35183 0.727273ZM7.35183 13.8182V15.2727C7.35183 15.6727 7.6791 16 8.0791 16C8.4791 16 8.80637 15.6727 8.80637 15.2727V13.8182C8.80637 13.4182 8.4791 13.0909 8.0791 13.0909C7.6791 13.0909 7.35183 13.4182 7.35183 13.8182ZM3.70819 2.60364C3.64091 2.53622 3.56099 2.48273 3.47301 2.44623C3.38503 2.40974 3.29071 2.39095 3.19547 2.39095C3.10022 2.39095 3.0059 2.40974 2.91792 2.44623C2.82994 2.48273 2.75002 2.53622 2.68274 2.60364C2.61532 2.67092 2.56183 2.75084 2.52533 2.83882C2.48884 2.9268 2.47005 3.02111 2.47005 3.11636C2.47005 3.21161 2.48884 3.30593 2.52533 3.39391C2.56183 3.48189 2.61532 3.56181 2.68274 3.62909L3.45365 4.4C3.73728 4.68364 4.20274 4.68364 4.4791 4.4C4.75547 4.11636 4.76274 3.65091 4.4791 3.37455L3.70819 2.60364ZM12.7046 11.6C12.6373 11.5326 12.5574 11.4791 12.4694 11.4426C12.3814 11.4061 12.2871 11.3873 12.1918 11.3873C12.0966 11.3873 12.0023 11.4061 11.9143 11.4426C11.8263 11.4791 11.7464 11.5326 11.6791 11.6C11.6117 11.6673 11.5582 11.7472 11.5217 11.8352C11.4852 11.9232 11.4664 12.0175 11.4664 12.1127C11.4664 12.208 11.4852 12.3023 11.5217 12.3903C11.5582 12.4783 11.6117 12.5582 11.6791 12.6255L12.45 13.3964C12.7336 13.68 13.1991 13.68 13.4755 13.3964C13.5429 13.3291 13.5964 13.2492 13.6329 13.1612C13.6694 13.0732 13.6882 12.9789 13.6882 12.8836C13.6882 12.7884 13.6694 12.6941 13.6329 12.6061C13.5964 12.5181 13.5429 12.4382 13.4755 12.3709L12.7046 11.6ZM13.4755 3.62909C13.5429 3.56181 13.5964 3.48189 13.6329 3.39391C13.6694 3.30593 13.6882 3.21161 13.6882 3.11636C13.6882 3.02111 13.6694 2.9268 13.6329 2.83882C13.5964 2.75084 13.5429 2.67092 13.4755 2.60364C13.4082 2.53622 13.3283 2.48273 13.2403 2.44623C13.1523 2.40974 13.058 2.39095 12.9627 2.39095C12.8675 2.39095 12.7732 2.40974 12.6852 2.44623C12.5972 2.48273 12.5173 2.53622 12.45 2.60364L11.6791 3.37455C11.3955 3.65818 11.3955 4.12364 11.6791 4.4C11.9627 4.67636 12.4282 4.68364 12.7046 4.4L13.4755 3.62909ZM4.4791 12.6255C4.54652 12.5582 4.60001 12.4783 4.63651 12.3903C4.673 12.3023 4.69179 12.208 4.69179 12.1127C4.69179 12.0175 4.673 11.9232 4.63651 11.8352C4.60001 11.7472 4.54652 11.6673 4.4791 11.6C4.41182 11.5326 4.3319 11.4791 4.24392 11.4426C4.15594 11.4061 4.06162 11.3873 3.96637 11.3873C3.87112 11.3873 3.77681 11.4061 3.68883 11.4426C3.60085 11.4791 3.52093 11.5326 3.45365 11.6L2.68274 12.3709C2.3991 12.6545 2.3991 13.12 2.68274 13.3964C2.96637 13.6727 3.43183 13.68 3.70819 13.3964L4.4791 12.6255Z" fill="white"/>
</svg>
