<svg width="84" height="48" viewBox="0 0 84 48" fill="none" xmlns="http://www.w3.org/2000/svg">
<g clip-path="url(#clip0_4223_10877)">
<path d="M11.1627 12.5493H0V33.5153H11.1627C16.912 33.5153 21.5787 28.8186 21.5787 23.0323C21.5787 17.246 16.912 12.5493 11.1627 12.5493ZM11.1627 29.3258H4.16267V16.7387H11.1627C14.616 16.7387 17.416 19.5568 17.416 23.0323C17.416 26.5078 14.616 29.3258 11.1627 29.3258Z" fill="url(#paint0_linear_4223_10877)"/>
<path d="M73.5836 12.5493H62.4209V33.5153H73.5836C79.3329 33.5153 83.9996 28.8186 83.9996 23.0323C83.9996 17.246 79.3329 12.5493 73.5836 12.5493ZM73.5836 29.3258H66.5836V16.7387H73.5836C77.0369 16.7387 79.8369 19.5568 79.8369 23.0323C79.8369 26.5078 77.0369 29.3258 73.5836 29.3258Z" fill="url(#paint1_linear_4223_10877)"/>
<path d="M50.4744 25.6814C51.1838 24.6669 51.7998 23.69 52.3224 22.7695L56.0931 16.1941H51.5758L48.4398 21.4732L47.6184 22.7695L38.0424 13.0755C36.8478 11.8168 35.9891 10.746 35.4851 9.8818C34.9811 9.01761 34.7198 8.11585 34.7198 7.1953C34.7198 6.10567 35.0931 5.2227 35.8398 4.52759C36.5864 3.83248 37.5758 3.49432 38.8078 3.49432C39.9651 3.49432 40.9171 3.85127 41.6638 4.58395C42.4104 5.31663 42.7464 6.31233 42.7278 7.57104H46.9091C46.9651 6.14325 46.7038 4.84697 46.0878 3.70098C45.4718 2.5362 44.5571 1.63444 43.3251 0.995695C42.1118 0.319374 40.6558 0 39.0131 0C37.3144 0 35.8398 0.300587 34.5518 0.920548C33.2638 1.54051 32.2744 2.38591 31.5838 3.49432C30.8931 4.58395 30.5384 5.82387 30.5384 7.17652C30.5384 8.36008 30.7438 9.43092 31.1918 10.4266C31.6211 11.4223 32.3304 12.4931 33.3198 13.6767C30.8371 14.6724 28.9518 16.025 27.6824 17.7346C26.4131 19.4442 25.7598 21.4356 25.7598 23.69C25.7598 25.6626 26.2264 27.391 27.1598 28.8751C28.0931 30.3593 29.4184 31.5053 31.1171 32.3131C32.8158 33.1209 34.7758 33.5155 36.9784 33.5155C39.2184 33.5155 41.2344 33.1209 43.0078 32.3319C44.7998 31.5429 46.4611 30.3405 48.0291 28.6873L52.7704 33.5155H58.2584L50.4744 25.6814ZM41.4771 28.9315C40.1331 29.589 38.6398 29.9084 36.9784 29.9084C34.8878 29.9084 33.1891 29.3072 31.8824 28.1049C30.5758 26.9025 29.9224 25.3808 29.9224 23.5585C29.9224 20.2896 31.8824 17.8849 35.8211 16.3632L45.2664 25.9068C44.0718 27.2595 42.8024 28.274 41.4771 28.9315Z" fill="url(#paint2_linear_4223_10877)"/>
<path d="M3.32267 40.6543C3.77067 40.8797 4.10667 41.1991 4.34933 41.6312C4.592 42.0633 4.704 42.5518 4.704 43.1342C4.704 43.7165 4.592 44.205 4.34933 44.6183C4.10667 45.0316 3.77067 45.3698 3.32267 45.5764C2.87467 45.8019 2.352 45.9146 1.736 45.9146H0V40.2974H1.736C2.352 40.3161 2.87467 40.4289 3.32267 40.6543ZM3.37867 44.7498C3.752 44.3741 3.93867 43.8293 3.93867 43.1342C3.93867 42.439 3.752 41.8942 3.36 41.4997C2.98667 41.1052 2.42667 40.9173 1.71733 40.9173H0.728V45.3322H1.736C2.464 45.3134 3.00533 45.1255 3.37867 44.7498Z" fill="url(#paint3_linear_4223_10877)"/>
<path d="M5.65626 42.5142C5.84292 42.176 6.08559 41.913 6.40292 41.7252C6.72026 41.5373 7.07492 41.4434 7.46692 41.4434C7.85892 41.4434 8.17626 41.5185 8.47492 41.6876C8.75492 41.8567 8.96026 42.0633 9.10959 42.3075V41.5185H9.83759V45.9334H9.10959V45.1068C8.96026 45.3698 8.75492 45.5764 8.47492 45.7455C8.19492 45.9146 7.85892 45.9897 7.48559 45.9897C7.09359 45.9897 6.73892 45.8958 6.42159 45.7079C6.10426 45.5201 5.86159 45.2383 5.67492 44.9001C5.48826 44.5432 5.39492 44.1486 5.39492 43.7165C5.37626 43.2469 5.46959 42.8524 5.65626 42.5142ZM8.88559 42.8336C8.75492 42.5893 8.56826 42.4015 8.34426 42.27C8.12026 42.1385 7.87759 42.0821 7.59759 42.0821C7.31759 42.0821 7.07492 42.1385 6.85092 42.27C6.62692 42.4015 6.44026 42.5893 6.30959 42.8336C6.17892 43.0778 6.10426 43.3784 6.10426 43.6978C6.10426 44.0359 6.17892 44.3365 6.30959 44.5807C6.44026 44.825 6.62692 45.0128 6.85092 45.1443C7.07492 45.2758 7.31759 45.3322 7.59759 45.3322C7.87759 45.3322 8.12026 45.2758 8.34426 45.1443C8.56826 45.0128 8.75492 44.825 8.88559 44.5807C9.01626 44.3365 9.09092 44.0359 9.09092 43.7165C9.09092 43.3972 9.03492 43.0966 8.88559 42.8336Z" fill="url(#paint4_linear_4223_10877)"/>
<path d="M11.0878 40.6542C10.9945 40.5603 10.9385 40.4476 10.9385 40.2973C10.9385 40.1658 10.9945 40.0343 11.0878 39.9403C11.1811 39.8464 11.2931 39.79 11.4425 39.79C11.5731 39.79 11.6851 39.8464 11.7785 39.9403C11.8718 40.0343 11.9091 40.147 11.9091 40.2973C11.9091 40.4288 11.8718 40.5603 11.7785 40.6542C11.6851 40.7482 11.5731 40.8045 11.4425 40.8045C11.2931 40.8045 11.1811 40.7482 11.0878 40.6542ZM11.7971 41.5184V45.9333H11.0691V41.5184H11.7971Z" fill="url(#paint5_linear_4223_10877)"/>
<path d="M13.7573 39.959V45.9144H13.0293V39.959H13.7573Z" fill="url(#paint6_linear_4223_10877)"/>
<path d="M18.7788 41.5186L16.1468 48H15.4001L16.2588 45.8771L14.4668 41.5186H15.2695L16.6508 45.088L18.0135 41.5186H18.7788Z" fill="url(#paint7_linear_4223_10877)"/>
<path d="M24.9574 40.6543C25.4054 40.8797 25.7414 41.1991 25.9841 41.6312C26.2268 42.0633 26.3388 42.5518 26.3388 43.1342C26.3388 43.7165 26.2268 44.205 25.9841 44.6183C25.7414 45.0316 25.4054 45.3698 24.9574 45.5764C24.5094 45.8019 23.9868 45.9146 23.3708 45.9146H21.6348V40.2974H23.3708C23.9681 40.3161 24.5094 40.4289 24.9574 40.6543ZM25.0134 44.7498C25.3868 44.3741 25.5734 43.8293 25.5734 43.1342C25.5734 42.439 25.3868 41.8942 24.9948 41.4997C24.6214 41.1052 24.0614 40.9173 23.3521 40.9173H22.3441V45.3322H23.3521C24.0801 45.3134 24.6401 45.1255 25.0134 44.7498Z" fill="url(#paint8_linear_4223_10877)"/>
<path d="M31.2667 43.9981H27.7574C27.7761 44.4302 27.9254 44.7683 28.2054 45.0126C28.4667 45.2568 28.8027 45.3695 29.1761 45.3695C29.4934 45.3695 29.7547 45.2944 29.9601 45.1441C30.1654 44.9938 30.3147 44.8059 30.4081 44.5617H31.1921C31.0801 44.9938 30.8374 45.3319 30.4827 45.595C30.1281 45.858 29.6987 45.9895 29.1761 45.9895C28.7654 45.9895 28.3921 45.8955 28.0561 45.7077C27.7201 45.5198 27.4774 45.2568 27.2907 44.8999C27.1041 44.5617 27.0107 44.1484 27.0107 43.6975C27.0107 43.2466 27.1041 42.8333 27.2907 42.4952C27.4774 42.157 27.7201 41.894 28.0561 41.7061C28.3921 41.5182 28.7654 41.4243 29.1947 41.4243C29.6054 41.4243 29.9787 41.5182 30.2961 41.7061C30.6134 41.894 30.8561 42.1382 31.0427 42.4576C31.2107 42.777 31.3041 43.1339 31.3041 43.5472C31.2854 43.6975 31.2854 43.829 31.2667 43.9981ZM30.3521 42.683C30.2214 42.4764 30.0534 42.3261 29.8481 42.2321C29.6427 42.1382 29.4001 42.0819 29.1574 42.0819C28.7841 42.0819 28.4854 42.1946 28.2241 42.4388C27.9627 42.683 27.8134 43.0024 27.7761 43.4157H30.5387C30.5387 43.1151 30.4827 42.8709 30.3521 42.683Z" fill="url(#paint9_linear_4223_10877)"/>
<path d="M32.2559 42.5142C32.4425 42.176 32.6852 41.913 33.0025 41.7252C33.3199 41.5373 33.6745 41.4434 34.0665 41.4434C34.4585 41.4434 34.7759 41.5185 35.0745 41.6876C35.3545 41.8567 35.5599 42.0633 35.7092 42.3075V41.5185H36.4372V45.9334H35.7092V45.1068C35.5599 45.3698 35.3545 45.5764 35.0745 45.7455C34.7945 45.9146 34.4585 45.9897 34.0852 45.9897C33.6932 45.9897 33.3385 45.8958 33.0212 45.7079C32.7039 45.5201 32.4612 45.2383 32.2745 44.9001C32.0879 44.5432 31.9945 44.1486 31.9945 43.7165C31.9759 43.2469 32.0692 42.8524 32.2559 42.5142ZM35.4852 42.8336C35.3545 42.5893 35.1679 42.4015 34.9439 42.27C34.7199 42.1385 34.4772 42.0821 34.1972 42.0821C33.9172 42.0821 33.6745 42.1385 33.4505 42.27C33.2265 42.4015 33.0399 42.5893 32.9092 42.8336C32.7785 43.0778 32.7039 43.3784 32.7039 43.6978C32.7039 44.0359 32.7785 44.3365 32.9092 44.5807C33.0399 44.825 33.2265 45.0128 33.4505 45.1443C33.6745 45.2758 33.9172 45.3322 34.1972 45.3322C34.4772 45.3322 34.7199 45.2758 34.9439 45.1443C35.1679 45.0128 35.3545 44.825 35.4852 44.5807C35.6159 44.3365 35.6905 44.0359 35.6905 43.7165C35.6905 43.3972 35.6159 43.0966 35.4852 42.8336Z" fill="url(#paint10_linear_4223_10877)"/>
<path d="M38.3784 39.959V45.9144H37.6504V39.959H38.3784Z" fill="url(#paint11_linear_4223_10877)"/>
<path d="M40.2642 45.8206C40.0028 45.7079 39.7788 45.5388 39.6295 45.3322C39.4802 45.1255 39.3868 44.8813 39.3682 44.6183H40.1148C40.1335 44.8437 40.2455 45.0128 40.4322 45.1631C40.6188 45.2946 40.8615 45.3698 41.1602 45.3698C41.4402 45.3698 41.6642 45.3134 41.8135 45.1819C41.9815 45.0504 42.0562 44.9001 42.0562 44.7122C42.0562 44.5244 41.9628 44.3741 41.7948 44.2801C41.6268 44.1862 41.3655 44.0923 41.0108 43.9983C40.6935 43.9044 40.4135 43.8292 40.2082 43.7353C40.0028 43.6414 39.8348 43.5099 39.6855 43.3408C39.5362 43.1717 39.4615 42.9463 39.4615 42.6457C39.4615 42.4202 39.5362 42.2136 39.6668 42.0257C39.7975 41.8379 39.9842 41.6876 40.2268 41.5748C40.4695 41.4621 40.7495 41.4058 41.0668 41.4058C41.5522 41.4058 41.9442 41.5373 42.2428 41.7815C42.5415 42.0257 42.7095 42.3639 42.7282 42.796H42.0002C41.9815 42.5705 41.8882 42.3827 41.7202 42.2324C41.5522 42.1009 41.3282 42.0257 41.0482 42.0257C40.7868 42.0257 40.5815 42.0821 40.4322 42.1948C40.2828 42.3075 40.2082 42.4578 40.2082 42.6457C40.2082 42.796 40.2642 42.9087 40.3388 43.0026C40.4322 43.0966 40.5442 43.1717 40.6935 43.2281C40.8428 43.2844 41.0295 43.3408 41.2722 43.4159C41.5895 43.5099 41.8508 43.585 42.0375 43.6602C42.2428 43.7353 42.4108 43.8668 42.5415 44.0359C42.6908 44.205 42.7468 44.4116 42.7655 44.6934C42.7655 44.9377 42.6908 45.1443 42.5602 45.351C42.4295 45.5388 42.2428 45.6891 42.0002 45.8018C41.7575 45.9146 41.4775 45.9709 41.1602 45.9709C40.8428 45.9897 40.5442 45.9334 40.2642 45.8206Z" fill="url(#paint12_linear_4223_10877)"/>
<path d="M49.2426 40.6543C49.6906 40.8797 50.0266 41.1991 50.2693 41.6312C50.5119 42.0633 50.6239 42.5518 50.6239 43.1342C50.6239 43.7165 50.5119 44.205 50.2693 44.6183C50.0266 45.0316 49.6906 45.3698 49.2426 45.5764C48.7946 45.8019 48.2719 45.9146 47.6559 45.9146H45.9199V40.2974H47.6559C48.2719 40.3161 48.7946 40.4289 49.2426 40.6543ZM49.3173 44.7498C49.6906 44.3741 49.8773 43.8293 49.8773 43.1342C49.8773 42.439 49.6906 41.8942 49.2986 41.4997C48.9253 41.1052 48.3653 40.9173 47.6559 40.9173H46.6666V45.3322H47.6746C48.3839 45.3134 48.9439 45.1255 49.3173 44.7498Z" fill="url(#paint13_linear_4223_10877)"/>
<path d="M51.6132 40.6542C51.5199 40.5603 51.4639 40.4476 51.4639 40.2973C51.4639 40.1658 51.5199 40.0343 51.6132 39.9403C51.7065 39.8464 51.8185 39.79 51.9679 39.79C52.0985 39.79 52.2105 39.8464 52.3039 39.9403C52.3972 40.0343 52.4345 40.147 52.4345 40.2973C52.4345 40.4288 52.3785 40.5603 52.3039 40.6542C52.2105 40.7482 52.0985 40.8045 51.9679 40.8045C51.8185 40.8045 51.7065 40.7482 51.6132 40.6542ZM52.3039 41.5184V45.9333H51.5759V41.5184H52.3039Z" fill="url(#paint14_linear_4223_10877)"/>
<path d="M54.2075 45.8206C53.9462 45.7079 53.7222 45.5388 53.5729 45.3322C53.4235 45.1255 53.3302 44.8813 53.3115 44.6183H54.0582C54.0769 44.8437 54.1889 45.0128 54.3755 45.1631C54.5622 45.2946 54.8049 45.3698 55.1035 45.3698C55.3835 45.3698 55.6075 45.3134 55.7569 45.1819C55.9249 45.0504 55.9995 44.9001 55.9995 44.7122C55.9995 44.5244 55.9062 44.3741 55.7382 44.2801C55.5702 44.1862 55.3089 44.0923 54.9542 43.9983C54.6369 43.9044 54.3569 43.8292 54.1515 43.7353C53.9462 43.6414 53.7782 43.5099 53.6289 43.3408C53.4795 43.1717 53.4049 42.9463 53.4049 42.6457C53.4049 42.4202 53.4795 42.2136 53.6102 42.0257C53.7409 41.8379 53.9275 41.6876 54.1702 41.5748C54.4129 41.4621 54.6929 41.4058 55.0102 41.4058C55.4955 41.4058 55.8875 41.5373 56.1862 41.7815C56.4849 42.0257 56.6529 42.3639 56.6715 42.796H55.9435C55.9249 42.5705 55.8315 42.3827 55.6635 42.2324C55.4955 42.1009 55.2715 42.0257 54.9915 42.0257C54.7302 42.0257 54.5249 42.0821 54.3755 42.1948C54.2262 42.3075 54.1515 42.4578 54.1515 42.6457C54.1515 42.796 54.2075 42.9087 54.2822 43.0026C54.3755 43.0966 54.4875 43.1717 54.6369 43.2281C54.7862 43.2844 54.9729 43.3408 55.2155 43.4159C55.5329 43.5099 55.7942 43.585 55.9809 43.6602C56.1862 43.7353 56.3542 43.8668 56.4849 44.0359C56.6155 44.205 56.6902 44.4116 56.7089 44.6934C56.7089 44.9377 56.6342 45.1443 56.5035 45.351C56.3729 45.5388 56.1862 45.6891 55.9435 45.8018C55.7009 45.9146 55.4209 45.9709 55.1035 45.9709C54.7675 45.9897 54.4689 45.9334 54.2075 45.8206Z" fill="url(#paint15_linear_4223_10877)"/>
<path d="M57.7361 42.5142C57.9227 42.176 58.1654 41.913 58.4827 41.7252C58.8001 41.5373 59.1734 41.4434 59.5841 41.4434C60.1254 41.4434 60.5734 41.5749 60.9094 41.8379C61.2641 42.1009 61.4881 42.4578 61.6001 42.9275H60.8161C60.7414 42.6645 60.5921 42.4391 60.3867 42.2888C60.1627 42.1385 59.9014 42.0633 59.5841 42.0633C59.1734 42.0633 58.8374 42.2136 58.5761 42.4954C58.3147 42.7772 58.1841 43.1905 58.1841 43.7165C58.1841 44.2426 58.3147 44.6559 58.5761 44.9565C58.8374 45.2571 59.1734 45.3886 59.5841 45.3886C59.9014 45.3886 60.1627 45.3134 60.3867 45.1631C60.5921 45.0128 60.7414 44.8062 60.8347 44.5244H61.6187C61.5067 44.9753 61.2641 45.3322 60.9094 45.614C60.5547 45.877 60.1254 46.0273 59.5841 46.0273C59.1734 46.0273 58.8001 45.9334 58.4827 45.7455C58.1654 45.5576 57.9041 45.2946 57.7361 44.9565C57.5494 44.6183 57.4561 44.205 57.4561 43.7541C57.4561 43.2469 57.5494 42.8524 57.7361 42.5142Z" fill="url(#paint16_linear_4223_10877)"/>
<path d="M63.3736 45.7077C63.0376 45.5198 62.7762 45.2568 62.5896 44.8999C62.4029 44.5617 62.3096 44.1484 62.3096 43.6975C62.3096 43.2466 62.4029 42.8521 62.6082 42.4952C62.7949 42.157 63.0749 41.8752 63.4109 41.7061C63.7469 41.5182 64.1202 41.4243 64.5309 41.4243C64.9416 41.4243 65.3149 41.5182 65.6509 41.7061C65.9869 41.894 66.2482 42.157 66.4536 42.4952C66.6402 42.8333 66.7522 43.2466 66.7522 43.6975C66.7522 44.1484 66.6589 44.5617 66.4536 44.8999C66.2482 45.238 65.9869 45.5198 65.6509 45.7077C65.3149 45.8955 64.9229 45.9895 64.5122 45.9895C64.0829 45.9895 63.7096 45.8955 63.3736 45.7077ZM65.2216 45.1629C65.4456 45.0314 65.6322 44.8623 65.7816 44.5993C65.9309 44.355 65.9869 44.0545 65.9869 43.6975C65.9869 43.3406 65.9122 43.04 65.7816 42.7957C65.6509 42.5515 65.4642 42.3636 65.2402 42.2509C65.0162 42.1382 64.7736 42.0631 64.5122 42.0631C64.2509 42.0631 64.0082 42.1194 63.7842 42.2509C63.5602 42.3824 63.3922 42.5515 63.2616 42.7957C63.1309 43.04 63.0562 43.3406 63.0562 43.6975C63.0562 44.0545 63.1122 44.355 63.2429 44.5993C63.3736 44.8435 63.5416 45.0314 63.7656 45.1441C63.9896 45.2568 64.2322 45.3319 64.4936 45.3319C64.7549 45.3319 64.9976 45.2944 65.2216 45.1629Z" fill="url(#paint17_linear_4223_10877)"/>
<path d="M71.587 41.5186V45.9334H70.859V45.2759C70.7283 45.5013 70.523 45.6704 70.2803 45.8019C70.0377 45.9334 69.7577 45.9898 69.459 45.9898C69.123 45.9898 68.8057 45.9146 68.5443 45.7831C68.2643 45.6328 68.059 45.4262 67.9097 45.1444C67.7603 44.8626 67.667 44.5056 67.667 44.1111V41.5186H68.395V43.9984C68.395 44.4305 68.507 44.7687 68.731 44.9941C68.955 45.2195 69.2537 45.351 69.627 45.351C70.019 45.351 70.3177 45.2383 70.5417 44.9941C70.7657 44.7499 70.8777 44.3929 70.8777 43.942V41.5186H71.587Z" fill="url(#paint18_linear_4223_10877)"/>
<path d="M76.253 41.9128C76.589 42.2321 76.757 42.7018 76.757 43.3218V45.9143H76.029V43.4157C76.029 42.9836 75.917 42.6455 75.693 42.4012C75.469 42.1758 75.1704 42.0443 74.797 42.0443C74.405 42.0443 74.1064 42.157 73.8824 42.4012C73.6584 42.6455 73.5464 43.0024 73.5464 43.4533V45.8955H72.8184V41.5182H73.5464V42.1382C73.6957 41.9128 73.8824 41.7437 74.125 41.6122C74.3677 41.4807 74.6477 41.4243 74.9464 41.4243C75.4877 41.4243 75.917 41.5934 76.253 41.9128Z" fill="url(#paint19_linear_4223_10877)"/>
<path d="M78.829 42.1197V44.7123C78.829 44.919 78.8664 45.088 78.9597 45.1632C79.053 45.2571 79.2024 45.2947 79.4264 45.2947H79.9677V45.9147H79.3143C78.9037 45.9147 78.605 45.8207 78.3997 45.6329C78.1944 45.445 78.101 45.1444 78.101 44.7123V42.1197H77.541V41.5186H78.101V40.4102H78.829V41.5186H79.9677V42.1197H78.829Z" fill="url(#paint20_linear_4223_10877)"/>
<path d="M81.4985 45.8206C81.2372 45.7079 81.0132 45.5388 80.8639 45.3322C80.7145 45.1255 80.6212 44.8813 80.6025 44.6183H81.3492C81.3679 44.8437 81.4799 45.0128 81.6665 45.1631C81.8532 45.2946 82.0959 45.3698 82.3945 45.3698C82.6745 45.3698 82.8985 45.3134 83.0479 45.1819C83.2159 45.0504 83.2905 44.9001 83.2905 44.7122C83.2905 44.5244 83.1972 44.3741 83.0292 44.2801C82.8612 44.1862 82.5999 44.0923 82.2452 43.9983C81.9279 43.9044 81.6479 43.8292 81.4425 43.7353C81.2372 43.6414 81.0692 43.5099 80.9199 43.3408C80.7705 43.1717 80.6959 42.9463 80.6959 42.6457C80.6959 42.4202 80.7705 42.2136 80.9012 42.0257C81.0319 41.8379 81.2185 41.6876 81.4612 41.5748C81.7039 41.4621 81.9839 41.4058 82.3012 41.4058C82.7865 41.4058 83.1785 41.5373 83.4772 41.7815C83.7759 42.0257 83.9439 42.3639 83.9625 42.796H83.2345C83.2159 42.5705 83.1225 42.3827 82.9545 42.2324C82.7865 42.1009 82.5625 42.0257 82.2825 42.0257C82.0212 42.0257 81.8159 42.0821 81.6665 42.1948C81.5172 42.3075 81.4425 42.4578 81.4425 42.6457C81.4425 42.796 81.4985 42.9087 81.5732 43.0026C81.6665 43.0966 81.7785 43.1717 81.9279 43.2281C82.0772 43.2844 82.2639 43.3408 82.5065 43.4159C82.8239 43.5099 83.0852 43.585 83.2719 43.6602C83.4772 43.7353 83.6452 43.8668 83.7759 44.0359C83.9065 44.205 83.9812 44.4116 83.9999 44.6934C83.9999 44.9377 83.9252 45.1443 83.7945 45.351C83.6639 45.5388 83.4772 45.6891 83.2345 45.8018C82.9919 45.9146 82.7119 45.9709 82.3945 45.9709C82.0585 45.9897 81.7599 45.9334 81.4985 45.8206Z" fill="url(#paint21_linear_4223_10877)"/>
</g>
<defs>
<linearGradient id="paint0_linear_4223_10877" x1="83.7601" y1="23.0323" x2="2.78341" y2="23.0323" gradientUnits="userSpaceOnUse">
<stop stop-color="#FF9D29"/>
<stop offset="1" stop-color="#FF7528"/>
</linearGradient>
<linearGradient id="paint1_linear_4223_10877" x1="83.7597" y1="23.0323" x2="2.78296" y2="23.0323" gradientUnits="userSpaceOnUse">
<stop stop-color="#FF9D29"/>
<stop offset="1" stop-color="#FF7528"/>
</linearGradient>
<linearGradient id="paint2_linear_4223_10877" x1="83.7599" y1="16.7577" x2="2.78317" y2="16.7577" gradientUnits="userSpaceOnUse">
<stop stop-color="#FF9D29"/>
<stop offset="1" stop-color="#FF7528"/>
</linearGradient>
<linearGradient id="paint3_linear_4223_10877" x1="83.5496" y1="43.106" x2="0.0526745" y2="43.106" gradientUnits="userSpaceOnUse">
<stop stop-color="#FF9D29"/>
<stop offset="1" stop-color="#FF7528"/>
</linearGradient>
<linearGradient id="paint4_linear_4223_10877" x1="83.5499" y1="43.7165" x2="0.052934" y2="43.7165" gradientUnits="userSpaceOnUse">
<stop stop-color="#FF9D29"/>
<stop offset="1" stop-color="#FF7528"/>
</linearGradient>
<linearGradient id="paint5_linear_4223_10877" x1="83.5494" y1="42.8617" x2="0.0524849" y2="42.8617" gradientUnits="userSpaceOnUse">
<stop stop-color="#FF9D29"/>
<stop offset="1" stop-color="#FF7528"/>
</linearGradient>
<linearGradient id="paint6_linear_4223_10877" x1="83.5495" y1="42.9367" x2="0.0526609" y2="42.9367" gradientUnits="userSpaceOnUse">
<stop stop-color="#FF9D29"/>
<stop offset="1" stop-color="#FF7528"/>
</linearGradient>
<linearGradient id="paint7_linear_4223_10877" x1="83.5497" y1="44.7593" x2="0.0528106" y2="44.7593" gradientUnits="userSpaceOnUse">
<stop stop-color="#FF9D29"/>
<stop offset="1" stop-color="#FF7528"/>
</linearGradient>
<linearGradient id="paint8_linear_4223_10877" x1="83.5497" y1="43.106" x2="0.0527712" y2="43.106" gradientUnits="userSpaceOnUse">
<stop stop-color="#FF9D29"/>
<stop offset="1" stop-color="#FF7528"/>
</linearGradient>
<linearGradient id="paint9_linear_4223_10877" x1="83.5497" y1="43.7069" x2="0.0527512" y2="43.7069" gradientUnits="userSpaceOnUse">
<stop stop-color="#FF9D29"/>
<stop offset="1" stop-color="#FF7528"/>
</linearGradient>
<linearGradient id="paint10_linear_4223_10877" x1="83.5495" y1="43.7165" x2="0.0525366" y2="43.7165" gradientUnits="userSpaceOnUse">
<stop stop-color="#FF9D29"/>
<stop offset="1" stop-color="#FF7528"/>
</linearGradient>
<linearGradient id="paint11_linear_4223_10877" x1="83.5494" y1="42.9367" x2="0.05231" y2="42.9367" gradientUnits="userSpaceOnUse">
<stop stop-color="#FF9D29"/>
<stop offset="1" stop-color="#FF7528"/>
</linearGradient>
<linearGradient id="paint12_linear_4223_10877" x1="83.5498" y1="43.6901" x2="0.0528158" y2="43.6901" gradientUnits="userSpaceOnUse">
<stop stop-color="#FF9D29"/>
<stop offset="1" stop-color="#FF7528"/>
</linearGradient>
<linearGradient id="paint13_linear_4223_10877" x1="83.5519" y1="43.106" x2="0.0549466" y2="43.106" gradientUnits="userSpaceOnUse">
<stop stop-color="#FF9D29"/>
<stop offset="1" stop-color="#FF7528"/>
</linearGradient>
<linearGradient id="paint14_linear_4223_10877" x1="83.5494" y1="42.8617" x2="0.0527253" y2="42.8617" gradientUnits="userSpaceOnUse">
<stop stop-color="#FF9D29"/>
<stop offset="1" stop-color="#FF7528"/>
</linearGradient>
<linearGradient id="paint15_linear_4223_10877" x1="83.5491" y1="43.6901" x2="0.0522555" y2="43.6901" gradientUnits="userSpaceOnUse">
<stop stop-color="#FF9D29"/>
<stop offset="1" stop-color="#FF7528"/>
</linearGradient>
<linearGradient id="paint16_linear_4223_10877" x1="83.5497" y1="43.7353" x2="0.0526832" y2="43.7353" gradientUnits="userSpaceOnUse">
<stop stop-color="#FF9D29"/>
<stop offset="1" stop-color="#FF7528"/>
</linearGradient>
<linearGradient id="paint17_linear_4223_10877" x1="83.5499" y1="43.7069" x2="0.0528692" y2="43.7069" gradientUnits="userSpaceOnUse">
<stop stop-color="#FF9D29"/>
<stop offset="1" stop-color="#FF7528"/>
</linearGradient>
<linearGradient id="paint18_linear_4223_10877" x1="83.5499" y1="43.7542" x2="0.0530037" y2="43.7542" gradientUnits="userSpaceOnUse">
<stop stop-color="#FF9D29"/>
<stop offset="1" stop-color="#FF7528"/>
</linearGradient>
<linearGradient id="paint19_linear_4223_10877" x1="83.5493" y1="43.6693" x2="0.0523467" y2="43.6693" gradientUnits="userSpaceOnUse">
<stop stop-color="#FF9D29"/>
<stop offset="1" stop-color="#FF7528"/>
</linearGradient>
<linearGradient id="paint20_linear_4223_10877" x1="83.5493" y1="43.1624" x2="0.0523569" y2="43.1624" gradientUnits="userSpaceOnUse">
<stop stop-color="#FF9D29"/>
<stop offset="1" stop-color="#FF7528"/>
</linearGradient>
<linearGradient id="paint21_linear_4223_10877" x1="83.5495" y1="43.6901" x2="0.0524951" y2="43.6901" gradientUnits="userSpaceOnUse">
<stop stop-color="#FF9D29"/>
<stop offset="1" stop-color="#FF7528"/>
</linearGradient>
<clipPath id="clip0_4223_10877">
<rect width="84" height="48" fill="white"/>
</clipPath>
</defs>
</svg>
