<svg xmlns="http://www.w3.org/2000/svg" width="67" height="36" viewBox="0 0 67 36" fill="none">
  <path d="M36.0965 21.4061C34.0655 30.5166 26.9725 35.3083 19.5931 35.8327C11.2764 36.424 2.58462 31.5911 0.340084 21.4061C-2.89393 4.3266 17.6819 -6.77354 30.4669 4.69164C30.243 4.99498 30.0295 5.3086 29.8212 5.62736C28.6859 7.24174 27.9255 8.76872 27.4048 10.2032C26.4778 9.13376 25.3581 8.22888 24.1135 7.54508V7.55022C13.4219 1.65311 1.46496 13.761 7.92257 24.2184V24.2853C10.4431 28.46 15.1093 30.3058 19.5306 29.8276C20.9992 29.6734 22.4418 29.2569 23.7645 28.5834C25.6133 27.6477 27.2433 26.2133 28.4099 24.2801V24.2956C31.7116 18.8766 28.6859 14.4448 33.2687 8.00266C39.0389 -1.05123 53.0581 -2.81471 60.9427 4.73277C61.026 4.80989 61.1145 4.88701 61.1978 4.96927C61.203 4.97441 61.2135 4.9847 61.2239 4.98984L57.9534 10.4037C56.99 9.24172 55.7974 8.25973 54.4694 7.52452V7.54508C46.8974 3.15952 36.7006 8.76358 36.4402 17.3753C36.435 17.4781 36.435 17.581 36.435 17.6889C36.435 17.7712 36.435 17.8483 36.4402 17.9306C36.4402 18.0745 36.4402 18.2236 36.435 18.3676C36.4037 19.4061 36.2944 20.419 36.0965 21.4061ZM15.3749 21.2365H25.4414C25.931 20.1208 26.0872 18.9948 26.2122 17.6324C26.2122 17.6272 26.2122 17.6221 26.2122 17.617C26.2434 16.7378 26.2643 15.8535 26.4101 14.9897H19.0672L15.3749 21.2365ZM63.7861 8.9898L59.849 15.4782C59.8751 15.5964 59.9011 15.7198 59.9167 15.8175C59.9219 15.8483 59.9271 15.874 59.9324 15.8946C59.9376 15.91 59.9376 15.9203 59.9376 15.9306V15.9357C59.9376 15.946 59.9428 15.9563 59.9428 15.9614C59.9428 15.9717 59.948 15.9769 59.948 15.9769C62.0675 27.7557 46.8765 34.6759 39.0909 26.1516C38.2942 28.1361 37.2578 29.951 35.9975 31.5757C47.4806 41.627 66.3014 33.4677 66.2233 18.0026C66.2337 14.7121 65.3432 11.6376 63.7861 8.9898Z" fill="url(#paint0_linear_1916_1082)"/>
  <defs>
    <linearGradient id="paint0_linear_1916_1082" x1="33.117" y1="39.3278" x2="33.117" y2="0.898158" gradientUnits="userSpaceOnUse">
      <stop stop-color="#123EF9"/>
      <stop offset="0.1299" stop-color="#1146F9"/>
      <stop offset="0.3262" stop-color="#0E5AFA"/>
      <stop offset="0.5646" stop-color="#0A7CFC"/>
      <stop offset="0.8336" stop-color="#04ABFE"/>
      <stop offset="1" stop-color="#00CCFF"/>
    </linearGradient>
  </defs>
</svg>