<svg xmlns="http://www.w3.org/2000/svg" width="42" height="46" viewBox="0 0 42 46" fill="none">
<path d="M29.7579 35.7168L32.3252 33.7354L28.3921 29.4333L25.8248 31.4148L29.7579 35.7168Z" fill="#2B6B9A"/>
<path d="M40.1986 44.6389C41.488 43.6436 41.614 41.8634 40.478 40.7228L32.066 32.6992C31.8782 32.5204 31.5736 32.5056 31.3675 32.6655L28.7772 34.6646C28.5688 34.8245 28.5345 35.1065 28.6971 35.3064L35.9502 44.2159C36.9786 45.4427 38.9115 45.6342 40.1986 44.6389Z" fill="#3D83C4"/>
<path d="M34.5331 22.2095C33.9445 25.9151 31.936 29.4398 28.5785 32.0323C21.3071 37.6444 10.4216 36.7753 4.31355 30.0943C1.35457 26.8579 -0.0539201 22.7566 0.34458 18.546C0.74308 14.3269 2.90277 10.5181 6.42285 7.8015C9.94522 5.08066 14.4089 3.78653 18.9916 4.15267C19.9558 4.22843 20.8994 4.37783 21.8178 4.59668L19.5482 7.49848C19.2619 7.4585 18.9733 7.42694 18.6847 7.40379C15.0479 7.1134 11.5049 8.14239 8.7085 10.2993C6.12054 12.2962 4.46012 15.0402 3.97688 18.0851C3.93795 18.3292 3.90818 18.5775 3.88298 18.8279C3.86695 18.9794 3.85779 19.1309 3.84863 19.2825C3.66999 22.4641 4.79221 25.5427 7.03434 27.9942C8.57108 29.6755 10.5155 30.9318 12.6958 31.6788C12.7004 31.683 12.7072 31.683 12.7118 31.6851C13.8569 32.0765 15.0685 32.3269 16.3166 32.4279C19.9558 32.7183 23.4988 31.6914 26.2929 29.5324C28.6564 27.708 30.1794 25.2986 30.8161 22.7251C31.0451 21.9212 31.1871 21.0921 31.2421 20.2525C31.2604 20.0126 31.2673 19.7601 31.2673 19.4782V10.8359H31.6016C34.2033 14.2364 35.1515 18.3208 34.5331 22.2095Z" fill="url(#paint0_linear_1943_9386)"/>
<path d="M10.5256 17.332V26.2458C8.48268 25.3683 6.69859 23.6849 5.98633 20.9135V17.332H10.5256Z" fill="#3D83C4"/>
<path d="M10.5256 17.332V26.2458C8.48268 25.3683 6.69859 23.6849 5.98633 20.9135V17.332H10.5256Z" fill="#3D83C4"/>
<path d="M16.2463 14.0869V26.8536C16.0058 26.8978 15.7607 26.9336 15.5111 26.9609C15.1447 27.0009 14.7691 27.0219 14.3912 27.0219C13.5209 27.0219 12.6048 26.9083 11.707 26.6579V14.0869H16.2463Z" fill="#3D83C4"/>
<path d="M16.2463 14.0869V26.8536C16.0058 26.8978 15.7607 26.9336 15.5111 26.9609C15.1447 27.0009 14.7691 27.0219 14.3912 27.0219C13.5209 27.0219 12.6048 26.9083 11.707 26.6579V14.0869H16.2463Z" fill="#3D83C4"/>
<path d="M21.9699 10.9517V22.279C21.3447 24.2591 19.7049 25.8142 17.4307 26.5507V10.9517H21.9699Z" fill="#3D83C4"/>
<path d="M21.9699 10.9517V22.279C21.3447 24.2591 19.7049 25.8142 17.4307 26.5507V10.9517H21.9699Z" fill="#3D83C4"/>
<path d="M33.47 9.58168H29.9041V19.4802C29.9041 19.7117 29.8972 19.9432 29.8812 20.1725C29.7049 22.9186 28.475 25.6163 26.194 27.7101C24.5816 29.1936 22.6418 30.1889 20.5898 30.7045C20.4981 30.7276 20.4043 30.7486 20.3104 30.7718C20.2165 30.7949 20.1226 30.8139 20.0287 30.8328C19.9737 30.8454 19.9141 30.8581 19.8569 30.8686C19.7973 30.8791 19.7355 30.8917 19.676 30.9023C19.566 30.9233 19.4538 30.9401 19.3439 30.9591L19.0553 31.0012C18.7599 31.0411 18.4598 31.0685 18.1598 31.0895C18.0636 31.0958 17.9674 31.1022 17.869 31.1043C17.5186 31.1211 17.1659 31.1253 16.8132 31.1127C16.6918 31.1085 16.5704 31.1043 16.4513 31.0958C13.4763 30.9296 10.554 29.8017 8.27977 27.7122C6.02848 25.6479 4.80321 22.9986 4.59938 20.2946C4.59022 20.1788 4.58334 20.0631 4.58105 19.9474V19.9347C4.59022 19.7559 4.60396 19.577 4.61999 19.3939C5.25438 26.1508 11.0532 28.4865 15.6452 27.9626C20.1111 27.4702 23.5029 24.4358 23.3403 20.1725C23.3403 20.1389 23.338 20.1031 23.3357 20.0673V9.58168H19.6027L26.5329 0.722656L33.47 9.58168Z" fill="url(#paint1_linear_1943_9386)"/>
<path d="M32.9595 9.33563H29.9043V19.4783C29.9043 19.7097 29.8974 19.9412 29.8791 20.1706C29.7028 22.9167 28.4729 25.6143 26.1941 27.7081C24.5818 29.1895 22.642 30.1869 20.59 30.7025C20.4983 30.7256 20.4044 30.7467 20.3083 30.7698C20.2166 30.793 20.1227 30.8119 20.0266 30.8309C19.9693 30.8435 19.912 30.854 19.8548 30.8645C19.7952 30.8772 19.7334 30.8898 19.6739 30.8982C19.5639 30.9192 19.4517 30.9361 19.3418 30.955L19.0532 30.9971C18.7578 31.0371 18.4578 31.0665 18.1577 31.0855C18.0615 31.0918 17.9654 31.0981 17.8669 31.1002C17.5165 31.1191 17.1638 31.1212 16.8111 31.1086C16.6897 31.1044 16.5706 31.1002 16.4492 31.0918C16.7882 31.0728 17.1271 31.0413 17.4638 30.9971L17.7524 30.955C17.8623 30.9361 17.9745 30.9192 18.0844 30.8982C18.1463 30.8877 18.2081 30.875 18.2677 30.8645C18.3249 30.854 18.3822 30.8414 18.4394 30.8309C18.5333 30.8119 18.6272 30.793 18.7211 30.7698C18.815 30.7467 18.9089 30.7256 19.0028 30.7025C21.0572 30.1869 22.9947 29.1895 24.607 27.7081C26.8858 25.6143 28.1179 22.9146 28.292 20.1706C28.3103 19.9412 28.3172 19.7097 28.3172 19.4783L28.3126 9.2262L28.2187 3.229L32.9595 9.33563Z" fill="url(#paint2_linear_1943_9386)"/>
<defs>
<linearGradient id="paint0_linear_1943_9386" x1="12.2714" y1="34.9883" x2="21.215" y2="4.42009" gradientUnits="userSpaceOnUse">
<stop stop-color="#EF3D38"/>
<stop offset="1" stop-color="#F6884F"/>
</linearGradient>
<linearGradient id="paint1_linear_1943_9386" x1="11.5504" y1="29.9152" x2="27.193" y2="1.08021" gradientUnits="userSpaceOnUse">
<stop stop-color="#EF3D38"/>
<stop offset="1" stop-color="#F6884F"/>
</linearGradient>
<linearGradient id="paint2_linear_1943_9386" x1="24.7051" y1="24.1198" x2="24.7051" y2="3.3899" gradientUnits="userSpaceOnUse">
<stop stop-color="#E42731"/>
<stop offset="1" stop-color="#F9AC58"/>
</linearGradient>
</defs>
</svg>