<svg width="14" height="14" viewBox="0 0 14 14" fill="none" xmlns="http://www.w3.org/2000/svg">
<path fill-rule="evenodd" clip-rule="evenodd" d="M7 0C3.13558 0 0 3.13558 0 7C0 10.8644 3.13558 14 7 14C10.8568 14 14 10.8644 14 7C14 3.13558 10.8568 0 7 0ZM11.6236 3.22668C12.4588 4.24403 12.9599 5.54229 12.9751 6.94684C12.7777 6.90891 10.8037 6.5065 8.81453 6.75706C8.76899 6.65836 8.73101 6.55204 8.68547 6.44578C8.56398 6.15729 8.42734 5.86119 8.29067 5.58027C10.4924 4.6844 11.4946 3.39371 11.6236 3.22668ZM7 1.03254C8.51843 1.03254 9.9078 1.60195 10.9631 2.53579C10.8568 2.68764 9.95334 3.8948 7.82753 4.69197C6.84814 2.89262 5.76249 1.41974 5.59545 1.19197C6.04336 1.08568 6.51411 1.03254 7 1.03254ZM4.45664 1.59436C4.61606 1.80694 5.67897 3.28742 6.67354 5.04879C3.87961 5.79285 1.41215 5.77767 1.14642 5.77767C1.53362 3.92516 2.78633 2.38395 4.45664 1.59436ZM1.01735 7.00761C1.01735 6.94684 1.01735 6.88612 1.01735 6.82539C1.27549 6.83296 4.17571 6.87094 7.15943 5.97507C7.33408 6.3091 7.4935 6.65074 7.64536 6.99239C7.56941 7.01518 7.48589 7.03797 7.40998 7.06072C4.32755 8.05529 2.68764 10.7733 2.55098 11.0011C1.60195 9.94578 1.01735 8.54123 1.01735 7.00761ZM7 12.9826C5.6182 12.9826 4.34273 12.5119 3.33297 11.7223C3.43926 11.5022 4.65399 9.16379 8.02493 7.987C8.04011 7.97939 8.04773 7.97939 8.06291 7.97182C8.90562 10.1507 9.24731 11.9805 9.33839 12.5043C8.61713 12.8156 7.82753 12.9826 7 12.9826ZM10.333 11.9577C10.2722 11.5933 9.95334 9.84708 9.17136 7.69847C11.0467 7.40237 12.6865 7.8883 12.8916 7.95664C12.6334 9.61931 11.6768 11.0542 10.333 11.9577Z" fill="#26404C"/>
</svg>
