<svg width="36" height="36" viewBox="0 0 36 36" fill="none" xmlns="http://www.w3.org/2000/svg">
<g clip-path="url(#clip0_1168_2746)">
<g opacity="0.8">
<path d="M2.66796 30.4707C3.04078 30.4707 3.37864 30.5188 3.6932 30.6149C4.00777 30.7111 4.27573 30.8674 4.50874 31.0837C4.74175 31.3001 4.91651 31.5886 5.04466 31.9371C5.17282 32.2857 5.24272 32.7184 5.24272 33.2353C5.24272 33.656 5.18447 34.0407 5.07961 34.3772C4.97476 34.7138 4.8 35.0023 4.57864 35.2427C4.35728 35.4831 4.07767 35.6634 3.73981 35.7956C3.40194 35.9278 3.00583 35.9879 2.56311 35.9879C2.20194 35.9879 1.86408 35.9398 1.54951 35.8557C1.23495 35.7595 0.96699 35.6153 0.733981 35.4109C0.500971 35.2066 0.326214 34.9301 0.198058 34.5936C0.0699029 34.257 0 33.8363 0 33.3435C0 32.8987 0.0466019 32.5021 0.151456 32.1535C0.256311 31.8049 0.407767 31.4924 0.629126 31.252C0.850486 30.9996 1.11845 30.8073 1.45631 30.675C1.79417 30.5428 2.20194 30.4707 2.66796 30.4707ZM2.70291 31.0597C2.41165 31.0597 2.16699 31.1078 1.95728 31.1919C1.74757 31.276 1.58447 31.4083 1.44466 31.5765C1.3165 31.7448 1.21165 31.9492 1.1534 32.1896C1.09515 32.43 1.06019 32.7064 1.06019 33.019C1.06019 33.4998 1.09515 33.8964 1.16505 34.1969C1.23495 34.5094 1.32816 34.7498 1.46796 34.9301C1.59612 35.1104 1.75922 35.2306 1.93398 35.3028C2.12039 35.3749 2.3301 35.4109 2.55146 35.4109C2.85437 35.4109 3.11068 35.3629 3.32039 35.2667C3.5301 35.1705 3.6932 35.0383 3.82136 34.858C3.94951 34.6777 4.03107 34.4614 4.08932 34.1969C4.14757 33.9325 4.17087 33.632 4.17087 33.2834C4.17087 32.8386 4.13592 32.478 4.06602 32.1896C3.99612 31.9011 3.89126 31.6727 3.76311 31.5164C3.63495 31.3482 3.4835 31.228 3.29709 31.1679C3.12233 31.0957 2.92427 31.0597 2.70291 31.0597Z" fill="url(#paint0_linear_1168_2746)"/>
<path d="M9.27431 35.1826C9.27431 35.3869 9.34421 35.4951 9.48401 35.4951C9.55392 35.4951 9.60052 35.4591 9.62382 35.399C9.65877 35.3389 9.67042 35.2667 9.67042 35.1826V34.7619H9.99664V35.0864C9.99664 35.2427 9.97334 35.3749 9.93838 35.4831C9.90343 35.5913 9.84518 35.6754 9.77528 35.7475C9.70537 35.8197 9.62382 35.8677 9.53062 35.8918C9.43741 35.9158 9.33256 35.9399 9.2277 35.9399C9.09955 35.9399 8.99469 35.9158 8.91314 35.8798C8.81994 35.8437 8.75003 35.7836 8.69178 35.7235C8.63353 35.6514 8.58693 35.5793 8.55198 35.4951C8.51702 35.411 8.49372 35.3148 8.47042 35.2187C8.42382 35.3268 8.35392 35.423 8.26071 35.5192C8.16751 35.6153 8.06266 35.6995 7.9345 35.7716C7.80634 35.8437 7.66654 35.9038 7.51508 35.9519C7.36363 36 7.18887 36.012 7.01411 36.012C6.58304 36.012 6.26848 35.9158 6.05877 35.7355C5.86071 35.5552 5.75586 35.3028 5.75586 34.9903C5.75586 34.798 5.79081 34.6417 5.86071 34.5215C5.93062 34.4013 6.03547 34.2931 6.16363 34.209C6.29178 34.1248 6.44324 34.0527 6.60634 34.0046C6.76945 33.9566 6.95586 33.9085 7.14227 33.8724C7.32867 33.8364 7.52673 33.7883 7.73644 33.7522C7.94615 33.7162 8.14421 33.6681 8.35392 33.608V33.3916C8.35392 33.2714 8.34227 33.1632 8.30732 33.0551C8.27236 32.9469 8.22576 32.8627 8.16751 32.7786C8.09761 32.6945 8.01605 32.6344 7.9112 32.5983C7.80634 32.5502 7.68984 32.5262 7.55003 32.5262C7.31702 32.5262 7.11897 32.5502 6.95586 32.5983C6.79275 32.6464 6.6646 32.7065 6.57139 32.7906C6.67625 32.8026 6.76945 32.8387 6.83935 32.8988C6.90926 32.9589 6.94421 33.043 6.94421 33.1632C6.94421 33.2955 6.89761 33.4036 6.81605 33.4878C6.7345 33.5719 6.60634 33.608 6.45489 33.608C6.29178 33.608 6.17528 33.5599 6.09372 33.4758C6.01217 33.3916 5.97722 33.2594 5.97722 33.1031C5.97722 32.9829 6.01217 32.8627 6.08207 32.7425C6.15198 32.6223 6.25683 32.5142 6.39664 32.418C6.53644 32.3218 6.7112 32.2497 6.90926 32.1896C7.11897 32.1295 7.35198 32.1055 7.60829 32.1055C7.818 32.1055 8.0277 32.1295 8.22576 32.1656C8.42382 32.2016 8.59858 32.2737 8.75003 32.3699C8.90149 32.4661 9.01799 32.5983 9.1112 32.7666C9.2044 32.9349 9.251 33.1512 9.251 33.4036V35.1826H9.27431ZM8.36557 33.8844C8.07431 33.9566 7.81799 34.0287 7.59664 34.1008C7.37528 34.1609 7.20052 34.233 7.06071 34.3051C6.92091 34.3773 6.81605 34.4614 6.74615 34.5576C6.67625 34.6537 6.6413 34.7739 6.6413 34.9182C6.6413 35.0864 6.69955 35.2187 6.81605 35.3148C6.93256 35.411 7.10732 35.4591 7.34033 35.4591C7.57333 35.4591 7.78304 35.399 7.96945 35.2788C8.15586 35.1586 8.28401 35.0263 8.37722 34.8701V33.8844H8.36557Z" fill="url(#paint1_linear_1168_2746)"/>
<path d="M15.1115 32.6585C14.9367 32.6705 14.7736 32.7066 14.6105 32.7426C14.4591 32.7907 14.3193 32.8508 14.1911 32.947L13.4455 33.4999L14.6804 35.2308C14.7387 35.3149 14.8086 35.375 14.8901 35.4111C14.9833 35.4472 15.0999 35.4712 15.2513 35.4712V35.8799H13.0261V35.4712H13.4455C13.562 35.4712 13.6202 35.4351 13.6202 35.363C13.6202 35.327 13.5969 35.2909 13.562 35.2308L12.6999 34.0288L12.0008 34.5336V35.1587C12.0008 35.375 12.1989 35.4832 12.5833 35.4832V35.8919H10.4746V35.4832C10.8707 35.4832 11.0688 35.375 11.0688 35.1587V31.1199C11.0688 30.9036 10.8707 30.7954 10.4746 30.7954V30.3867H12.0125V34.0528L13.4804 32.959C13.5387 32.9109 13.5736 32.8628 13.5736 32.7907C13.5736 32.7547 13.562 32.7186 13.527 32.6946C13.5037 32.6705 13.4571 32.6465 13.3872 32.6465H13.061V32.2378H15.1115V32.6585Z" fill="url(#paint2_linear_1168_2746)"/>
<path d="M22.7427 32.1898L22.3116 32.2138C22.2417 31.4926 21.9505 31.132 21.4378 31.132H19.8417V33.0192H20.6806C20.9602 33.0192 21.1233 32.7187 21.1699 32.1056H21.5893L21.4845 34.4736H21.0767C21.0301 33.8486 20.8786 33.536 20.634 33.536H19.8417V35.1347C19.8417 35.3511 20.1097 35.4592 20.6573 35.4592V35.8679H18.1641V35.4592C18.5718 35.4592 18.7815 35.3511 18.7815 35.1347V31.3243C18.7815 31.108 18.5718 30.9998 18.1641 30.9998V30.5791H22.7311V32.1898H22.7427Z" fill="url(#paint3_linear_1168_2746)"/>
<path d="M26.7257 34.0524C26.7257 34.6775 26.5626 35.1583 26.2248 35.4948C25.8985 35.8314 25.4092 35.9997 24.7801 35.9997C24.5354 35.9997 24.2908 35.9756 24.0694 35.9155C23.8481 35.8554 23.65 35.7593 23.4752 35.615C23.3005 35.4708 23.1723 35.2785 23.0675 35.0381C22.9626 34.7977 22.916 34.4972 22.916 34.1486C22.916 33.4995 23.0791 32.9946 23.3937 32.6461C23.7082 32.2975 24.1976 32.1172 24.85 32.1172C25.1063 32.1172 25.3393 32.1532 25.5723 32.2133C25.8053 32.2734 26.0034 32.3816 26.1665 32.5379C26.3296 32.6821 26.4694 32.8865 26.5626 33.1269C26.6791 33.3793 26.7257 33.6798 26.7257 34.0524ZM24.8616 32.586C24.5121 32.586 24.2675 32.7062 24.116 32.9345C23.9646 33.1629 23.883 33.4995 23.883 33.9322C23.883 34.2568 23.9063 34.5212 23.9413 34.7255C23.9879 34.9299 24.0461 35.0982 24.1277 35.2184C24.2092 35.3386 24.3024 35.4227 24.4189 35.4708C24.5354 35.5189 24.6636 35.5429 24.8034 35.5429C25.1646 35.5429 25.4209 35.4227 25.5723 35.1703C25.7238 34.9179 25.7937 34.5573 25.7937 34.1005C25.7937 33.8 25.7704 33.5596 25.7238 33.3552C25.6772 33.1629 25.6189 33.0067 25.5374 32.8865C25.4558 32.7783 25.3626 32.6941 25.2461 32.6461C25.118 32.598 24.9898 32.586 24.8616 32.586Z" fill="url(#paint4_linear_1168_2746)"/>
<path d="M31.0714 34.0524C31.0714 34.6775 30.9083 35.1583 30.5705 35.4948C30.2442 35.8314 29.7549 35.9997 29.1258 35.9997C28.8811 35.9997 28.6365 35.9756 28.4151 35.9155C28.1938 35.8554 27.9957 35.7593 27.8209 35.615C27.6578 35.4708 27.518 35.2785 27.4132 35.0381C27.3083 34.7977 27.2617 34.4972 27.2617 34.1486C27.2617 33.4995 27.4248 32.9946 27.7394 32.6461C28.054 32.2975 28.5433 32.1172 29.1957 32.1172C29.452 32.1172 29.685 32.1532 29.918 32.2133C30.151 32.2734 30.3491 32.3816 30.5122 32.5379C30.6753 32.6821 30.8151 32.8865 30.9083 33.1269C31.0248 33.3793 31.0714 33.6798 31.0714 34.0524ZM29.1957 32.586C28.8462 32.586 28.6015 32.7062 28.4501 32.9345C28.2986 33.1629 28.2171 33.4995 28.2171 33.9322C28.2171 34.2568 28.2404 34.5212 28.2753 34.7255C28.3219 34.9299 28.3802 35.0982 28.4617 35.2184C28.5433 35.3386 28.6365 35.4227 28.753 35.4708C28.8695 35.5189 28.9976 35.5429 29.1374 35.5429C29.4986 35.5429 29.7549 35.4227 29.9064 35.1703C30.0578 34.9179 30.1277 34.5573 30.1277 34.1005C30.1277 33.8 30.1044 33.5596 30.0578 33.3552C30.0112 33.1629 29.953 33.0067 29.8714 32.8865C29.7899 32.7783 29.6967 32.6941 29.5802 32.6461C29.4637 32.598 29.3355 32.586 29.1957 32.586Z" fill="url(#paint5_linear_1168_2746)"/>
<path d="M35.382 35.159C35.382 35.3754 35.5801 35.4836 35.9879 35.4836V35.8923H34.683L34.6248 35.3033C34.5199 35.5437 34.3335 35.724 34.1005 35.8442C33.8558 35.9644 33.5762 36.0245 33.2617 36.0245C33.0403 36.0245 32.8189 35.9884 32.6209 35.9163C32.4228 35.8442 32.2364 35.736 32.085 35.5797C31.9335 35.4235 31.8053 35.2191 31.7238 34.9787C31.6306 34.7383 31.584 34.4378 31.584 34.0893C31.584 33.7287 31.6306 33.4282 31.7354 33.1878C31.8403 32.9353 31.9684 32.743 32.1316 32.5868C32.2947 32.4305 32.4927 32.3223 32.7024 32.2502C32.9238 32.1781 33.1451 32.142 33.3782 32.142C33.5995 32.142 33.8092 32.1781 33.9956 32.2382C34.182 32.2983 34.3335 32.3824 34.4384 32.4906V31.1444C34.4384 30.928 34.2403 30.8198 33.8325 30.8198V30.4111H35.382V35.159ZM33.5413 32.5747C33.3665 32.5747 33.2034 32.6108 33.0752 32.6829C32.9471 32.755 32.8422 32.8512 32.7607 32.9834C32.6791 33.1156 32.6209 33.2599 32.5859 33.4402C32.551 33.6205 32.5277 33.8128 32.5277 34.0292C32.5277 34.2455 32.551 34.4378 32.5859 34.6181C32.6209 34.7984 32.6908 34.9427 32.7607 35.0749C32.8306 35.2071 32.9471 35.3033 33.0752 35.3754C33.2034 35.4475 33.3549 35.4836 33.5413 35.4836C33.716 35.4836 33.8675 35.4475 33.9956 35.3754C34.1238 35.3033 34.217 35.2071 34.2985 35.0749C34.3801 34.9427 34.4267 34.7984 34.4617 34.6181C34.4966 34.4378 34.5083 34.2455 34.5083 34.0292C34.5083 33.8128 34.4966 33.6205 34.4617 33.4402C34.4267 33.2599 34.3684 33.1036 34.2985 32.9834C34.2286 32.8632 34.1238 32.755 33.9956 32.6829C33.8791 32.6108 33.7277 32.5747 33.5413 32.5747Z" fill="url(#paint6_linear_1168_2746)"/>
</g>
<path opacity="0.8" d="M18.0002 27.4177C16.4624 27.4177 14.9245 26.8167 13.7478 25.6027L6.46625 18.0902C5.33616 16.9242 4.70703 15.3616 4.70703 13.7028C4.70703 12.0441 5.33616 10.4935 6.46625 9.31553L13.7478 1.81503C14.8779 0.649082 16.3925 0 18.0002 0C19.608 0 21.1109 0.649082 22.2527 1.81503L29.5342 9.32755C31.876 11.7436 31.876 15.6861 29.5342 18.1022L22.2527 25.6027C21.076 26.8167 19.5381 27.4177 18.0002 27.4177ZM14.4818 24.8454C16.4158 26.8407 19.5731 26.8407 21.507 24.8454L28.7886 17.3329C30.7226 15.3376 30.7226 12.0922 28.7886 10.0848L21.507 2.57229C20.575 1.61068 19.3167 1.06978 18.0002 1.06978C16.6721 1.06978 15.4255 1.59866 14.4934 2.57229L7.21189 10.0848C6.27985 11.0464 5.75557 12.3446 5.75557 13.7028C5.75557 15.0731 6.2682 16.3593 7.21189 17.3209L14.4818 24.8454Z" fill="url(#paint7_linear_1168_2746)"/>
<mask id="mask0_1168_2746" style="mask-type:luminance" maskUnits="userSpaceOnUse" x="5" y="1" width="26" height="26">
<path d="M18.0006 26.3354C16.6724 26.3354 15.4258 25.8066 14.4938 24.8329L7.2122 17.3204C5.27822 15.3251 5.27822 12.0797 7.2122 10.0844L14.4938 2.57184C15.4258 1.61024 16.6724 1.06934 18.0006 1.06934C19.3287 1.06934 20.5753 1.59822 21.5074 2.57184L28.7773 10.0964C29.7093 11.058 30.2336 12.3441 30.2336 13.7144C30.2336 15.0847 29.7209 16.3708 28.7773 17.3324L21.4957 24.845C20.5637 25.8066 19.3171 26.3354 18.0006 26.3354Z" fill="white"/>
</mask>
<g mask="url(#mask0_1168_2746)">
<g opacity="0.8">
<path d="M12.5603 10.6133C15.8923 10.6133 18.0011 12.9932 18.0011 17.044C18.0011 21.1669 16.0321 23.7151 12.4205 23.7151C8.8438 23.7151 6.85156 21.3953 6.85156 17.2123C6.85156 13.2096 9.19331 10.6133 12.5603 10.6133ZM12.502 11.1782C9.49622 11.1782 8.8904 13.7265 8.8904 17.1882C8.8904 20.3976 9.51952 23.1502 12.4438 23.1502C15.2749 23.1502 15.9273 20.5899 15.9273 17.1161C15.9389 13.7144 15.3448 11.1782 12.502 11.1782Z" fill="url(#paint8_linear_1168_2746)"/>
</g>
</g>
<mask id="mask1_1168_2746" style="mask-type:luminance" maskUnits="userSpaceOnUse" x="5" y="1" width="26" height="26">
<path d="M18.0006 26.3354C16.6724 26.3354 15.4258 25.8066 14.4938 24.8329L7.2122 17.3204C5.27822 15.3251 5.27822 12.0797 7.2122 10.0844L14.4938 2.57184C15.4258 1.61024 16.6724 1.06934 18.0006 1.06934C19.3287 1.06934 20.5753 1.59822 21.5074 2.57184L28.7773 10.0964C29.7093 11.058 30.2336 12.3441 30.2336 13.7144C30.2336 15.0847 29.7209 16.3708 28.7773 17.3324L21.4957 24.845C20.5637 25.8066 19.3171 26.3354 18.0006 26.3354Z" fill="white"/>
</mask>
<g mask="url(#mask1_1168_2746)">
<g opacity="0.8">
<path d="M26.6447 5.78155L26.8194 9.2914H26.4C26.0505 6.58689 25.0136 6.31043 22.8233 6.31043H21.2388V11.8637H22.2408C23.6621 11.8637 24.035 11.431 24.3146 9.54382H24.6874V14.9168H24.2796C23.965 12.9215 23.6854 12.4406 22.066 12.4406H21.2388V17.9578H23.5107V18.4867H18V17.9578H19.3864V6.29841H18V5.76953H26.6447V5.78155Z" fill="url(#paint9_linear_1168_2746)"/>
</g>
</g>
</g>
<defs>
<linearGradient id="paint0_linear_1168_2746" x1="-2.19006" y1="33.2372" x2="40.7153" y2="33.2372" gradientUnits="userSpaceOnUse">
<stop stop-color="#FCF3A3"/>
<stop offset="0.083521" stop-color="#F7E189"/>
<stop offset="0.2592" stop-color="#E7B245"/>
<stop offset="0.2896" stop-color="#E4A939"/>
<stop offset="0.3191" stop-color="#E7B345"/>
<stop offset="0.4346" stop-color="#F3D674"/>
<stop offset="0.5248" stop-color="#FAEB91"/>
<stop offset="0.578" stop-color="#FDF39C"/>
<stop offset="0.6184" stop-color="#FBEE96"/>
<stop offset="0.6722" stop-color="#F7E183"/>
<stop offset="0.7338" stop-color="#EFCA64"/>
<stop offset="0.8006" stop-color="#E5AB3B"/>
<stop offset="0.8043" stop-color="#E4A939"/>
<stop offset="0.8312" stop-color="#E9B64B"/>
<stop offset="0.9065" stop-color="#F4D87B"/>
<stop offset="0.9653" stop-color="#FAEC98"/>
<stop offset="1" stop-color="#FCF3A3"/>
</linearGradient>
<linearGradient id="paint1_linear_1168_2746" x1="-2.18954" y1="34.0542" x2="40.7158" y2="34.0542" gradientUnits="userSpaceOnUse">
<stop stop-color="#FCF3A3"/>
<stop offset="0.083521" stop-color="#F7E189"/>
<stop offset="0.2592" stop-color="#E7B245"/>
<stop offset="0.2896" stop-color="#E4A939"/>
<stop offset="0.3191" stop-color="#E7B345"/>
<stop offset="0.4346" stop-color="#F3D674"/>
<stop offset="0.5248" stop-color="#FAEB91"/>
<stop offset="0.578" stop-color="#FDF39C"/>
<stop offset="0.6184" stop-color="#FBEE96"/>
<stop offset="0.6722" stop-color="#F7E183"/>
<stop offset="0.7338" stop-color="#EFCA64"/>
<stop offset="0.8006" stop-color="#E5AB3B"/>
<stop offset="0.8043" stop-color="#E4A939"/>
<stop offset="0.8312" stop-color="#E9B64B"/>
<stop offset="0.9065" stop-color="#F4D87B"/>
<stop offset="0.9653" stop-color="#FAEC98"/>
<stop offset="1" stop-color="#FCF3A3"/>
</linearGradient>
<linearGradient id="paint2_linear_1168_2746" x1="-2.18923" y1="33.1375" x2="40.7161" y2="33.1375" gradientUnits="userSpaceOnUse">
<stop stop-color="#FCF3A3"/>
<stop offset="0.083521" stop-color="#F7E189"/>
<stop offset="0.2592" stop-color="#E7B245"/>
<stop offset="0.2896" stop-color="#E4A939"/>
<stop offset="0.3191" stop-color="#E7B345"/>
<stop offset="0.4346" stop-color="#F3D674"/>
<stop offset="0.5248" stop-color="#FAEB91"/>
<stop offset="0.578" stop-color="#FDF39C"/>
<stop offset="0.6184" stop-color="#FBEE96"/>
<stop offset="0.6722" stop-color="#F7E183"/>
<stop offset="0.7338" stop-color="#EFCA64"/>
<stop offset="0.8006" stop-color="#E5AB3B"/>
<stop offset="0.8043" stop-color="#E4A939"/>
<stop offset="0.8312" stop-color="#E9B64B"/>
<stop offset="0.9065" stop-color="#F4D87B"/>
<stop offset="0.9653" stop-color="#FAEC98"/>
<stop offset="1" stop-color="#FCF3A3"/>
</linearGradient>
<linearGradient id="paint3_linear_1168_2746" x1="-2.1891" y1="33.2339" x2="40.7162" y2="33.2339" gradientUnits="userSpaceOnUse">
<stop stop-color="#FCF3A3"/>
<stop offset="0.083521" stop-color="#F7E189"/>
<stop offset="0.2592" stop-color="#E7B245"/>
<stop offset="0.2896" stop-color="#E4A939"/>
<stop offset="0.3191" stop-color="#E7B345"/>
<stop offset="0.4346" stop-color="#F3D674"/>
<stop offset="0.5248" stop-color="#FAEB91"/>
<stop offset="0.578" stop-color="#FDF39C"/>
<stop offset="0.6184" stop-color="#FBEE96"/>
<stop offset="0.6722" stop-color="#F7E183"/>
<stop offset="0.7338" stop-color="#EFCA64"/>
<stop offset="0.8006" stop-color="#E5AB3B"/>
<stop offset="0.8043" stop-color="#E4A939"/>
<stop offset="0.8312" stop-color="#E9B64B"/>
<stop offset="0.9065" stop-color="#F4D87B"/>
<stop offset="0.9653" stop-color="#FAEC98"/>
<stop offset="1" stop-color="#FCF3A3"/>
</linearGradient>
<linearGradient id="paint4_linear_1168_2746" x1="-2.19055" y1="34.0611" x2="40.7148" y2="34.0611" gradientUnits="userSpaceOnUse">
<stop stop-color="#FCF3A3"/>
<stop offset="0.083521" stop-color="#F7E189"/>
<stop offset="0.2592" stop-color="#E7B245"/>
<stop offset="0.2896" stop-color="#E4A939"/>
<stop offset="0.3191" stop-color="#E7B345"/>
<stop offset="0.4346" stop-color="#F3D674"/>
<stop offset="0.5248" stop-color="#FAEB91"/>
<stop offset="0.578" stop-color="#FDF39C"/>
<stop offset="0.6184" stop-color="#FBEE96"/>
<stop offset="0.6722" stop-color="#F7E183"/>
<stop offset="0.7338" stop-color="#EFCA64"/>
<stop offset="0.8006" stop-color="#E5AB3B"/>
<stop offset="0.8043" stop-color="#E4A939"/>
<stop offset="0.8312" stop-color="#E9B64B"/>
<stop offset="0.9065" stop-color="#F4D87B"/>
<stop offset="0.9653" stop-color="#FAEC98"/>
<stop offset="1" stop-color="#FCF3A3"/>
</linearGradient>
<linearGradient id="paint5_linear_1168_2746" x1="-2.19049" y1="34.0611" x2="40.7149" y2="34.0611" gradientUnits="userSpaceOnUse">
<stop stop-color="#FCF3A3"/>
<stop offset="0.083521" stop-color="#F7E189"/>
<stop offset="0.2592" stop-color="#E7B245"/>
<stop offset="0.2896" stop-color="#E4A939"/>
<stop offset="0.3191" stop-color="#E7B345"/>
<stop offset="0.4346" stop-color="#F3D674"/>
<stop offset="0.5248" stop-color="#FAEB91"/>
<stop offset="0.578" stop-color="#FDF39C"/>
<stop offset="0.6184" stop-color="#FBEE96"/>
<stop offset="0.6722" stop-color="#F7E183"/>
<stop offset="0.7338" stop-color="#EFCA64"/>
<stop offset="0.8006" stop-color="#E5AB3B"/>
<stop offset="0.8043" stop-color="#E4A939"/>
<stop offset="0.8312" stop-color="#E9B64B"/>
<stop offset="0.9065" stop-color="#F4D87B"/>
<stop offset="0.9653" stop-color="#FAEC98"/>
<stop offset="1" stop-color="#FCF3A3"/>
</linearGradient>
<linearGradient id="paint6_linear_1168_2746" x1="-2.19053" y1="33.1985" x2="40.7148" y2="33.1985" gradientUnits="userSpaceOnUse">
<stop stop-color="#FCF3A3"/>
<stop offset="0.083521" stop-color="#F7E189"/>
<stop offset="0.2592" stop-color="#E7B245"/>
<stop offset="0.2896" stop-color="#E4A939"/>
<stop offset="0.3191" stop-color="#E7B345"/>
<stop offset="0.4346" stop-color="#F3D674"/>
<stop offset="0.5248" stop-color="#FAEB91"/>
<stop offset="0.578" stop-color="#FDF39C"/>
<stop offset="0.6184" stop-color="#FBEE96"/>
<stop offset="0.6722" stop-color="#F7E183"/>
<stop offset="0.7338" stop-color="#EFCA64"/>
<stop offset="0.8006" stop-color="#E5AB3B"/>
<stop offset="0.8043" stop-color="#E4A939"/>
<stop offset="0.8312" stop-color="#E9B64B"/>
<stop offset="0.9065" stop-color="#F4D87B"/>
<stop offset="0.9653" stop-color="#FAEC98"/>
<stop offset="1" stop-color="#FCF3A3"/>
</linearGradient>
<linearGradient id="paint7_linear_1168_2746" x1="-2.67738" y1="13.7097" x2="47.2482" y2="13.7097" gradientUnits="userSpaceOnUse">
<stop stop-color="#FCF3A3"/>
<stop offset="0.083521" stop-color="#F7E189"/>
<stop offset="0.2592" stop-color="#E7B245"/>
<stop offset="0.2896" stop-color="#E4A939"/>
<stop offset="0.3191" stop-color="#E7B345"/>
<stop offset="0.4346" stop-color="#F3D674"/>
<stop offset="0.5248" stop-color="#FAEB91"/>
<stop offset="0.578" stop-color="#FDF39C"/>
<stop offset="0.6184" stop-color="#FBEE96"/>
<stop offset="0.6722" stop-color="#F7E183"/>
<stop offset="0.7338" stop-color="#EFCA64"/>
<stop offset="0.8006" stop-color="#E5AB3B"/>
<stop offset="0.8043" stop-color="#E4A939"/>
<stop offset="0.8312" stop-color="#E9B64B"/>
<stop offset="0.9065" stop-color="#F4D87B"/>
<stop offset="0.9653" stop-color="#FAEC98"/>
<stop offset="1" stop-color="#FCF3A3"/>
</linearGradient>
<linearGradient id="paint8_linear_1168_2746" x1="1.60357" y1="17.1619" x2="45.3927" y2="17.1619" gradientUnits="userSpaceOnUse">
<stop stop-color="#FCF3A3"/>
<stop offset="0.083521" stop-color="#F7E189"/>
<stop offset="0.2592" stop-color="#E7B245"/>
<stop offset="0.2896" stop-color="#E4A939"/>
<stop offset="0.3191" stop-color="#E7B345"/>
<stop offset="0.4346" stop-color="#F3D674"/>
<stop offset="0.5248" stop-color="#FAEB91"/>
<stop offset="0.578" stop-color="#FDF39C"/>
<stop offset="0.6184" stop-color="#FBEE96"/>
<stop offset="0.6722" stop-color="#F7E183"/>
<stop offset="0.7338" stop-color="#EFCA64"/>
<stop offset="0.8006" stop-color="#E5AB3B"/>
<stop offset="0.8043" stop-color="#E4A939"/>
<stop offset="0.8312" stop-color="#E9B64B"/>
<stop offset="0.9065" stop-color="#F4D87B"/>
<stop offset="0.9653" stop-color="#FAEC98"/>
<stop offset="1" stop-color="#FCF3A3"/>
</linearGradient>
<linearGradient id="paint9_linear_1168_2746" x1="1.60249" y1="12.1405" x2="45.3916" y2="12.1405" gradientUnits="userSpaceOnUse">
<stop stop-color="#FCF3A3"/>
<stop offset="0.083521" stop-color="#F7E189"/>
<stop offset="0.2592" stop-color="#E7B245"/>
<stop offset="0.2896" stop-color="#E4A939"/>
<stop offset="0.3191" stop-color="#E7B345"/>
<stop offset="0.4346" stop-color="#F3D674"/>
<stop offset="0.5248" stop-color="#FAEB91"/>
<stop offset="0.578" stop-color="#FDF39C"/>
<stop offset="0.6184" stop-color="#FBEE96"/>
<stop offset="0.6722" stop-color="#F7E183"/>
<stop offset="0.7338" stop-color="#EFCA64"/>
<stop offset="0.8006" stop-color="#E5AB3B"/>
<stop offset="0.8043" stop-color="#E4A939"/>
<stop offset="0.8312" stop-color="#E9B64B"/>
<stop offset="0.9065" stop-color="#F4D87B"/>
<stop offset="0.9653" stop-color="#FAEC98"/>
<stop offset="1" stop-color="#FCF3A3"/>
</linearGradient>
<clipPath id="clip0_1168_2746">
<rect width="36" height="36" fill="white"/>
</clipPath>
</defs>
</svg>
